<svg width="262" height="28" viewBox="0 0 262 28" fill="none" xmlns="http://www.w3.org/2000/svg">
<path d="M24.3764 9.98438H18.777C18.6747 9.25994 18.4659 8.61648 18.1506 8.05398C17.8352 7.48295 17.4304 6.99716 16.9361 6.59659C16.4418 6.19602 15.8707 5.8892 15.223 5.67614C14.5838 5.46307 13.8892 5.35653 13.1392 5.35653C11.7841 5.35653 10.6037 5.69318 9.59801 6.36648C8.59233 7.03125 7.8125 8.00284 7.25852 9.28125C6.70455 10.5511 6.42756 12.0937 6.42756 13.9091C6.42756 15.7756 6.70455 17.3437 7.25852 18.6136C7.82102 19.8835 8.60511 20.8423 9.6108 21.4901C10.6165 22.1378 11.7798 22.4616 13.1009 22.4616C13.8423 22.4616 14.5284 22.3636 15.1591 22.1676C15.7983 21.9716 16.3651 21.6861 16.8594 21.3111C17.3537 20.9276 17.7628 20.4631 18.0866 19.9176C18.419 19.3722 18.6491 18.75 18.777 18.0511L24.3764 18.0767C24.2315 19.2784 23.8693 20.4375 23.2898 21.554C22.7188 22.6619 21.9474 23.6548 20.9759 24.5327C20.0128 25.402 18.8622 26.0923 17.5241 26.6037C16.1946 27.1065 14.6903 27.358 13.0114 27.358C10.6761 27.358 8.58807 26.8295 6.74716 25.7727C4.91477 24.7159 3.46591 23.1861 2.40057 21.1832C1.34375 19.1804 0.815341 16.7557 0.815341 13.9091C0.815341 11.054 1.35227 8.625 2.42614 6.62216C3.5 4.61932 4.95739 3.09375 6.7983 2.04545C8.6392 0.988636 10.7102 0.460226 13.0114 0.460226C14.5284 0.460226 15.9347 0.673295 17.2301 1.09943C18.5341 1.52557 19.6889 2.14773 20.6946 2.96591C21.7003 3.77557 22.5185 4.76846 23.1491 5.9446C23.7884 7.12074 24.1974 8.46733 24.3764 9.98438ZM32.3665 27H26.4347L35.473 0.818181H42.6065L51.6321 27H45.7003L39.142 6.80114H38.9375L32.3665 27ZM31.9957 16.7088H46.0071V21.0298H31.9957V16.7088ZM54.7834 27V0.818181H65.1129C67.0902 0.818181 68.7777 1.17187 70.1754 1.87926C71.5817 2.57812 72.6513 3.57102 73.3842 4.85795C74.1257 6.13636 74.4965 7.64062 74.4965 9.37074C74.4965 11.1094 74.1215 12.6051 73.3715 13.858C72.6215 15.1023 71.5348 16.0568 70.1115 16.7216C68.6967 17.3864 66.9837 17.7188 64.9723 17.7188H58.0561V13.2699H64.0774C65.1342 13.2699 66.0121 13.125 66.7109 12.8352C67.4098 12.5455 67.9297 12.1108 68.2706 11.5312C68.62 10.9517 68.7947 10.2315 68.7947 9.37074C68.7947 8.50142 68.62 7.76847 68.2706 7.17188C67.9297 6.57528 67.4055 6.12358 66.6982 5.81676C65.9993 5.50142 65.1172 5.34375 64.0518 5.34375H60.3189V27H54.7834ZM68.9226 15.0852L75.4297 27H69.3189L62.9524 15.0852H68.9226ZM101.509 9.98438H95.9098C95.8075 9.25994 95.5987 8.61648 95.2834 8.05398C94.968 7.48295 94.5632 6.99716 94.0689 6.59659C93.5746 6.19602 93.0036 5.8892 92.3558 5.67614C91.7166 5.46307 91.022 5.35653 90.272 5.35653C88.9169 5.35653 87.7365 5.69318 86.7308 6.36648C85.7251 7.03125 84.9453 8.00284 84.3913 9.28125C83.8374 10.5511 83.5604 12.0937 83.5604 13.9091C83.5604 15.7756 83.8374 17.3437 84.3913 18.6136C84.9538 19.8835 85.7379 20.8423 86.7436 21.4901C87.7493 22.1378 88.9126 22.4616 90.2337 22.4616C90.9751 22.4616 91.6612 22.3636 92.2919 22.1676C92.9311 21.9716 93.4979 21.6861 93.9922 21.3111C94.4865 20.9276 94.8956 20.4631 95.2195 19.9176C95.5518 19.3722 95.782 18.75 95.9098 18.0511L101.509 18.0767C101.364 19.2784 101.002 20.4375 100.423 21.554C99.8516 22.6619 99.0803 23.6548 98.1087 24.5327C97.1456 25.402 95.995 26.0923 94.657 26.6037C93.3274 27.1065 91.8232 27.358 90.1442 27.358C87.8089 27.358 85.7209 26.8295 83.88 25.7727C82.0476 24.7159 80.5987 23.1861 79.5334 21.1832C78.4766 19.1804 77.9482 16.7557 77.9482 13.9091C77.9482 11.054 78.4851 8.625 79.5589 6.62216C80.6328 4.61932 82.0902 3.09375 83.9311 2.04545C85.772 0.988636 87.843 0.460226 90.1442 0.460226C91.6612 0.460226 93.0675 0.673295 94.3629 1.09943C95.6669 1.52557 96.8217 2.14773 97.8274 2.96591C98.8331 3.77557 99.6513 4.76846 100.282 5.9446C100.921 7.12074 101.33 8.46733 101.509 9.98438ZM105.479 27V0.818181H111.014V22.4361H122.239V27H105.479ZM131.44 0.818181V27H125.904V0.818181H131.44ZM157.893 0.818181V27H153.112L141.722 10.5213H141.53V27H135.994V0.818181H140.852L152.153 17.2841H152.384V0.818181H157.893ZM168.002 0.818181V27H162.467V0.818181H168.002ZM195.658 9.98438H190.058C189.956 9.25994 189.747 8.61648 189.432 8.05398C189.116 7.48295 188.712 6.99716 188.217 6.59659C187.723 6.19602 187.152 5.8892 186.504 5.67614C185.865 5.46307 185.17 5.35653 184.42 5.35653C183.065 5.35653 181.885 5.69318 180.879 6.36648C179.874 7.03125 179.094 8.00284 178.54 9.28125C177.986 10.5511 177.709 12.0937 177.709 13.9091C177.709 15.7756 177.986 17.3437 178.54 18.6136C179.102 19.8835 179.886 20.8423 180.892 21.4901C181.898 22.1378 183.061 22.4616 184.382 22.4616C185.124 22.4616 185.81 22.3636 186.44 22.1676C187.08 21.9716 187.646 21.6861 188.141 21.3111C188.635 20.9276 189.044 20.4631 189.368 19.9176C189.7 19.3722 189.93 18.75 190.058 18.0511L195.658 18.0767C195.513 19.2784 195.151 20.4375 194.571 21.554C194 22.6619 193.229 23.6548 192.257 24.5327C191.294 25.402 190.143 26.0923 188.805 26.6037C187.476 27.1065 185.972 27.358 184.293 27.358C181.957 27.358 179.869 26.8295 178.028 25.7727C176.196 24.7159 174.747 23.1861 173.682 21.1832C172.625 19.1804 172.097 16.7557 172.097 13.9091C172.097 11.054 172.634 8.625 173.707 6.62216C174.781 4.61932 176.239 3.09375 178.08 2.04545C179.92 0.988636 181.991 0.460226 184.293 0.460226C185.81 0.460226 187.216 0.673295 188.511 1.09943C189.815 1.52557 190.97 2.14773 191.976 2.96591C192.982 3.77557 193.8 4.76846 194.43 5.9446C195.07 7.12074 195.479 8.46733 195.658 9.98438Z" fill="white"/>
<path d="M207.959 27V0.818181H225.294V5.3821H213.495V11.6207H224.144V16.1847H213.495V27H207.959ZM234.553 0.818181V27H229.018V0.818181H234.553ZM244.298 0.818181L249.578 9.74148H249.782L255.088 0.818181H261.339L253.349 13.9091L261.518 27H255.152L249.782 18.0639H249.578L244.208 27H237.868L246.062 13.9091L238.021 0.818181H244.298Z" fill="#006AD3"/>
</svg>
