<svg width="173" height="57" viewBox="0 0 173 57" fill="none" xmlns="http://www.w3.org/2000/svg">
    <path d="M0 10C0 4.47715 4.47715 0 10 0H163C168.523 0 173 4.47715 173 10V47C173 52.5228 168.523 57 163 57H10C4.47715 57 0 52.5228 0 47V10Z" fill="white"/>
    <path fill-rule="evenodd" clip-rule="evenodd" d="M104.945 39.3472C102.876 39.3472 101.362 38.3119 101.187 36.7351L98.7797 36.735C98.9317 39.611 101.285 41.4303 104.771 41.4303C108.496 41.4303 110.838 39.5672 110.838 36.5925C110.838 34.2668 109.498 32.9563 106.273 32.1848L104.542 31.7547C102.516 31.2483 101.688 30.5868 101.688 29.4627C101.688 28.0523 102.985 27.0832 104.879 27.0832C106.774 27.0832 108.071 28.041 108.213 29.6278H110.587C110.51 26.8844 108.234 25 104.913 25C101.557 25 99.1938 26.8844 99.1938 29.6278C99.1938 31.8435 100.534 33.2089 103.42 33.9142L105.457 34.4106C107.493 34.917 108.354 35.656 108.354 36.8901C108.354 38.3118 106.927 39.3472 104.945 39.3472ZM63.967 36.8677H57.9761L56.5375 41.1653H54L59.6744 25.2651H62.3107L67.9851 41.1653H65.4044L63.967 36.8677ZM58.5967 34.8847H63.3454L61.0044 27.9099H60.9389L58.5967 34.8847ZM75.4579 41.2863C78.334 41.2863 80.2399 38.9718 80.2399 35.3694C80.2399 31.777 78.3228 29.4512 75.4146 29.4512C73.9182 29.4024 72.5163 30.1898 71.766 31.5006H71.7228V29.5725H69.446V45H71.7981V39.2581H71.8525C72.5709 40.5772 73.9713 41.365 75.4579 41.2863ZM77.8224 35.3695C77.8224 33.0225 76.6235 31.4795 74.7942 31.4795C72.9971 31.4795 71.7883 33.055 71.7883 35.3695C71.7883 37.7053 72.9971 39.2695 74.7942 39.2695C76.6235 39.2695 77.8224 37.7378 77.8224 35.3695ZM88.07 41.2863C90.9461 41.2863 92.852 38.9718 92.852 35.3694C92.852 31.7769 90.935 29.4512 88.0267 29.4512C86.5302 29.4024 85.1283 30.1898 84.378 31.5006H84.3348V29.5725H82.0581V45H84.4102V39.2581H84.4646C85.183 40.5772 86.5833 41.365 88.07 41.2863ZM90.4345 35.3695C90.4345 33.0225 89.2355 31.4795 87.4063 31.4795C85.6092 31.4795 84.4004 33.055 84.4004 35.3695C84.4004 37.7053 85.6092 39.2695 87.4063 39.2695C89.2356 39.2695 90.4345 37.7378 90.4345 35.3695ZM115.914 26.8295V29.5729H118.093V31.4573H115.914V37.8481C115.914 38.8409 116.35 39.3036 117.308 39.3036C117.567 39.299 117.825 39.2806 118.082 39.2485V41.1216C117.651 41.203 117.214 41.2399 116.776 41.2317C114.456 41.2317 113.551 40.3501 113.551 38.1019V31.4573H111.885V29.5729H113.551V26.8295H115.914ZM124.79 29.4303C121.479 29.4303 119.355 31.7223 119.355 35.3697C119.355 39.0271 121.458 41.3091 124.79 41.3091C128.123 41.3091 130.226 39.0271 130.226 35.3697C130.226 31.7222 128.112 29.4303 124.79 29.4303ZM127.829 35.3694C127.829 32.8674 126.695 31.3906 124.789 31.3906C122.883 31.3906 121.751 32.8786 121.751 35.3694C121.751 37.8815 122.883 39.347 124.789 39.347C126.695 39.347 127.828 37.8815 127.829 35.3694ZM134.408 29.5729H132.165L132.165 41.1654H134.517V34.2894C134.439 33.5938 134.665 32.8983 135.136 32.3855C135.607 31.8727 136.276 31.5939 136.968 31.6223C137.325 31.6117 137.682 31.6603 138.025 31.7661V29.5404C137.76 29.4804 137.49 29.4506 137.219 29.4516C135.926 29.4016 134.775 30.2758 134.463 31.546H134.408V29.5729ZM148.869 37.7605C148.553 39.8649 146.527 41.3091 143.935 41.3091C140.602 41.3091 138.533 39.0496 138.533 35.4247C138.533 31.7885 140.613 29.4303 143.837 29.4303C147.007 29.4303 149 31.6335 149 35.1484V35.9636H140.907V36.1074C140.832 36.9705 141.126 37.8248 141.716 38.453C142.306 39.0812 143.134 39.4229 143.99 39.391C145.131 39.4992 146.207 38.8361 146.636 37.7605L148.869 37.7605ZM146.647 34.3004H140.918C140.916 33.5178 141.223 32.7667 141.771 32.2142C142.319 31.6617 143.063 31.3536 143.836 31.3582C144.604 31.3415 145.344 31.6496 145.877 32.2081C146.411 32.7666 146.69 33.5249 146.647 34.3004Z" fill="#152329"/>
    <path fill-rule="evenodd" clip-rule="evenodd" d="M86.0104 13H87.1414V20.8769H86.0104V13ZM61.623 14.399C60.9308 13.6764 59.9473 13.2988 58.9432 13.37H56.2002V20.8771H58.9432C61.2052 20.8771 62.5165 19.4985 62.5165 17.1002C62.6431 16.1129 62.3152 15.1216 61.623 14.399ZM58.8114 19.8152H57.3796V14.4306H58.8114C59.5252 14.3915 60.2193 14.6697 60.7039 15.1892C61.1886 15.7087 61.413 16.4151 61.3158 17.1152C61.4206 17.8183 61.1994 18.5306 60.7135 19.0543C60.2277 19.5781 59.529 19.8576 58.8114 19.8152ZM63.8485 18.0419C63.7503 17.0264 64.2428 16.0437 65.1196 15.5058C65.9964 14.9679 67.1059 14.9679 67.9827 15.5058C68.8595 16.0437 69.352 17.0264 69.2538 18.0419C69.3539 19.0584 68.8618 20.0431 67.9842 20.5821C67.1066 21.1211 65.9957 21.1211 65.1181 20.5821C64.2405 20.0431 63.7484 19.0584 63.8485 18.0419ZM66.5535 16.0956C67.5329 16.0956 68.0909 16.8137 68.0909 18.0418H68.0909C68.0909 19.2747 67.5329 19.9922 66.5535 19.9923C65.5704 19.9923 65.0173 19.2796 65.0173 18.0418C65.0173 16.8137 65.5704 16.0956 66.5535 16.0956ZM76.439 20.8769H75.2658L74.0813 16.7044H73.9918L72.8123 20.8769H71.6502L70.0706 15.2115H71.2177L72.2443 19.5345H72.3289L73.5071 15.2115H74.5921L75.7704 19.5345H75.8599L76.8815 15.2115H78.0125L76.439 20.8769ZM80.4301 15.2115H79.3413L79.3413 20.8768H80.4723V17.5625C80.4317 17.1855 80.5597 16.8098 80.8228 16.5338C81.0858 16.2579 81.4576 16.1092 81.8407 16.1269C82.6772 16.1269 83.0774 16.5796 83.0774 17.4901V20.8768H84.2084V17.2093C84.2913 16.6554 84.1149 16.0942 83.729 15.6843C83.3431 15.2744 82.7896 15.0602 82.2248 15.1022C81.4953 15.0435 80.8085 15.4489 80.5146 16.1115H80.4301V15.2115ZM89.985 15.5058C89.1082 16.0437 88.6155 17.0264 88.7137 18.042C88.6137 19.0586 89.1059 20.0432 89.9835 20.5822C90.8612 21.1212 91.9722 21.1212 92.8498 20.5822C93.7274 20.0432 94.2196 19.0586 94.1196 18.042C94.2178 17.0264 93.7252 16.0437 92.8483 15.5058C91.9714 14.9679 90.8619 14.9679 89.985 15.5058ZM92.9554 18.0418C92.9554 16.8137 92.3974 16.0956 91.418 16.0956C90.4349 16.0956 89.8818 16.8137 89.8818 18.0418C89.8818 19.2796 90.4349 19.9923 91.418 19.9923C92.3974 19.9922 92.9554 19.2747 92.9554 18.0418ZM97.4421 17.5836C96.0786 17.6672 95.3105 18.2551 95.3105 19.2749C95.3125 19.7584 95.5212 20.2186 95.8852 20.5416C96.2491 20.8646 96.7343 21.0204 97.2208 20.9704C97.9148 21.0021 98.5724 20.6623 98.9422 20.0809H99.0317V20.877H100.12V17.0062C100.12 15.8094 99.3101 15.1024 97.8733 15.1024C96.5733 15.1024 95.6474 15.7265 95.5318 16.6996H96.6268C96.7523 16.2991 97.1898 16.0699 97.8212 16.0699C98.5942 16.0699 98.9944 16.4078 98.9944 17.0062V17.4952L97.4421 17.5836ZM98.9942 18.7905V18.3168L97.5947 18.4053C96.8055 18.4575 96.4475 18.7229 96.4475 19.2223C96.4475 19.7322 96.8949 20.0289 97.5102 20.0289C97.8744 20.0654 98.238 19.9542 98.5178 19.7207C98.7975 19.4872 98.9694 19.1515 98.9942 18.7905ZM103.985 15.1176C102.537 15.1176 101.606 16.2517 101.606 18.0418C101.606 19.8362 102.527 20.9703 103.985 20.9703C104.724 20.9972 105.418 20.6165 105.785 19.9818H105.874V20.8769H106.958V13H105.827V16.1115H105.743C105.401 15.4716 104.716 15.0843 103.985 15.1176ZM102.775 18.0416C102.775 19.2432 103.348 19.9662 104.306 19.9662C105.259 19.9662 105.849 19.2327 105.849 18.0465C105.849 16.8657 105.253 16.1218 104.306 16.1218C103.354 16.1218 102.775 16.8498 102.775 18.0416H102.775ZM112.909 15.5058C112.032 16.0437 111.539 17.0264 111.638 18.0419C111.537 19.0584 112.03 20.0431 112.907 20.5821C113.785 21.1211 114.896 21.1211 115.773 20.5821C116.651 20.0431 117.143 19.0584 117.043 18.0419C117.141 17.0264 116.649 16.0437 115.772 15.5058C114.895 14.9679 113.785 14.9679 112.909 15.5058ZM115.88 18.0418C115.88 16.8137 115.322 16.0956 114.343 16.0956C113.359 16.0956 112.806 16.8137 112.806 18.0418C112.806 19.2796 113.359 19.9923 114.343 19.9923C115.322 19.9922 115.88 19.2747 115.88 18.0418ZM119.65 15.2115H118.561V20.8768H119.692V17.5625C119.651 17.1855 119.779 16.8098 120.042 16.5338C120.305 16.2579 120.677 16.1092 121.06 16.1269C121.897 16.1269 122.297 16.5796 122.297 17.4901V20.8768H123.428V17.2093C123.511 16.6554 123.334 16.0942 122.949 15.6843C122.563 15.2744 122.009 15.0602 121.444 15.1022C120.715 15.0435 120.028 15.4489 119.734 16.1115H119.65V15.2115ZM129.819 13.8011V15.2374H131.06V16.1791H129.819V19.0923C129.819 19.6857 130.066 19.9456 130.629 19.9456C130.773 19.9451 130.917 19.9365 131.06 19.9198V20.8511C130.857 20.887 130.651 20.9061 130.445 20.9082C129.187 20.9082 128.686 20.4708 128.686 19.3785V16.1791H127.777V15.2373H128.686V13.8011H129.819ZM133.726 13H132.605L132.605 20.8769H133.736V17.5681C133.701 17.1794 133.841 16.7952 134.119 16.5183C134.398 16.2413 134.785 16.0999 135.179 16.1318C135.978 16.1318 136.404 16.5901 136.404 17.495V20.8769H137.536V17.2192C137.611 16.6681 137.434 16.1127 137.052 15.7043C136.67 15.2959 136.124 15.0769 135.563 15.1071C134.822 15.0477 134.123 15.4536 133.815 16.122H133.726V13ZM144.132 19.3475C143.815 20.4161 142.769 21.1066 141.649 20.9865C140.884 21.0064 140.15 20.6933 139.64 20.1302C139.13 19.5671 138.897 18.8109 139.001 18.0623C138.9 17.3116 139.132 16.5542 139.639 15.9864C140.146 15.4185 140.877 15.096 141.644 15.1025C143.238 15.1025 144.2 16.1794 144.2 17.9584V18.3486H140.153V18.4112C140.118 18.8316 140.263 19.2475 140.553 19.5564C140.844 19.8654 141.253 20.0389 141.68 20.0342C142.233 20.0999 142.772 19.8286 143.043 19.3474L144.132 19.3475ZM143.048 17.5213H140.154C140.149 17.1307 140.303 16.7545 140.583 16.4782C140.862 16.2019 141.242 16.0488 141.638 16.0537C142.028 16.0449 142.403 16.1992 142.672 16.4787C142.94 16.7582 143.077 17.1369 143.048 17.5213Z" fill="#152329"/>
    <path fill-rule="evenodd" clip-rule="evenodd" d="M40.3674 14.1001C40.4876 15.6676 39.9911 17.2202 38.9834 18.4281C38.0057 19.6423 36.5243 20.3417 34.964 20.3256C34.8648 18.8032 35.3757 17.3039 36.3843 16.1578C37.4056 14.9963 38.8278 14.2616 40.3674 14.1001ZM45.3013 23.3103C43.5065 24.412 42.4021 26.3549 42.375 28.4584C42.3775 30.8382 43.8049 32.9859 46 33.9129C45.5778 35.2823 44.9415 36.5764 44.1145 37.7473C43.0038 39.4062 41.8394 41.0268 39.9911 41.0568C39.1121 41.077 38.5188 40.8247 37.9005 40.5617C37.2556 40.2874 36.5835 40.0015 35.5319 40.0015C34.4166 40.0015 33.7145 40.2965 33.0373 40.5811C32.4521 40.827 31.8856 41.0651 31.0871 41.0982C29.3269 41.1633 27.9817 39.3277 26.8307 37.6844C24.5302 34.3284 22.7388 28.2268 25.1404 24.0751C26.2682 22.0516 28.3768 20.7676 30.6948 20.6928C31.6931 20.6723 32.651 21.0565 33.4909 21.3933C34.1331 21.6509 34.7064 21.8808 35.1758 21.8808C35.5884 21.8808 36.1456 21.66 36.795 21.4027C37.8179 20.9973 39.0696 20.5013 40.3451 20.6349C42.3272 20.6969 44.1639 21.6883 45.3013 23.3103Z" fill="#152329"/>
</svg>
