<svg xmlns="http://www.w3.org/2000/svg" width="443" height="402" viewBox="0 0 443 402" fill="none">
<path opacity="0.5" d="M404.742 296.466C404.906 238.714 324.212 191.668 224.507 191.385C124.802 191.102 43.843 237.69 43.6793 295.442C43.5155 353.194 124.209 400.241 223.914 400.524C323.619 400.806 404.578 354.218 404.742 296.466Z" fill="#2C393E"/>
<path opacity="0.149" d="M137.446 63.8909C135.028 62.4972 133.899 59.4706 134.924 57.146L148.471 26.4273C149.495 24.1028 152.298 23.3435 154.711 24.7424L210.324 56.8496C212.742 58.2433 213.871 61.2699 212.846 63.5945L199.299 94.3131C198.275 96.6377 195.472 97.3969 193.059 95.998L137.446 63.8909ZM210.87 55.6067L155.262 23.4995C152.303 21.7938 148.819 22.8495 147.493 25.8553L133.946 56.5739C132.62 59.5798 133.946 63.4124 136.905 65.1234L192.518 97.2305C195.477 98.9362 198.961 97.8806 200.287 94.8747L213.834 64.1561C215.155 61.1503 213.829 57.3124 210.87 55.6067Z" fill="#131C20"/>
<path opacity="0.6" d="M333.318 57.2383L293.025 148.495C290.519 154.184 292.152 160.908 296.671 163.518L378.369 210.686C382.893 213.297 388.588 210.806 391.099 205.116L431.35 113.834L333.318 57.2383ZM320.333 135.722L330.38 112.94C331.123 111.255 332.808 110.521 334.14 111.291C335.476 112.066 335.96 114.052 335.221 115.732L325.174 138.515C324.43 140.2 322.746 140.933 321.409 140.164C320.078 139.394 319.594 137.407 320.333 135.722ZM330.598 154.766C330.177 155.728 329.215 156.144 328.456 155.708L308.887 144.407C308.127 143.97 307.852 142.837 308.278 141.874C308.699 140.918 309.661 140.496 310.421 140.933L329.99 152.234C330.749 152.67 331.025 153.809 330.598 154.766ZM332.501 146.565C331.165 145.79 330.681 143.804 331.42 142.124L334.691 134.714C335.429 133.034 337.119 132.295 338.456 133.065C339.792 133.835 340.276 135.826 339.532 137.506L336.261 144.917C335.518 146.602 333.838 147.34 332.501 146.565ZM347.988 164.803C347.567 165.765 346.605 166.181 345.846 165.744L335.086 159.53C334.327 159.093 334.046 157.959 334.472 156.997C334.894 156.04 335.856 155.619 336.615 156.056L347.375 162.27C348.134 162.712 348.409 163.846 347.988 164.803ZM360.542 172.052C360.121 173.014 359.159 173.43 358.399 172.994L352.476 169.572C351.712 169.13 351.441 168.001 351.863 167.039C352.284 166.082 353.246 165.661 354.005 166.098L359.928 169.52C360.688 169.962 360.963 171.095 360.542 172.052ZM358.441 157.72C357.697 159.405 356.012 160.138 354.681 159.369C353.345 158.594 352.861 156.607 353.599 154.927L368.525 121.083C369.268 119.398 370.953 118.665 372.29 119.435C373.626 120.205 374.11 122.191 373.366 123.876L358.441 157.72ZM371.9 158.75L369.528 164.127C368.785 165.812 367.1 166.545 365.763 165.775C364.427 165.006 363.943 163.019 364.687 161.334L367.058 155.957C367.802 154.272 369.487 153.539 370.818 154.309C372.16 155.078 372.643 157.065 371.9 158.75ZM384.438 185.849C384.016 186.811 383.054 187.227 382.295 186.79L365.03 176.821C364.265 176.379 363.995 175.251 364.416 174.288C364.837 173.332 365.8 172.91 366.559 173.347L383.824 183.316C384.589 183.758 384.859 184.892 384.438 185.849ZM397.891 124.458C399.228 125.228 399.711 127.22 398.968 128.905L380.615 170.529C379.872 172.214 378.187 172.947 376.856 172.177C375.519 171.402 375.035 169.416 375.774 167.736L394.126 126.112C394.87 124.422 396.555 123.684 397.891 124.458ZM364.25 89.8135C364.671 88.8566 365.633 88.4354 366.392 88.8722L385.961 100.167C386.726 100.609 386.996 101.743 386.575 102.7C386.154 103.657 385.192 104.078 384.432 103.641L364.863 92.3461C364.104 91.9092 363.829 90.7703 364.25 89.8135ZM354.151 129.009C355.487 129.784 355.971 131.77 355.227 133.455L347.349 151.324C346.605 153.009 344.92 153.742 343.584 152.972C342.247 152.202 341.763 150.216 342.507 148.531L350.386 130.662C351.129 128.978 352.819 128.239 354.151 129.009Z" fill="url(#paint0_linear)"/>
<path d="M436.316 72.7617C441.657 75.8455 443.852 83.4693 441.61 90.3494C441.428 90.911 431.345 113.839 431.345 113.839L333.318 57.2437C333.318 57.2437 343.401 34.3412 343.677 33.8576C347.177 27.6743 353.849 25.1522 359.205 28.2412L436.316 72.7617ZM370.818 154.304C372.154 155.079 372.638 157.065 371.899 158.745L369.528 164.122C368.784 165.807 367.099 166.54 365.763 165.771C364.426 165.001 363.943 163.014 364.686 161.329L367.058 155.952C367.801 154.267 369.486 153.534 370.818 154.304ZM338.456 133.065C339.792 133.835 340.276 135.827 339.532 137.506L336.261 144.917C335.517 146.602 333.832 147.335 332.501 146.566C331.165 145.791 330.681 143.804 331.419 142.124L334.691 134.714C335.429 133.029 337.119 132.29 338.456 133.065ZM354.15 129.009C355.487 129.784 355.97 131.77 355.227 133.455L347.348 151.324C346.605 153.009 344.92 153.742 343.583 152.972C342.247 152.203 341.763 150.216 342.507 148.531L350.385 130.663C351.129 128.978 352.819 128.239 354.15 129.009ZM334.144 111.291C335.481 112.066 335.965 114.053 335.226 115.732L325.179 138.515C324.435 140.2 322.75 140.933 321.414 140.164C320.077 139.394 319.594 137.408 320.337 135.723L330.385 112.94C331.123 111.255 332.808 110.522 334.144 111.291ZM372.284 119.44C373.621 120.21 374.104 122.197 373.361 123.881L358.435 157.726C357.692 159.41 356.007 160.144 354.676 159.374C353.339 158.599 352.855 156.613 353.594 154.933L368.519 121.089C369.263 119.404 370.948 118.665 372.284 119.44ZM397.896 124.459C399.232 125.228 399.716 127.22 398.972 128.905L380.62 170.529C379.877 172.214 378.192 172.947 376.86 172.177C375.524 171.403 375.04 169.416 375.779 167.736L394.131 126.112C394.869 124.422 396.554 123.684 397.896 124.459Z" fill="#006ad3"/>
<path d="M385.961 100.175C386.726 100.617 386.996 101.751 386.575 102.707C386.154 103.664 385.192 104.085 384.432 103.649L364.863 92.3534C364.104 91.9166 363.829 90.7777 364.25 89.8208C364.671 88.864 365.633 88.4427 366.392 88.8796L385.961 100.175ZM329.984 152.236L310.415 140.935C309.656 140.499 308.694 140.92 308.273 141.877C307.852 142.839 308.122 143.967 308.881 144.409L328.45 155.71C329.21 156.147 330.172 155.73 330.593 154.768C331.024 153.812 330.749 152.673 329.984 152.236ZM347.374 162.273L336.615 156.058C335.856 155.621 334.894 156.043 334.472 156.999C334.051 157.961 334.327 159.09 335.086 159.532L345.846 165.746C346.605 166.183 347.567 165.767 347.988 164.805C348.409 163.848 348.134 162.715 347.374 162.273ZM359.928 169.522L354.005 166.1C353.241 165.658 352.284 166.084 351.862 167.041C351.441 168.003 351.712 169.132 352.476 169.574L358.399 172.996C359.159 173.433 360.121 173.017 360.542 172.054C360.963 171.098 360.687 169.964 359.928 169.522ZM383.824 183.319L366.559 173.349C365.794 172.907 364.837 173.334 364.416 174.291C363.995 175.253 364.265 176.381 365.03 176.823L382.295 186.792C383.06 187.234 384.016 186.813 384.438 185.851C384.859 184.894 384.588 183.761 383.824 183.319Z" fill="#D2D5D5"/>
<path d="M382.196 212.247C380.771 212.247 379.372 211.878 378.103 211.144L296.405 163.977C291.667 161.242 289.936 154.205 292.546 148.293C297.705 136.607 342.943 34.0922 343.224 33.6033C345.164 30.1763 348.18 27.6957 351.498 26.7908C354.264 26.0368 357.015 26.3852 359.46 27.7945L436.571 72.315C442.068 75.4872 444.444 83.3138 442.099 90.5111L442.073 90.5059L442.099 90.5111L442 90.7971C441.834 91.286 441.652 91.7488 441.449 92.2065L391.562 205.33C390.157 208.518 387.708 210.879 384.843 211.815C383.974 212.101 383.08 212.247 382.196 212.247ZM354.332 27.4357C353.49 27.4357 352.631 27.5501 351.773 27.7841C348.716 28.6162 345.933 30.9199 344.129 34.1078C343.557 35.2727 294.002 147.57 293.498 148.703C291.095 154.148 292.635 160.591 296.925 163.067L378.623 210.234C380.417 211.269 382.513 211.477 384.525 210.822C387.11 209.98 389.325 207.821 390.615 204.904L440.502 91.78C440.69 91.3588 440.856 90.9376 441.007 90.4903L441.116 90.1679C443.311 83.4334 441.137 76.1321 436.056 73.1991L358.945 28.689C357.499 27.8569 355.939 27.4357 354.332 27.4357Z" fill="url(#paint1_linear)"/>
<path opacity="0.6" d="M302.937 293.967L221.889 342.102C215.181 345.976 204.307 345.976 197.598 342.102L108.209 290.494C101.501 286.619 101.501 280.342 108.209 276.468L189.257 228.333C195.955 224.464 206.855 224.47 213.548 228.333L302.937 279.942C309.63 283.806 309.636 290.098 302.937 293.967Z" fill="#152329"/>
<path opacity="0.6" d="M437.571 275.875L395.771 300.364C389.624 303.911 379.655 303.911 373.508 300.364L304.884 261.127C298.737 257.575 298.737 251.824 304.884 248.272L346.684 223.783C352.826 220.236 362.811 220.242 368.947 223.783L437.571 263.02C443.702 266.567 443.708 272.329 437.571 275.875Z" fill="#152329"/>
<path d="M307.446 249.382C307.357 249.102 307.264 248.821 307.16 248.55C306.27 246.231 304.752 244.286 302.698 243.1L284.429 232.554C280.461 230.261 275.671 231.498 272.452 235.227C272.234 235.477 272.026 235.737 271.818 236.012C271.204 236.839 270.668 237.765 270.221 238.774L260.086 261.765C257.288 268.114 259.103 275.618 264.147 278.536L282.416 289.082C287.46 291.994 293.821 289.207 296.624 282.857L306.759 259.872C308.288 256.413 308.439 252.602 307.446 249.382Z" fill="#495358"/>
<path d="M291.413 265.676C290.992 266.628 290.046 267.044 289.281 266.607L283.8 263.44L280.93 269.956C280.508 270.913 279.567 271.324 278.797 270.887C278.038 270.45 277.768 269.332 278.189 268.375L281.06 261.865L275.885 258.874C275.126 258.438 274.85 257.314 275.272 256.363C275.693 255.406 276.639 254.99 277.404 255.426L282.578 258.417L285.62 251.516C286.047 250.559 286.988 250.143 287.752 250.58C288.512 251.022 288.782 252.14 288.366 253.097L285.324 259.992L290.805 263.159C291.564 263.596 291.84 264.72 291.413 265.676Z" fill="#D2D5D5"/>
<path opacity="0.38" d="M307.155 248.554C298.741 250.39 290.488 249.032 283.218 244.711C280.82 243.286 278.527 241.538 276.369 239.474C275.006 238.169 273.701 236.754 272.453 235.23C272.234 235.48 272.026 235.74 271.818 236.016C273.04 237.493 274.315 238.871 275.646 240.145C277.846 242.251 280.186 244.035 282.64 245.491C290.155 249.958 298.715 251.341 307.446 249.391C307.358 249.1 307.264 248.824 307.155 248.554Z" fill="#131C20"/>
<path d="M292.782 54.7271C298.746 58.1645 300.936 67.0988 297.628 74.5977C262.287 154.741 231.152 226.106 195.81 306.244C192.508 313.748 184.967 317.05 179.013 313.602C153.307 298.76 127.602 283.924 101.902 269.082C95.9367 265.644 93.7786 256.741 97.0912 249.242C132.433 169.099 163.568 97.7342 198.909 17.5963C202.212 10.0922 209.752 6.78993 215.712 10.2378C241.407 25.0849 267.076 39.8852 292.782 54.7271Z" fill="#131C20"/>
<path d="M312.284 65.197C312.237 64.5522 311.951 62.7632 311.675 61.7076C311.42 60.7455 311.004 59.487 310.672 58.5561C310.49 58.0517 310.167 57.4068 309.949 56.9128C309.814 56.606 309.028 55.0875 308.201 53.933C307.863 53.465 307.416 52.8409 307.031 52.4093C306.402 51.7072 305.513 50.818 304.821 50.1783C304.39 49.7779 303.745 49.3151 303.261 48.9718C302.876 48.6962 302.33 48.379 301.93 48.1294L224.818 3.60369C224.558 3.46328 224.215 3.26046 223.95 3.13045C223.404 2.87043 222.676 2.53241 222.114 2.31919C221.828 2.20999 221.501 2.10598 221.163 2.00717C220.523 1.79916 219.873 1.62754 219.223 1.50273L218.209 1.31032C217.351 1.18031 216.196 1.0607 215.328 1.0035C214.886 0.972295 214.293 1.0139 213.851 1.0295C213.289 1.0451 212.546 1.14911 211.994 1.23231C211.552 1.29992 210.975 1.43513 210.538 1.52874C210.523 1.53394 209.108 1.84596 207.366 2.60521C206.867 2.82363 206.222 3.14605 205.744 3.40607C205.333 3.62969 204.807 3.96251 204.407 4.20693C204.397 4.21213 203.123 5.00779 201.708 6.27148C200.855 7.03074 200.049 7.868 199.311 8.75727C198.557 9.66213 197.865 10.6294 197.246 11.6279C196.96 12.0959 196.341 13.2192 196.341 13.2192C196.341 13.2192 96.9151 239.295 93.7325 246.508C92.9056 248.386 92.4844 249.935 92.4792 249.951C92.3439 250.471 92.1359 251.163 92.0371 251.693C91.9383 252.218 91.7927 252.915 91.7095 253.446C91.6315 253.966 91.5483 254.668 91.5015 255.193C91.4547 255.723 91.3975 256.431 91.4027 256.961C91.4131 257.991 91.4651 259.369 91.5431 260.399C91.5899 261.043 91.8759 262.832 92.1515 263.888C92.4063 264.85 92.8224 266.109 93.1552 267.039C93.3372 267.544 93.6596 268.189 93.8781 268.683C94.0133 268.99 94.7985 270.508 95.6254 271.663C95.9634 272.131 96.4106 272.755 96.7955 273.186C97.4247 273.888 98.314 274.778 99.0056 275.417C99.4373 275.818 100.082 276.281 100.566 276.624C100.951 276.899 101.497 277.217 101.897 277.466L109.609 281.918L117.321 286.369L125.034 290.821L132.746 295.272L140.458 299.724L148.17 304.175L155.882 308.627L163.594 313.078L171.307 317.53L179.019 321.981C179.279 322.122 179.622 322.325 179.887 322.455C180.433 322.715 181.161 323.053 181.723 323.266C182.565 323.583 183.735 323.874 184.614 324.077L185.628 324.27C186.398 324.415 187.173 324.504 187.953 324.535C188.145 324.55 188.338 324.566 188.515 324.576C188.957 324.608 189.55 324.566 189.992 324.55C190.553 324.535 191.297 324.431 191.848 324.348C192.29 324.28 192.867 324.145 193.304 324.051C193.32 324.046 194.729 323.734 196.476 322.975C196.976 322.756 197.62 322.434 198.099 322.174C198.51 321.95 199.035 321.617 199.435 321.373C199.446 321.368 200.72 320.572 202.134 319.309C202.987 318.549 203.793 317.712 204.532 316.823C205.286 315.918 205.978 314.951 206.596 313.952C206.882 313.484 207.246 312.85 207.501 312.361C207.756 311.877 208.052 311.212 208.292 310.723L218.895 286.681L229.499 262.64L240.102 238.599L250.706 214.557L261.31 190.516L271.913 166.474L282.517 142.433L293.12 118.392L299.522 103.123L310.126 79.082C310.952 77.2047 311.374 75.655 311.379 75.6394C311.514 75.1193 311.722 74.4277 311.821 73.8973C311.92 73.372 312.065 72.6752 312.149 72.1447C312.227 71.6247 312.31 70.9226 312.357 70.3974C312.403 69.867 312.461 69.1597 312.455 68.6293C312.414 67.5996 312.362 66.2215 312.284 65.197ZM179.008 313.609L101.897 269.088C95.9322 265.651 93.7741 256.748 97.0867 249.249L198.905 17.6031C202.207 10.099 209.748 6.79672 215.707 10.2446L292.819 54.7651C298.784 58.2025 300.937 67.1004 297.624 74.5993L195.806 306.25C192.503 313.754 184.963 317.057 179.008 313.609ZM207.922 310.889C207.876 310.894 207.818 310.894 207.761 310.894C207.818 310.894 207.876 310.894 207.922 310.889C208.068 310.879 208.172 310.842 208.229 310.79C208.172 310.842 208.073 310.879 207.922 310.889ZM309.58 79.2433C309.699 79.2485 309.798 79.2381 309.876 79.2225C309.798 79.2381 309.699 79.2485 309.58 79.2433Z" fill="url(#paint2_linear)"/>
<path d="M184.058 315.233C182.253 315.233 180.48 314.765 178.878 313.834L101.767 269.314C95.6926 265.814 93.4824 256.765 96.8471 249.147C114.518 209.078 131.414 170.569 147.759 133.324C164.098 96.0787 181 57.5698 198.671 17.5009C200.475 13.4082 203.616 10.3711 207.288 9.16986C210.205 8.21819 213.242 8.51981 215.842 10.0227C228.75 17.4749 241.652 24.9218 254.554 32.3636C267.336 39.7429 280.124 47.1171 292.917 54.5068C299.017 58.0223 301.238 67.0865 297.868 74.7103C280.207 114.758 263.317 153.252 246.987 190.476C230.637 227.737 213.731 266.266 196.05 306.361C194.245 310.454 191.104 313.491 187.433 314.692C186.309 315.051 185.176 315.233 184.058 315.233ZM210.652 9.14386C209.586 9.14386 208.505 9.31547 207.444 9.66389C203.913 10.8184 200.886 13.7514 199.139 17.7089C181.468 57.7778 164.572 96.2919 148.227 133.532C131.887 170.772 114.986 209.286 97.3151 249.355C94.0545 256.739 96.1658 265.486 102.016 268.861L179.128 313.382C181.593 314.807 184.479 315.093 187.256 314.188C190.787 313.033 193.813 310.1 195.561 306.143C213.242 266.053 230.149 227.524 246.499 190.263C262.833 153.038 279.719 114.55 297.384 74.4971C300.65 67.1073 298.523 58.3395 292.647 54.954C279.854 47.5695 267.066 40.1901 254.283 32.8108C241.381 25.3691 228.484 17.9221 215.572 10.47C214.053 9.59109 212.368 9.14386 210.652 9.14386Z" fill="#5B5B5B"/>
<path d="M294.399 73.6145C294.223 74.1398 294.025 74.6598 293.801 75.1694L275.267 117.194L248.491 177.924L247.684 179.754L193.533 302.541C190.501 309.421 183.6 312.447 178.129 309.285L136.661 285.343L105.204 267.183C99.7336 264.027 97.7574 255.883 100.794 248.992L103.675 242.455L152.85 130.944L201.058 21.6211C201.058 21.6211 201.521 20.6486 201.786 20.1858C205.088 14.3458 211.401 11.9536 216.467 14.8762L225.723 20.2222C226.467 20.6538 226.737 21.7563 226.321 22.6924L226.009 23.3996C224.252 27.3883 225.396 32.0999 228.557 33.9252L268.819 57.1709C271.981 58.991 275.975 57.2437 277.727 53.2654L278.044 52.5478C278.455 51.6117 279.386 51.2061 280.13 51.6377L289.178 56.8589L289.392 56.9837C294.441 59.9011 296.516 67.1036 294.399 73.6145Z" fill="url(#paint3_linear)"/>
<path opacity="0.55" d="M289.391 56.9794L280.129 51.6334C279.386 51.207 278.455 51.6126 278.039 52.5487L277.727 53.2612C275.969 57.2446 271.98 58.992 268.813 57.1666L228.557 33.9261C225.395 32.1008 224.251 27.384 226.004 23.4006L226.316 22.6881C226.727 21.752 226.461 20.6495 225.718 20.2231L216.461 14.8771C211.396 11.9545 205.088 14.3415 201.78 20.1867C201.52 20.6443 201.276 21.1228 201.057 21.6272L195.072 35.2054L182.528 63.6515C180.157 69.0287 181.702 75.394 185.976 77.859L263.233 122.463C267.513 124.933 272.896 122.572 275.272 117.195L293.806 75.1704C294.03 74.6607 294.228 74.1407 294.404 73.6155C296.521 67.1046 294.446 59.8968 289.391 56.9794Z" fill="#131C20"/>
<path opacity="0.2" d="M293.801 75.1692L275.272 117.193L193.533 302.54C190.501 309.42 183.6 312.447 178.129 309.285L105.204 267.178C99.7336 264.021 97.7574 255.877 100.794 248.992L103.675 242.45C103.675 242.45 294.03 74.6543 293.801 75.1692Z" fill="url(#paint4_linear)"/>
<path opacity="0.38" d="M248.491 177.925C248.564 156.437 244.211 140.352 235.459 129.894C234.336 128.547 233.14 127.294 231.876 126.145C215.339 111.048 191.932 117.6 190.824 117.923C190.731 117.533 190.549 117.169 190.294 116.862C189.28 115.655 187.402 115.77 186.097 117.122C184.797 118.474 184.542 120.58 185.577 121.766C186.362 122.671 188.323 123.097 189.763 121.506C190.486 120.71 190.902 119.712 190.913 118.76C192.228 118.38 215.12 112.083 231.309 126.862C232.552 127.996 233.727 129.223 234.83 130.549C243.697 141.148 247.997 157.633 247.68 179.766L248.491 177.925ZM189.28 120.923C188.323 121.917 186.94 122.005 186.201 121.121C185.457 120.227 185.624 118.692 186.586 117.704C187.538 116.711 188.921 116.628 189.67 117.512C190.408 118.396 190.231 119.925 189.28 120.923Z" fill="#131C20"/>
<path d="M279.465 55.0732L270.203 49.7272C269.459 49.3007 268.528 49.7064 268.112 50.6424L267.8 51.3549C266.042 55.3384 262.054 57.0857 258.892 55.2604L218.636 32.0199C215.474 30.1945 214.33 25.4778 216.082 21.4943L216.394 20.7818C216.805 19.8458 216.54 18.7433 215.796 18.3169L206.54 12.9709C201.475 10.0483 195.166 12.4352 191.859 18.2805C191.599 18.7381 191.355 19.2165 191.136 19.721L185.14 33.294L172.597 61.7401C170.225 67.1173 171.77 73.4825 176.045 75.9475L253.302 120.551C257.581 123.021 262.964 120.66 265.34 115.283L283.875 73.2589C284.098 72.7493 284.296 72.2292 284.473 71.704C286.589 65.1931 284.514 57.9906 279.465 55.0732Z" fill="#F4F5F5"/>
<path opacity="0.15" d="M214.429 48.5701C213.571 48.0761 213.264 46.8072 213.737 45.7307C214.211 44.6542 215.292 44.181 216.145 44.675L250.192 64.3325C251.05 64.8265 251.357 66.1006 250.884 67.1771C250.411 68.2535 249.334 68.7216 248.476 68.2275L214.429 48.5701ZM193.55 39.875C192.535 39.2874 192.166 37.7793 192.733 36.5L194.772 31.8769C195.333 30.6028 196.618 30.0411 197.632 30.6288L201.309 32.7505C202.323 33.3382 202.692 34.8463 202.13 36.1256L200.092 40.7487C199.525 42.028 198.245 42.5844 197.231 42.002L193.55 39.875ZM266.017 81.7173C264.998 81.1297 264.634 79.6216 265.2 78.3423L267.239 73.7191C267.801 72.445 269.08 71.8834 270.099 72.4711L273.776 74.5928C274.79 75.1805 275.154 76.6886 274.592 77.9627L272.554 82.5858C271.987 83.8651 270.713 84.4267 269.699 83.8391L266.017 81.7173ZM179.571 70.4065C178.557 69.8189 178.188 68.3107 178.754 67.0315L180.793 62.4083C181.355 61.1342 182.639 60.5726 183.653 61.1602L187.33 63.282C188.344 63.8696 188.713 65.3777 188.152 66.657L186.113 71.2802C185.546 72.5595 184.267 73.1159 183.253 72.5335L179.571 70.4065ZM252.038 112.244C251.019 111.656 250.655 110.148 251.222 108.869L253.26 104.245C253.822 102.971 255.101 102.41 256.121 102.997L259.797 105.119C260.811 105.707 261.175 107.215 260.614 108.489L258.575 113.112C258.008 114.391 256.734 114.953 255.72 114.365L252.038 112.244ZM279.465 55.0654L270.203 49.7194C269.46 49.2929 268.529 49.6986 268.113 50.6346L267.801 51.3471C266.043 55.3306 262.054 57.0779 258.887 55.2526L218.631 32.0121C215.469 30.1867 214.325 25.47 216.078 21.4865L216.39 20.774C216.8 19.838 216.535 18.7355 215.792 18.3091L206.535 12.9631C201.47 10.0404 195.162 12.4274 191.854 18.2727C191.594 18.7303 191.35 19.2087 191.131 19.7132L185.146 33.2914C182.774 38.6686 184.319 45.0338 188.594 47.4988L265.85 92.1025C270.13 94.5727 275.518 92.2117 277.889 86.8345L283.875 73.2563C284.099 72.7467 284.296 72.2266 284.473 71.7014C286.59 65.1905 284.515 57.9828 279.465 55.0654Z" fill="#131C20"/>
<path opacity="0.3" d="M186.864 107.874L179.433 103.584C177.384 102.398 174.794 103.532 173.655 106.116L169.531 115.466C168.392 118.051 169.131 121.104 171.185 122.289L178.616 126.58C180.665 127.765 183.255 126.632 184.394 124.047L188.518 114.697C189.657 112.112 188.918 109.06 186.864 107.874Z" fill="#F4F5F5"/>
<path d="M216.245 124.839L196.265 113.305C195.579 112.91 194.715 113.289 194.336 114.147C193.956 115.005 194.206 116.025 194.887 116.42L214.867 127.954C215.548 128.35 216.411 127.97 216.791 127.112C217.176 126.254 216.926 125.235 216.245 124.839Z" fill="#006ad3"/>
<path d="M227.421 140.396L193.374 120.739C192.516 120.245 191.44 120.718 190.966 121.789C190.493 122.866 190.8 124.14 191.658 124.634L225.705 144.291C226.563 144.785 227.639 144.312 228.113 143.236C228.586 142.164 228.279 140.89 227.421 140.396Z" fill="white"/>
<path d="M211.7 140.792L190.046 128.29C189.188 127.796 188.111 128.264 187.638 129.341C187.165 130.417 187.472 131.692 188.33 132.186L209.984 144.687C210.837 145.181 211.914 144.708 212.392 143.632C212.86 142.555 212.553 141.286 211.7 140.792Z" fill="white"/>
<path opacity="0.3" d="M173.546 138.085L166.115 133.795C164.066 132.609 161.476 133.743 160.338 136.322L156.214 145.677C155.075 148.257 155.818 151.315 157.867 152.495L165.299 156.785C167.348 157.971 169.937 156.837 171.076 154.258L175.2 144.903C176.339 142.323 175.595 139.271 173.546 138.085Z" fill="#F4F5F5"/>
<path d="M202.925 155.05L182.945 143.516C182.258 143.121 181.395 143.5 181.016 144.358C180.636 145.222 180.886 146.236 181.567 146.631L201.547 158.165C202.228 158.561 203.091 158.186 203.471 157.323C203.856 156.465 203.611 155.446 202.925 155.05Z" fill="#006ad3"/>
<path d="M214.105 170.603L180.058 150.946C179.2 150.452 178.123 150.925 177.65 152.001C177.177 153.073 177.484 154.347 178.342 154.841L212.388 174.498C213.247 174.992 214.323 174.519 214.796 173.448C215.269 172.371 214.957 171.097 214.105 170.603Z" fill="white"/>
<path d="M198.378 171.002L176.724 158.501C175.866 158.007 174.789 158.48 174.316 159.551C173.843 160.628 174.15 161.902 175.008 162.396L196.662 174.897C197.515 175.391 198.591 174.918 199.07 173.842C199.543 172.765 199.231 171.491 198.378 171.002Z" fill="white"/>
<path opacity="0.3" d="M153.547 183.436L146.115 179.146C144.066 177.96 141.476 179.094 140.338 181.674L136.214 191.029C135.075 193.608 135.818 196.666 137.867 197.847L145.299 202.137C147.348 203.323 149.937 202.189 151.076 199.61L155.2 190.254C156.339 187.675 155.601 184.617 153.547 183.436Z" fill="#F4F5F5"/>
<path d="M182.928 200.394L162.948 188.86C162.261 188.464 161.398 188.844 161.019 189.702C160.639 190.565 160.883 191.585 161.57 191.98L181.55 203.514C182.231 203.91 183.094 203.53 183.474 202.667C183.859 201.809 183.609 200.789 182.928 200.394Z" fill="#006ad3"/>
<path d="M194.11 215.951L160.064 196.293C159.205 195.799 158.129 196.273 157.656 197.349C157.183 198.426 157.489 199.695 158.347 200.189L192.394 219.846C193.252 220.34 194.329 219.872 194.802 218.796C195.27 217.719 194.963 216.445 194.11 215.951Z" fill="white"/>
<path d="M178.384 216.35L156.73 203.848C155.872 203.354 154.795 203.827 154.322 204.904C153.849 205.975 154.155 207.249 155.013 207.743L176.668 220.245C177.521 220.739 178.597 220.266 179.07 219.189C179.544 218.113 179.237 216.839 178.384 216.35Z" fill="white"/>
<path opacity="0.3" d="M140.228 213.64L132.797 209.349C130.748 208.164 128.158 209.297 127.019 211.877L122.895 221.232C121.756 223.812 122.5 226.869 124.549 228.05L131.98 232.34C134.029 233.526 136.619 232.392 137.758 229.813L141.882 220.457C143.021 217.878 142.277 214.825 140.228 213.64Z" fill="#F4F5F5"/>
<path d="M169.605 230.605L149.626 219.071C148.939 218.675 148.076 219.055 147.696 219.913C147.317 220.776 147.561 221.796 148.248 222.191L168.227 233.725C168.909 234.12 169.772 233.741 170.152 232.878C170.536 232.014 170.292 230.995 169.605 230.605Z" fill="#006ad3"/>
<path d="M180.786 246.154L146.739 226.497C145.881 226.003 144.805 226.476 144.332 227.552C143.858 228.629 144.165 229.898 145.023 230.392L179.07 250.049C179.928 250.543 181.005 250.075 181.478 248.999C181.951 247.922 181.644 246.648 180.786 246.154Z" fill="white"/>
<path d="M165.06 246.553L143.405 234.051C142.547 233.557 141.471 234.03 140.998 235.107C140.524 236.178 140.831 237.452 141.689 237.946L163.344 250.448C164.196 250.942 165.273 250.469 165.746 249.392C166.225 248.321 165.913 247.047 165.06 246.553Z" fill="white"/>
<path opacity="0.3" d="M126.91 243.843L119.478 239.552C117.429 238.367 114.84 239.5 113.701 242.08L109.577 251.435C108.438 254.015 109.182 257.072 111.231 258.253L118.662 262.543C120.711 263.729 123.301 262.595 124.44 260.016L128.563 250.66C129.697 248.081 128.959 245.028 126.91 243.843Z" fill="#F4F5F5"/>
<path d="M156.286 260.808L136.306 249.274C135.62 248.878 134.756 249.258 134.377 250.116C133.997 250.974 134.247 251.993 134.928 252.389L154.908 263.923C155.589 264.318 156.452 263.939 156.832 263.081C157.217 262.217 156.967 261.203 156.286 260.808Z" fill="#006ad3"/>
<path d="M167.468 276.361L133.421 256.704C132.563 256.21 131.486 256.683 131.013 257.759C130.54 258.836 130.847 260.11 131.705 260.604L165.752 280.261C166.61 280.755 167.686 280.282 168.159 279.206C168.633 278.129 168.321 276.855 167.468 276.361Z" fill="white"/>
<path d="M151.741 276.756L130.087 264.254C129.229 263.76 128.152 264.234 127.679 265.31C127.206 266.387 127.513 267.655 128.371 268.149L150.025 280.651C150.878 281.145 151.955 280.672 152.428 279.595C152.901 278.524 152.594 277.25 151.741 276.756Z" fill="white"/>
<path d="M184.675 182.408L150.623 162.75C149.77 162.256 148.694 162.73 148.22 163.806C147.747 164.883 148.054 166.157 148.907 166.651L182.959 186.308C183.817 186.802 184.888 186.329 185.367 185.253C185.835 184.176 185.528 182.902 184.675 182.408Z" fill="#D2D5D5"/>
<path d="M218.03 106.767L183.978 87.1099C183.125 86.6158 182.048 87.0891 181.57 88.1655C181.097 89.242 181.404 90.5109 182.256 91.0049L216.309 110.662C217.167 111.156 218.238 110.683 218.711 109.607C219.19 108.53 218.888 107.261 218.03 106.767Z" fill="#D2D5D5"/>
<path opacity="0.93" d="M269.489 68.8627C269.323 69.3879 269.12 69.9079 268.896 70.4176L262.911 84.001C260.539 89.3782 255.147 91.7391 250.872 89.269L211.999 66.8241L173.615 44.6653C169.34 42.1951 167.796 35.8298 170.167 30.4526L176.153 16.8744C176.376 16.3752 176.616 15.8916 176.876 15.4339C180.183 9.59389 186.496 7.20172 191.562 10.1295L200.818 15.4755C201.562 15.902 201.827 17.0044 201.416 17.9405L201.099 18.653C199.341 22.6365 200.485 27.348 203.647 29.1785L234.121 46.7714L243.903 52.4242C247.07 54.2548 251.059 52.5022 252.817 48.5188L253.134 47.8063C253.55 46.865 254.486 46.4594 255.225 46.891L264.486 52.237C269.536 55.1492 271.611 62.3518 269.489 68.8627Z" fill="url(#paint5_linear)"/>
<path opacity="0.3" d="M187.148 33.2817L185.109 37.9048C184.542 39.1841 183.263 39.7405 182.244 39.1581L178.567 37.0311C177.553 36.4487 177.184 34.9354 177.751 33.6561L179.789 29.0329C180.356 27.7537 181.635 27.1972 182.649 27.7849L186.326 29.9066C187.335 30.4995 187.704 32.0076 187.148 33.2817ZM258.793 71.7489L255.117 69.6271C254.097 69.0395 252.823 69.6011 252.256 70.8752L250.218 75.4983C249.651 76.7776 250.015 78.2909 251.034 78.8734L254.711 81.0003C255.73 81.5828 257.004 81.0211 257.571 79.7471L259.61 75.1187C260.177 73.8446 259.807 72.3365 258.793 71.7489Z" fill="#F4F5F5"/>
<path opacity="0.73" d="M235.906 64.3372C235.433 65.4189 234.351 65.8817 233.498 65.3929L199.446 45.7354C198.593 45.2414 198.281 43.9725 198.76 42.896C199.233 41.8195 200.31 41.3463 201.168 41.8403L235.22 61.503C236.073 61.9866 236.379 63.2607 235.906 64.3372Z" fill="#F4F5F5"/>
<g opacity="0.7">
<path opacity="0.7" d="M174.937 315.191C174.807 315.191 174.672 315.16 174.547 315.087L168.577 311.64C168.203 311.426 168.078 310.948 168.291 310.573C168.51 310.199 168.983 310.074 169.357 310.287L175.327 313.735C175.702 313.949 175.827 314.427 175.613 314.801C175.473 315.056 175.208 315.191 174.937 315.191Z" fill="white"/>
<path opacity="0.7" d="M184.51 319.171C182.622 319.171 180.766 318.682 179.076 317.704L177.152 316.597C176.777 316.383 176.652 315.905 176.866 315.53C177.079 315.156 177.557 315.031 177.932 315.244L179.856 316.352C182.68 317.985 186.065 318.027 189.144 316.456C189.528 316.264 189.997 316.415 190.194 316.799C190.392 317.184 190.236 317.652 189.851 317.85C188.119 318.729 186.299 319.171 184.51 319.171Z" fill="white"/>
<path opacity="0.7" d="M300.745 76.4427C300.641 76.4427 300.532 76.4219 300.433 76.3751C300.037 76.2035 299.861 75.7407 300.032 75.3454L301.083 72.9585C302.185 70.4623 302.716 67.7061 302.622 64.9863C302.606 64.5546 302.945 64.1958 303.376 64.1802C303.797 64.1646 304.167 64.5026 304.182 64.9343C304.286 67.8881 303.709 70.8835 302.513 73.5929L301.462 75.9799C301.327 76.2659 301.041 76.4427 300.745 76.4427Z" fill="white"/>
<path opacity="0.7" d="M302.649 61.2004C302.316 61.2004 302.004 60.982 301.905 60.6491C300.912 57.4093 298.962 54.8143 296.419 53.3478L293.413 51.6161C293.039 51.4029 292.914 50.9244 293.127 50.55C293.34 50.1756 293.819 50.0508 294.193 50.264L297.199 51.9957C300.085 53.6598 302.285 56.5668 303.398 60.1915C303.523 60.6023 303.294 61.0392 302.883 61.164C302.8 61.19 302.722 61.2004 302.649 61.2004Z" fill="white"/>
</g>
<path d="M185.02 323.923C184.027 323.923 183.028 323.829 182.035 323.642L182.134 323.133C190.449 324.724 199.16 319.248 203.32 309.809L305.591 78.4702C310.75 66.7745 307.401 52.8999 298.123 47.5435L221.012 3.01786C219.821 2.31581 215.718 1.20812 212.437 1.67616L212.364 1.16132C215.526 0.714089 219.821 1.71256 221.277 2.57062L298.389 47.0911C307.89 52.5775 311.332 66.7433 306.069 78.6782L203.799 310.017C200.034 318.551 192.602 323.923 185.02 323.923Z" fill="#B0B3B5"/>
<path d="M296.215 104.863C296.854 103.407 296.464 102.154 295.346 102.071C294.93 102.04 294.472 102.175 294.03 102.435C293.282 102.866 292.569 103.647 292.169 104.567L281.269 129.425C280.629 130.881 281.019 132.134 282.137 132.217C282.553 132.249 283.011 132.113 283.453 131.859C284.202 131.427 284.914 130.642 285.315 129.726L296.215 104.863Z" fill="#131C20"/>
<path d="M282.257 132.472C282.21 132.472 282.164 132.472 282.117 132.467C281.618 132.43 281.207 132.186 280.962 131.775C280.593 131.161 280.619 130.262 281.035 129.31L291.935 104.452C292.346 103.521 293.084 102.679 293.906 102.2C294.411 101.909 294.92 101.774 295.373 101.805C295.872 101.842 296.283 102.091 296.532 102.502C296.902 103.121 296.876 104.015 296.46 104.967L285.559 129.825C285.154 130.761 284.415 131.603 283.589 132.077C283.126 132.337 282.673 132.472 282.257 132.472ZM295.232 102.325C294.905 102.325 294.541 102.44 294.161 102.658C293.428 103.079 292.772 103.833 292.403 104.665L281.503 129.523C281.16 130.303 281.124 131.047 281.399 131.51C281.56 131.775 281.81 131.926 282.148 131.952C282.496 131.978 282.902 131.869 283.313 131.624C284.046 131.203 284.701 130.449 285.071 129.612L295.971 104.754C296.314 103.974 296.35 103.23 296.075 102.767C295.913 102.497 295.664 102.351 295.326 102.325C295.295 102.325 295.263 102.325 295.232 102.325Z" fill="#B0B3B5"/>
<path opacity="0.5" d="M269.49 68.8641C269.324 69.3893 269.121 69.9094 268.897 70.419L262.912 84.0024C260.54 89.3796 255.148 91.7406 250.873 89.2704L212 66.8256L234.133 46.7677L243.915 52.4205C247.082 54.251 251.07 52.4985 252.828 48.515L253.145 47.8026C253.561 46.8613 254.497 46.4557 255.236 46.8873L264.498 52.2333C269.537 55.1507 271.612 62.3532 269.49 68.8641Z" fill="url(#paint6_linear)"/>
<path d="M332.206 178.894C330.947 177.948 329.148 178.488 328.186 180.101C327.229 181.713 327.473 183.793 328.732 184.739C329.247 185.129 329.85 185.265 330.453 185.181C333.709 214.355 318.123 239.255 301.43 244.268C294.602 246.317 287.888 245.001 281.996 240.571C280.098 239.146 278.288 237.398 276.582 235.334C268.194 225.183 262.567 208.266 259.842 185.057C256.041 152.637 246.909 130.837 232.649 120.119C231.251 119.064 229.8 118.117 228.302 117.285C208.764 106.354 187.463 118.055 186.46 118.622C186.278 118.263 186.023 117.951 185.7 117.712C184.442 116.765 182.643 117.306 181.681 118.918C180.724 120.53 180.952 122.636 182.227 123.557C183.199 124.254 185.206 124.228 186.246 122.35C186.772 121.409 186.949 120.348 186.746 119.417C187.937 118.746 208.795 107.404 227.922 118.107C229.394 118.934 230.814 119.859 232.192 120.894C246.285 131.487 255.323 153.116 259.093 185.285C261.839 208.671 267.528 225.734 276.016 236.005C277.752 238.111 279.604 239.895 281.544 241.351C287.597 245.901 294.503 247.253 301.544 245.142C318.601 240.019 334.525 214.657 331.218 184.968C331.816 184.698 332.362 184.209 332.762 183.538C333.703 181.921 333.464 179.841 332.206 178.894ZM185.633 121.893C184.926 123.078 183.599 123.474 182.679 122.782C181.753 122.085 181.571 120.551 182.279 119.37C182.981 118.185 184.307 117.79 185.232 118.481C186.158 119.178 186.335 120.707 185.633 121.893ZM332.143 183.08C331.436 184.266 330.11 184.661 329.189 183.97C328.264 183.273 328.082 181.739 328.789 180.558C329.491 179.373 330.817 178.977 331.743 179.669C332.668 180.361 332.845 181.895 332.143 183.08Z" fill="url(#paint7_linear)"/>
<path opacity="0.5" d="M185.633 121.892C184.926 123.078 183.6 123.473 182.68 122.782C181.754 122.085 181.572 120.551 182.279 119.37C182.981 118.185 184.307 117.789 185.233 118.481C186.159 119.178 186.335 120.707 185.633 121.892Z" fill="white"/>
<path opacity="0.5" d="M332.143 183.08C331.436 184.266 330.11 184.661 329.189 183.969C328.264 183.272 328.082 181.738 328.789 180.558C329.491 179.372 330.817 178.977 331.743 179.668C332.668 180.36 332.845 181.894 332.143 183.08Z" fill="white"/>
<path opacity="0.6" d="M39.0291 223.378C38.2699 222.941 37.9891 221.807 38.4155 220.845C38.8367 219.889 39.7988 219.467 40.5581 219.904L55.0203 228.256C55.7848 228.698 56.0552 229.832 55.634 230.789C55.2127 231.751 54.2507 232.167 53.4914 231.73L39.0291 223.378ZM89.2648 252.381C88.5056 251.944 88.23 250.81 88.6512 249.848C89.0724 248.891 90.0345 248.47 90.7938 248.907L105.251 257.253C106.015 257.695 106.286 258.829 105.864 259.786C105.443 260.748 104.481 261.164 103.722 260.727L89.2648 252.381ZM42.087 216.446C41.3277 216.009 41.0521 214.87 41.4733 213.913C41.8946 212.951 42.8566 212.535 43.6159 212.972L63.1849 224.267C63.9494 224.709 64.2198 225.838 63.7986 226.8C63.3773 227.757 62.4153 228.178 61.656 227.741L42.087 216.446ZM92.3175 245.448C91.5582 245.012 91.2826 243.873 91.7038 242.916C92.1251 241.954 93.0871 241.538 93.8464 241.975L108.303 250.321C109.068 250.763 109.338 251.892 108.917 252.854C108.496 253.811 107.534 254.232 106.775 253.795L92.3175 245.448ZM19.8761 219.561C17.7076 218.308 16.9223 215.078 18.1288 212.348L22.4919 202.457C23.6932 199.727 26.4286 198.531 28.6024 199.784L36.4602 204.324C38.6287 205.577 39.414 208.807 38.2075 211.537L33.8444 221.428C32.6431 224.158 29.9077 225.354 27.7339 224.101L19.8761 219.561ZM70.1066 248.563C67.9381 247.31 67.1528 244.081 68.3593 241.351L72.7224 231.459C73.9237 228.729 76.6591 227.533 78.8329 228.786L86.6907 233.326C88.8592 234.58 89.6445 237.809 88.438 240.539L84.0749 250.43C82.8736 253.161 80.1382 254.357 77.9644 253.103L70.1066 248.563ZM52.831 192.087C52.0717 191.65 51.7909 190.517 52.2173 189.555C52.6385 188.598 53.6006 188.177 54.3599 188.613L68.8169 196.96C69.5814 197.402 69.8518 198.536 69.4306 199.493C69.0093 200.455 68.0473 200.871 67.288 200.434L52.831 192.087ZM103.061 221.09C102.302 220.653 102.027 219.519 102.448 218.557C102.869 217.6 103.831 217.179 104.59 217.616L119.047 225.963C119.812 226.405 120.082 227.538 119.661 228.495C119.24 229.457 118.278 229.873 117.519 229.436L103.061 221.09ZM55.8888 185.155C55.1295 184.718 54.8487 183.585 55.2751 182.623C55.6964 181.666 56.6584 181.25 57.4177 181.687L76.9867 192.982C77.7512 193.424 78.0216 194.552 77.6004 195.509C77.1792 196.471 76.2171 196.887 75.4578 196.45L55.8888 185.155ZM106.119 214.153C105.36 213.716 105.084 212.582 105.506 211.62C105.927 210.663 106.889 210.247 107.648 210.684L122.105 219.03C122.87 219.473 123.14 220.601 122.719 221.558C122.298 222.52 121.336 222.936 120.576 222.499L106.119 214.153ZM33.6728 188.27C31.5042 187.017 30.7189 183.787 31.9254 181.057L36.2885 171.166C37.495 168.431 40.2252 167.24 42.399 168.493L50.2568 173.033C52.4253 174.286 53.2106 177.511 52.0041 180.246L47.641 190.137C46.4397 192.867 43.7043 194.063 41.5305 192.81L33.6728 188.27ZM83.9084 217.273C81.7399 216.019 80.9546 212.79 82.1611 210.06L86.5242 200.169C87.7307 197.433 90.4609 196.242 92.6347 197.496L100.492 202.036C102.661 203.289 103.446 206.513 102.24 209.249L97.8767 219.14C96.6754 221.87 93.94 223.066 91.7662 221.813L83.9084 217.273ZM88.854 177.188C91.7766 178.873 94.9593 179.955 98.2823 180.36C104.044 181.068 109.983 179.731 115.381 176.502C119.869 173.824 123.821 169.934 126.936 165.181C127.93 163.662 129.609 163.048 130.93 163.813C131.014 163.86 131.092 163.912 131.17 163.969C132.522 164.962 132.87 167.167 131.835 168.795C128.065 174.739 123.203 179.58 117.664 182.893C111.216 186.747 104.122 188.348 97.237 187.506C93.2691 187.017 89.4625 185.727 85.973 183.715C83.4092 182.233 81.017 180.366 78.8485 178.129C74.4541 173.6 71.1519 167.755 69.2122 161.114C68.6817 159.288 69.6542 157.25 71.2403 156.615C72.0152 156.303 72.7952 156.392 73.4505 156.772C74.1369 157.167 74.6934 157.884 74.9794 158.81C76.6175 164.146 79.3217 168.857 82.884 172.518C84.7041 174.385 86.7063 175.951 88.854 177.188ZM68.7701 153.168C68.0109 152.726 67.4596 151.857 67.3816 150.723C66.6796 140.744 68.8637 130.463 73.6221 121.648C78.3752 112.833 85.3698 106.089 93.3887 102.506C94.1116 102.183 94.8344 102.246 95.4377 102.594C96.145 103 96.6806 103.8 96.8626 104.825C97.1954 106.728 96.1553 108.699 94.5952 109.427C88.0792 112.475 82.4003 118.029 78.5156 125.236C74.6258 132.449 72.79 140.827 73.2529 148.997C73.3673 150.963 72.2908 152.902 70.6787 153.376C69.9922 153.578 69.3266 153.485 68.7701 153.168ZM134.071 158.326C132.922 157.666 132.459 155.986 132.932 154.437C135.059 147.494 135.548 140.089 134.316 133.094C133.088 126.105 130.192 119.87 126.006 115.101C125.033 113.998 124.913 112.105 125.824 110.759C126.588 109.625 127.836 109.245 128.798 109.796C128.98 109.9 129.152 110.041 129.308 110.212C134.316 115.777 137.774 123.135 139.235 131.404C140.691 139.667 140.067 148.435 137.478 156.621C136.973 158.222 135.465 159.002 134.217 158.399C134.165 158.378 134.118 158.352 134.071 158.326ZM101.371 106.635C100.518 106.146 99.8996 105.199 99.78 103.977C99.5928 102.032 100.758 100.134 102.396 99.9157C108.366 99.1201 114.299 100.108 119.661 102.786C119.703 102.807 119.744 102.828 119.781 102.854C121.154 103.644 121.559 105.74 120.748 107.467C119.911 109.245 118.096 109.947 116.614 109.245C112.386 107.227 107.752 106.458 103.077 106.988C102.463 107.061 101.876 106.931 101.371 106.635ZM174.915 107.201L86.6699 56.2533C82.1507 53.6427 76.4511 56.1441 73.9445 61.8281L5.32026 217.434C2.10643 224.72 4.19178 233.326 9.97981 236.67L93.6384 284.971C99.4264 288.315 106.723 285.117 109.931 277.836L178.55 122.225C181.067 116.541 179.434 109.807 174.915 107.201Z" fill="url(#paint8_linear)"/>
<path opacity="0.2" d="M137.478 156.621C136.973 158.223 135.465 159.003 134.217 158.4C134.17 158.374 134.118 158.353 134.077 158.322C132.928 157.661 132.465 155.982 132.938 154.432C135.065 147.489 135.554 140.084 134.321 133.09C133.094 126.1 130.197 119.865 126.011 115.096C125.039 113.994 124.919 112.101 125.829 110.754C126.593 109.62 127.842 109.241 128.804 109.792C128.986 109.896 129.157 110.036 129.313 110.208C134.321 115.772 137.779 123.131 139.241 131.399C140.686 139.673 140.068 148.436 137.478 156.621ZM101.372 106.635C101.881 106.926 102.469 107.056 103.077 106.989C107.752 106.453 112.381 107.223 116.614 109.246C118.096 109.948 119.911 109.246 120.748 107.467C121.559 105.746 121.154 103.65 119.781 102.854C119.739 102.834 119.703 102.808 119.661 102.787C114.3 100.103 108.366 99.1206 102.396 99.9163C100.758 100.135 99.5931 102.033 99.7803 103.978C99.8947 105.2 100.519 106.146 101.372 106.635ZM70.6737 153.376C72.2859 152.903 73.3623 150.958 73.2479 148.997C72.7851 140.828 74.6208 132.45 78.5107 125.237C82.3954 118.024 88.0794 112.47 94.5903 109.428C96.1504 108.695 97.1905 106.729 96.8577 104.825C96.6808 103.801 96.14 103 95.4328 102.594C94.8295 102.246 94.1067 102.184 93.3838 102.506C85.37 106.084 78.3703 112.829 73.6171 121.649C68.8588 130.463 66.6746 140.744 67.3767 150.724C67.4547 151.858 68.0059 152.726 68.7652 153.168C69.3268 153.485 69.9925 153.579 70.6737 153.376ZM131.17 163.969C131.092 163.912 131.009 163.86 130.931 163.813C129.61 163.054 127.93 163.668 126.937 165.181C123.822 169.934 119.869 173.819 115.381 176.502C109.983 179.732 104.045 181.068 98.2826 180.361C94.9595 179.955 91.7769 178.874 88.8543 177.189C86.7117 175.951 84.7044 174.386 82.8894 172.514C79.3272 168.847 76.623 164.141 74.9849 158.805C74.6988 157.885 74.1424 157.167 73.4559 156.767C72.7955 156.387 72.0206 156.299 71.2458 156.611C69.6597 157.245 68.6872 159.284 69.2176 161.109C71.1574 167.75 74.4596 173.601 78.8539 178.125C81.0225 180.361 83.4147 182.228 85.9785 183.71C89.4679 185.723 93.2694 187.012 97.2425 187.501C104.128 188.344 111.221 186.747 117.67 182.888C123.208 179.581 128.07 174.734 131.841 168.79C132.87 167.168 132.522 164.963 131.17 163.969Z" fill="url(#paint9_linear)"/>
<path opacity="0.4" d="M76.9805 192.982C77.745 193.424 78.0154 194.553 77.5942 195.51C77.173 196.472 76.2109 196.888 75.4516 196.451L55.8826 185.156C55.1233 184.719 54.8425 183.585 55.2689 182.623C55.6902 181.666 56.6522 181.25 57.4115 181.687L76.9805 192.982ZM68.8159 196.966L54.3589 188.619C53.5996 188.182 52.6376 188.603 52.2163 189.56C51.7951 190.522 52.0707 191.651 52.83 192.093L67.287 200.44C68.0515 200.882 69.0084 200.46 69.4296 199.498C69.8508 198.536 69.5804 197.403 68.8159 196.966ZM119.052 225.968L104.595 217.622C103.835 217.185 102.873 217.606 102.452 218.563C102.031 219.525 102.306 220.653 103.066 221.096L117.523 229.442C118.287 229.884 119.244 229.463 119.665 228.501C120.087 227.539 119.811 226.405 119.052 225.968ZM108.308 250.327L93.8506 241.98C93.0913 241.543 92.1293 241.959 91.708 242.922C91.2868 243.878 91.5624 245.012 92.3217 245.454L106.779 253.801C107.543 254.243 108.5 253.816 108.921 252.859C109.343 251.897 109.072 250.769 108.308 250.327ZM50.2506 173.034L42.3928 168.494C40.2242 167.24 37.4888 168.436 36.2823 171.167L31.9192 181.058C30.7179 183.788 31.498 187.017 33.6665 188.271L41.5243 192.811C43.6929 194.064 46.4283 192.863 47.6348 190.138L51.9979 180.246C53.2044 177.511 52.4243 174.287 50.2506 173.034ZM63.1839 224.273L43.6149 212.978C42.8556 212.541 41.8936 212.957 41.4723 213.919C41.0511 214.876 41.3267 216.01 42.086 216.452L61.655 227.747C62.4195 228.189 63.3763 227.762 63.7976 226.806C64.2188 225.843 63.9484 224.715 63.1839 224.273ZM55.0193 228.256L40.5623 219.91C39.803 219.473 38.8409 219.894 38.4197 220.851C37.9985 221.813 38.2741 222.942 39.0333 223.384L53.4904 231.73C54.2549 232.172 55.2117 231.751 55.633 230.789C56.0542 229.832 55.7786 228.693 55.0193 228.256ZM36.454 204.324L28.5962 199.784C26.4276 198.531 23.6922 199.732 22.4857 202.457L18.1226 212.348C16.9213 215.079 17.7014 218.308 19.8699 219.561L27.7277 224.101C29.8963 225.355 32.6317 224.153 33.8382 221.428L38.2013 211.537C39.4078 208.807 38.6225 205.578 36.454 204.324ZM122.104 219.036L107.647 210.69C106.888 210.253 105.926 210.669 105.505 211.626C105.083 212.588 105.359 213.716 106.118 214.158L120.575 222.505C121.34 222.947 122.297 222.526 122.718 221.564C123.144 220.607 122.869 219.478 122.104 219.036ZM100.486 202.036L92.6285 197.496C90.4599 196.243 87.7245 197.439 86.518 200.169L82.1549 210.06C80.9536 212.79 81.7337 216.02 83.9023 217.273L91.76 221.813C93.9286 223.066 96.664 221.865 97.8705 219.14L102.234 209.249C103.44 206.514 102.655 203.289 100.486 202.036ZM105.25 257.259L90.7928 248.912C90.0335 248.476 89.0714 248.897 88.6502 249.854C88.229 250.816 88.5046 251.944 89.2638 252.386L103.721 260.733C104.485 261.175 105.442 260.754 105.863 259.792C106.285 258.835 106.014 257.696 105.25 257.259ZM86.6897 233.327L78.8319 228.787C76.6633 227.534 73.9279 228.735 72.7214 231.46L68.3583 241.351C67.157 244.081 67.9371 247.311 70.1056 248.564L77.9634 253.104C80.132 254.357 82.8674 253.156 84.0739 250.431L88.437 240.54C89.6383 237.81 88.8582 234.58 86.6897 233.327Z" fill="url(#paint10_linear)"/>
<path d="M98.5477 286.816C96.7484 286.816 94.9855 286.348 93.3837 285.423L9.71998 237.121C3.71873 233.658 1.53457 224.734 4.84202 217.225L73.4611 61.6136C74.8652 58.4258 77.3146 56.0596 80.18 55.1236C82.4785 54.3747 84.8707 54.6139 86.9197 55.7944L175.165 106.743C179.902 109.478 181.634 116.514 179.024 122.432L110.415 278.043C108.631 282.084 105.527 285.085 101.902 286.27C100.789 286.634 99.6606 286.816 98.5477 286.816ZM82.8374 55.7372C82.0625 55.7372 81.2824 55.862 80.5076 56.1116C77.923 56.9593 75.7024 59.1175 74.4127 62.0349L5.79889 217.646C2.69426 224.682 4.69121 233.013 10.2452 236.222L93.909 284.523C96.2388 285.87 98.9638 286.14 101.58 285.282C104.929 284.19 107.804 281.397 109.463 277.627L178.082 122.016C180.485 116.571 178.946 110.128 174.655 107.647L86.41 56.6993C85.3023 56.0596 84.0803 55.7372 82.8374 55.7372Z" fill="url(#paint11_linear)"/>
<path d="M72.7171 98.4474C72.8991 98.5514 73.0708 98.6918 73.2268 98.8634C78.2347 104.428 81.693 111.786 83.1543 120.055C84.6104 128.318 83.9864 137.086 81.3966 145.272C80.8921 146.873 79.384 147.653 78.1359 147.05C78.0891 147.024 78.0371 147.003 77.9903 146.972C76.8462 146.312 76.3782 144.632 76.8514 143.082C78.9784 136.14 79.4672 128.734 78.2347 121.74C77.0074 114.751 74.1108 108.515 69.9245 103.747C68.9521 102.644 68.8324 100.751 69.7425 99.4042C70.507 98.2758 71.7551 97.8909 72.7171 98.4474Z" fill="url(#paint12_linear)"/>
<path d="M63.7002 91.5029C63.6586 91.4821 63.6222 91.4561 63.5806 91.4353C58.219 88.7519 52.2854 87.7691 46.3153 88.5647C44.6772 88.7831 43.5123 90.6813 43.6996 92.6262C43.8192 93.8431 44.438 94.7896 45.2909 95.2836C45.8005 95.5748 46.3882 95.7048 46.9966 95.6372C51.6717 95.1016 56.3001 95.8713 60.5332 97.8942C62.0153 98.5963 63.8302 97.8942 64.6675 96.1157C65.4788 94.3891 65.0731 92.2934 63.7002 91.5029ZM39.3572 91.2377C40.0645 91.6433 40.6001 92.4442 40.7821 93.4687C41.115 95.372 40.0749 97.343 38.5148 98.071C31.9987 101.118 26.3199 106.672 22.4352 113.88C18.5453 121.093 16.7096 129.471 17.1724 137.641C17.2868 139.606 16.2103 141.546 14.5982 142.019C13.917 142.222 13.2513 142.129 12.6949 141.806C11.9356 141.364 11.3844 140.496 11.3064 139.362C10.6043 129.383 12.7885 119.101 17.5468 110.287C22.3 101.472 29.2945 94.7272 37.3135 91.1441C38.0311 90.8269 38.754 90.8893 39.3572 91.2377ZM74.8498 152.457C74.933 152.503 75.0111 152.555 75.0891 152.613C76.4412 153.606 76.7896 155.811 75.7547 157.439C71.9844 163.383 67.1221 168.224 61.5837 171.537C55.1352 175.39 48.0419 176.992 41.1566 176.15C37.1887 175.661 33.382 174.371 29.8925 172.358C27.3288 170.876 24.9366 169.009 22.768 166.773C18.3737 162.244 15.0715 156.399 13.1317 149.758C12.6013 147.932 13.5737 145.894 15.1599 145.259C15.9347 144.947 16.7148 145.036 17.37 145.415C18.0565 145.811 18.6129 146.528 18.8989 147.454C20.5371 152.789 23.2413 157.501 26.8035 161.162C28.6185 163.034 30.6206 164.6 32.7684 165.837C35.691 167.522 38.8736 168.604 42.1966 169.009C47.9587 169.717 53.8975 168.38 59.2955 165.151C63.7834 162.473 67.7357 158.583 70.8508 153.83C71.844 152.311 73.5289 151.697 74.8498 152.457Z" fill="#5B6569"/>
<path d="M10.2498 170.202L9.57896 170.883C0.0154527 156.717 -2.58474 136.794 2.67285 118.546C2.19441 118.12 2.0436 117.298 2.35563 116.596C2.70925 115.8 3.49971 115.457 4.12896 115.816C4.7582 116.18 4.98702 117.116 4.63859 117.912C4.39418 118.463 3.93134 118.801 3.46331 118.827C-1.69027 136.742 0.863115 156.296 10.2498 170.202ZM66.9288 180.587C66.8456 180.493 66.7468 180.41 66.6376 180.347C66.0083 179.983 65.2127 180.332 64.8642 181.128C64.5158 181.918 64.7446 182.859 65.3739 183.223C66.0031 183.587 66.7988 183.239 67.1472 182.443C67.2876 182.126 67.3344 181.788 67.298 181.471C73.9753 176.806 79.7685 170.3 84.1213 162.573L83.4348 162.042C79.1653 169.619 73.4761 176.005 66.9288 180.587ZM89.436 108.213C85.4682 96.7877 78.1928 87.5623 68.9569 82.2267L68.5461 83.1575C86.9607 93.7923 95.9001 118.427 90.5073 143.352C90.0445 143.394 89.5973 143.726 89.358 144.267C89.0096 145.058 89.2384 145.994 89.8677 146.358C90.4969 146.722 91.2926 146.379 91.641 145.583C91.9582 144.87 91.8022 144.033 91.303 143.607C93.8876 131.677 93.2323 119.149 89.436 108.213ZM40.5888 77.5983C39.9596 77.2343 39.1639 77.5775 38.8155 78.3732C38.7583 78.5032 38.7167 78.6332 38.6907 78.7684C29.8657 81.3842 21.7479 86.8966 15.1434 94.7648L15.7154 95.4668C22.1795 87.7599 30.1257 82.3567 38.7635 79.7825C38.8727 80.0789 39.0651 80.3233 39.3252 80.4741C39.9544 80.8382 40.7501 80.4949 41.0985 79.6941C41.4469 78.8984 41.2181 77.9624 40.5888 77.5983Z" fill="#006ad3"/>
<defs fill="#000000">
<linearGradient id="paint0_linear" x1="291.847" y1="134.483" x2="431.346" y2="134.483" gradientUnits="userSpaceOnUse" fill="#000000">
<stop stop-color="#FBFBFB" fill="#000000"/>
<stop offset="1" stop-color="#D3E2F5" fill="#000000"/>
</linearGradient>
<linearGradient id="paint1_linear" x1="291.333" y1="119.32" x2="443.004" y2="119.32" gradientUnits="userSpaceOnUse" fill="#000000">
<stop stop-color="#152329" fill="#000000"/>
<stop offset="1" stop-color="#36444A" fill="#000000"/>
</linearGradient>
<linearGradient id="paint2_linear" x1="91.3969" y1="162.799" x2="312.425" y2="162.799" gradientUnits="userSpaceOnUse" fill="#000000">
<stop stop-color="#525251" fill="#000000"/>
<stop offset="1" stop-color="#131C20" fill="#000000"/>
</linearGradient>
<linearGradient id="paint3_linear" x1="99.3693" y1="162.082" x2="295.222" y2="162.082" gradientUnits="userSpaceOnUse" fill="#000000">
<stop stop-color="#152329" fill="#000000"/>
<stop offset="1" stop-color="#36444A" fill="#000000"/>
</linearGradient>
<linearGradient id="paint4_linear" x1="90.2845" y1="325.025" x2="275.122" y2="161.515" gradientUnits="userSpaceOnUse" fill="#000000">
<stop stop-color="white" stop-opacity="0" fill="#000000"/>
<stop offset="1" stop-color="#DCE7F5" fill="#000000"/>
</linearGradient>
<linearGradient id="paint5_linear" x1="169.048" y1="49.5626" x2="270.314" y2="49.5626" gradientUnits="userSpaceOnUse" fill="#000000">
<stop stop-color="#006cdb" fill="#000000"/>
<stop offset="1" stop-color="#006ad3" fill="#000000"/>
</linearGradient>
<linearGradient id="paint6_linear" x1="99.7235" y1="177.279" x2="480.164" y2="-106.382" gradientUnits="userSpaceOnUse" fill="#000000">
<stop offset="0.0963" stop-color="white" stop-opacity="0" fill="#000000"/>
<stop offset="1" stop-color="white" fill="#000000"/>
</linearGradient>
<linearGradient id="paint7_linear" x1="340.317" y1="240.566" x2="182.86" y2="97.6156" gradientUnits="userSpaceOnUse" fill="#000000">
<stop stop-color="#006ad3" fill="#000000"/>
<stop offset="1" stop-color="#006cdb" fill="#000000"/>
</linearGradient>
<linearGradient id="paint8_linear" x1="3.81247" y1="170.757" x2="179.736" y2="170.757" gradientUnits="userSpaceOnUse" fill="#000000">
<stop stop-color="#FBFBFB" fill="#000000"/>
<stop offset="1" stop-color="#D3E2F5" fill="#000000"/>
</linearGradient>
<linearGradient id="paint9_linear" x1="67.2541" y1="143.687" x2="140.001" y2="143.687" gradientUnits="userSpaceOnUse" fill="#000000">
<stop stop-color="#152329" fill="#000000"/>
<stop offset="1" stop-color="#36444A" fill="#000000"/>
</linearGradient>
<linearGradient id="paint10_linear" x1="17.5603" y1="214.451" x2="122.92" y2="214.451" gradientUnits="userSpaceOnUse" fill="#000000">
<stop stop-color="#152329" fill="#000000"/>
<stop offset="1" stop-color="#36444A" fill="#000000"/>
</linearGradient>
<linearGradient id="paint11_linear" x1="3.30094" y1="170.755" x2="180.249" y2="170.755" gradientUnits="userSpaceOnUse" fill="#000000">
<stop stop-color="#152329" fill="#000000"/>
<stop offset="1" stop-color="#36444A" fill="#000000"/>
</linearGradient>
<linearGradient id="paint12_linear" x1="69.1267" y1="122.723" x2="83.9216" y2="122.723" gradientUnits="userSpaceOnUse" fill="#000000">
<stop stop-color="#006ad3" fill="#000000"/>
<stop offset="1" stop-color="#006cdb" fill="#000000"/>
</linearGradient>
</defs>
</svg>