<svg xmlns="http://www.w3.org/2000/svg" width="443" height="402" viewBox="0 0 443 402" fill="none">
<path opacity="0.3" d="M404.742 296.468C404.906 238.716 324.212 191.67 224.507 191.387C124.802 191.104 43.843 237.692 43.6793 295.444C43.5155 353.196 124.209 400.243 223.914 400.525C323.619 400.808 404.578 354.22 404.742 296.468Z" fill="#DADBDB"/>
<path opacity="0.149" d="M137.444 63.8909C135.026 62.4972 133.897 59.4706 134.922 57.146L148.469 26.4273C149.493 24.1028 152.296 23.3435 154.709 24.7424L210.322 56.8496C212.74 58.2433 213.869 61.2699 212.844 63.5945L199.297 94.3131C198.273 96.6377 195.47 97.3969 193.057 95.998L137.444 63.8909ZM210.868 55.6067L155.261 23.4995C152.302 21.7938 148.817 22.8495 147.491 25.8553L133.944 56.5739C132.618 59.5798 133.944 63.4124 136.903 65.1234L192.516 97.2305C195.475 98.9363 198.959 97.8806 200.285 94.8748L213.832 64.1561C215.153 61.1503 213.827 57.3124 210.868 55.6067Z" fill="#131C20"/>
<path opacity="0.6" d="M333.32 57.2402L293.027 148.497C290.521 154.186 292.154 160.91 296.673 163.52L378.371 210.688C382.895 213.299 388.59 210.808 391.101 205.118L431.352 113.836L333.32 57.2402ZM320.335 135.724L330.382 112.942C331.125 111.257 332.81 110.523 334.142 111.293C335.478 112.068 335.962 114.054 335.223 115.734L325.176 138.517C324.432 140.202 322.748 140.935 321.411 140.166C320.08 139.396 319.596 137.409 320.335 135.724ZM330.6 154.768C330.179 155.73 329.217 156.146 328.458 155.709L308.889 144.409C308.129 143.972 307.854 142.839 308.28 141.876C308.701 140.92 309.663 140.498 310.423 140.935L329.992 152.236C330.751 152.672 331.027 153.811 330.6 154.768ZM332.503 146.567C331.167 145.792 330.683 143.806 331.422 142.126L334.693 134.716C335.431 133.036 337.121 132.297 338.458 133.067C339.794 133.837 340.278 135.828 339.534 137.508L336.263 144.919C335.52 146.604 333.84 147.342 332.503 146.567ZM347.99 164.805C347.569 165.767 346.607 166.183 345.848 165.746L335.088 159.532C334.329 159.095 334.048 157.961 334.474 156.999C334.896 156.042 335.858 155.621 336.617 156.058L347.377 162.272C348.136 162.714 348.411 163.848 347.99 164.805ZM360.544 172.054C360.123 173.016 359.161 173.432 358.401 172.996L352.478 169.574C351.714 169.132 351.443 168.003 351.864 167.041C352.286 166.084 353.248 165.663 354.007 166.1L359.93 169.522C360.69 169.964 360.965 171.097 360.544 172.054ZM358.443 157.722C357.699 159.407 356.014 160.14 354.683 159.371C353.347 158.596 352.863 156.609 353.601 154.929L368.527 121.085C369.27 119.4 370.955 118.667 372.292 119.437C373.628 120.206 374.112 122.193 373.368 123.878L358.443 157.722ZM371.902 158.752L369.53 164.129C368.787 165.814 367.102 166.547 365.765 165.777C364.429 165.008 363.945 163.021 364.689 161.336L367.06 155.959C367.804 154.274 369.489 153.541 370.82 154.311C372.162 155.08 372.645 157.067 371.902 158.752ZM384.44 185.851C384.018 186.813 383.056 187.229 382.297 186.792L365.032 176.823C364.267 176.381 363.997 175.253 364.418 174.29C364.839 173.334 365.802 172.912 366.561 173.349L383.826 183.318C384.59 183.76 384.861 184.894 384.44 185.851ZM397.893 124.46C399.23 125.23 399.713 127.222 398.97 128.907L380.617 170.531C379.874 172.215 378.189 172.949 376.858 172.179C375.521 171.404 375.037 169.418 375.776 167.738L394.128 126.114C394.872 124.424 396.557 123.686 397.893 124.46ZM364.252 89.8154C364.673 88.8586 365.635 88.4373 366.394 88.8742L385.963 100.169C386.728 100.611 386.998 101.745 386.577 102.702C386.156 103.659 385.194 104.08 384.434 103.643L364.865 92.348C364.106 91.9112 363.831 90.7723 364.252 89.8154ZM354.153 129.011C355.489 129.786 355.973 131.772 355.229 133.457L347.351 151.326C346.607 153.01 344.922 153.744 343.585 152.974C342.249 152.204 341.765 150.218 342.509 148.533L350.388 130.664C351.131 128.98 352.821 128.241 354.153 129.011Z" fill="url(#paint0_linear)"/>
<path d="M436.316 72.7636C441.657 75.8474 443.852 83.4712 441.61 90.3513C441.428 90.913 431.345 113.841 431.345 113.841L333.318 57.2457C333.318 57.2457 343.401 34.3432 343.677 33.8595C347.177 27.6763 353.849 25.1541 359.205 28.2431L436.316 72.7636ZM370.818 154.306C372.154 155.08 372.638 157.067 371.899 158.747L369.528 164.124C368.784 165.809 367.099 166.542 365.763 165.772C364.426 165.003 363.943 163.016 364.686 161.331L367.058 155.954C367.801 154.269 369.486 153.536 370.818 154.306ZM338.456 133.067C339.792 133.837 340.276 135.829 339.532 137.508L336.261 144.919C335.517 146.604 333.832 147.337 332.501 146.567C331.165 145.793 330.681 143.806 331.419 142.126L334.691 134.716C335.429 133.031 337.119 132.292 338.456 133.067ZM354.15 129.011C355.487 129.786 355.97 131.772 355.227 133.457L347.348 151.326C346.605 153.011 344.92 153.744 343.583 152.974C342.247 152.205 341.763 150.218 342.507 148.533L350.385 130.665C351.129 128.98 352.819 128.241 354.15 129.011ZM334.144 111.293C335.481 112.068 335.965 114.055 335.226 115.734L325.179 138.517C324.435 140.202 322.75 140.935 321.414 140.166C320.077 139.396 319.594 137.41 320.337 135.725L330.385 112.942C331.123 111.257 332.808 110.524 334.144 111.293ZM372.284 119.442C373.621 120.212 374.104 122.198 373.361 123.883L358.435 157.727C357.692 159.412 356.007 160.146 354.676 159.376C353.339 158.601 352.855 156.615 353.594 154.935L368.519 121.091C369.263 119.406 370.948 118.667 372.284 119.442ZM397.896 124.461C399.232 125.23 399.716 127.222 398.972 128.907L380.62 170.531C379.877 172.216 378.192 172.949 376.86 172.179C375.524 171.404 375.04 169.418 375.779 167.738L394.131 126.114C394.869 124.424 396.554 123.686 397.896 124.461Z" fill="#006ad3"/>
<path d="M385.961 100.175C386.726 100.617 386.996 101.751 386.575 102.707C386.154 103.664 385.192 104.085 384.432 103.649L364.863 92.3534C364.104 91.9166 363.828 90.7777 364.25 89.8208C364.671 88.864 365.633 88.4427 366.392 88.8796L385.961 100.175ZM329.984 152.236L310.415 140.935C309.656 140.499 308.694 140.92 308.273 141.877C307.852 142.839 308.122 143.967 308.881 144.409L328.45 155.71C329.21 156.147 330.172 155.73 330.593 154.768C331.024 153.812 330.749 152.673 329.984 152.236ZM347.374 162.273L336.615 156.058C335.856 155.621 334.894 156.043 334.472 156.999C334.051 157.961 334.327 159.09 335.086 159.532L345.846 165.746C346.605 166.183 347.567 165.767 347.988 164.805C348.409 163.848 348.134 162.715 347.374 162.273ZM359.928 169.522L354.005 166.1C353.24 165.658 352.284 166.084 351.862 167.041C351.441 168.003 351.712 169.132 352.476 169.574L358.399 172.996C359.159 173.433 360.121 173.017 360.542 172.054C360.963 171.098 360.687 169.964 359.928 169.522ZM383.824 183.319L366.559 173.349C365.794 172.907 364.837 173.334 364.416 174.291C363.995 175.253 364.265 176.381 365.03 176.823L382.295 186.792C383.059 187.234 384.016 186.813 384.438 185.851C384.859 184.894 384.588 183.761 383.824 183.319Z" fill="#D2D5D5"/>
<path d="M382.198 212.249C380.773 212.249 379.374 211.88 378.105 211.146L296.407 163.979C291.669 161.243 289.938 154.207 292.548 148.295C297.707 136.609 342.945 34.0941 343.226 33.6053C345.166 30.1782 348.182 27.6977 351.5 26.7928C354.266 26.0387 357.017 26.3872 359.462 27.7965L436.573 72.3169C442.07 75.4892 444.446 83.3158 442.101 90.5131L442.075 90.5079L442.101 90.5131L442.002 90.7991C441.836 91.2879 441.654 91.7508 441.451 92.2084L391.564 205.332C390.159 208.52 387.71 210.881 384.845 211.817C383.976 212.103 383.082 212.249 382.198 212.249ZM354.334 27.4376C353.492 27.4376 352.633 27.552 351.775 27.7861C348.718 28.6181 345.935 30.9219 344.131 34.1097C343.559 35.2746 294.004 147.572 293.5 148.705C291.097 154.15 292.637 160.593 296.927 163.069L378.625 210.236C380.419 211.271 382.515 211.479 384.527 210.824C387.112 209.981 389.327 207.823 390.617 204.906L440.504 91.782C440.692 91.3607 440.858 90.9395 441.009 90.4923L441.118 90.1699C443.313 83.4354 441.139 76.134 436.058 73.201L358.947 28.6909C357.501 27.8589 355.941 27.4376 354.334 27.4376Z" fill="url(#paint1_linear)"/>
<path opacity="0.3" d="M302.939 293.967L221.891 342.102C215.183 345.977 204.309 345.977 197.6 342.102L108.211 290.494C101.503 286.619 101.503 280.342 108.211 276.468L189.259 228.333C195.957 224.464 206.857 224.47 213.55 228.333L302.939 279.942C309.632 283.806 309.637 290.098 302.939 293.967Z" fill="#DADBDB"/>
<path opacity="0.3" d="M437.571 275.875L395.771 300.364C389.624 303.911 379.655 303.911 373.508 300.364L304.884 261.127C298.737 257.575 298.737 251.824 304.884 248.272L346.684 223.783C352.826 220.236 362.811 220.242 368.947 223.783L437.571 263.02C443.703 266.567 443.708 272.329 437.571 275.875Z" fill="#DADBDB"/>
<path d="M307.448 249.384C307.359 249.104 307.266 248.823 307.162 248.552C306.272 246.233 304.754 244.288 302.7 243.102L284.431 232.556C280.463 230.263 275.673 231.5 272.454 235.229C272.236 235.479 272.028 235.739 271.82 236.014C271.206 236.841 270.67 237.767 270.223 238.776L260.088 261.767C257.29 268.116 259.105 275.62 264.149 278.538L282.418 289.084C287.462 291.996 293.823 289.209 296.626 282.859L306.761 259.874C308.29 256.415 308.441 252.603 307.448 249.384Z" fill="#495358"/>
<path d="M291.414 265.676C290.992 266.628 290.046 267.044 289.281 266.607L283.8 263.44L280.93 269.956C280.508 270.913 279.567 271.324 278.797 270.887C278.038 270.45 277.768 269.332 278.189 268.375L281.06 261.865L275.885 258.874C275.126 258.437 274.85 257.314 275.272 256.363C275.693 255.406 276.639 254.99 277.404 255.426L282.578 258.417L285.62 251.516C286.047 250.559 286.988 250.143 287.752 250.58C288.512 251.022 288.782 252.14 288.366 253.097L285.324 259.992L290.805 263.159C291.564 263.596 291.84 264.72 291.414 265.676Z" fill="#D2D5D5"/>
<path opacity="0.38" d="M307.157 248.558C298.743 250.393 290.49 249.036 283.22 244.715C280.822 243.29 278.529 241.542 276.371 239.478C275.008 238.173 273.703 236.758 272.455 235.234C272.236 235.484 272.028 235.744 271.82 236.02C273.042 237.497 274.316 238.875 275.648 240.149C277.848 242.255 280.188 244.039 282.642 245.495C290.157 249.962 298.717 251.345 307.448 249.395C307.36 249.104 307.266 248.828 307.157 248.558Z" fill="#131C20"/>
<path d="M292.784 54.729C298.748 58.1665 300.938 67.1007 297.63 74.5997C262.289 154.743 231.154 226.108 195.812 306.245C192.51 313.75 184.969 317.052 179.015 313.604C153.309 298.762 127.604 283.925 101.904 269.084C95.9387 265.646 93.7805 256.743 97.0932 249.244C132.435 169.101 163.57 97.7362 198.911 17.5983C202.214 10.0941 209.754 6.79188 215.714 10.2397C241.409 25.0868 267.078 39.8871 292.784 54.729Z" fill="#131C20"/>
<path d="M312.284 65.197C312.237 64.5522 311.951 62.7632 311.675 61.7076C311.42 60.7455 311.004 59.487 310.672 58.5561C310.49 58.0517 310.167 57.4069 309.949 56.9128C309.814 56.606 309.028 55.0875 308.201 53.933C307.863 53.465 307.416 52.8409 307.031 52.4093C306.402 51.7072 305.513 50.818 304.821 50.1783C304.39 49.7779 303.745 49.3151 303.261 48.9718C302.876 48.6962 302.33 48.379 301.93 48.1294L224.818 3.60369C224.558 3.46328 224.215 3.26046 223.95 3.13045C223.404 2.87043 222.676 2.53241 222.114 2.31919C221.828 2.20999 221.501 2.10598 221.163 2.00717C220.523 1.79916 219.873 1.62754 219.223 1.50273L218.209 1.31032C217.351 1.18031 216.196 1.0607 215.328 1.0035C214.886 0.972295 214.293 1.0139 213.851 1.0295C213.289 1.0451 212.546 1.14911 211.994 1.23231C211.552 1.29992 210.975 1.43513 210.538 1.52874C210.523 1.53394 209.108 1.84596 207.366 2.60521C206.867 2.82363 206.222 3.14605 205.744 3.40607C205.333 3.62969 204.807 3.96251 204.407 4.20693C204.397 4.21213 203.123 5.00779 201.708 6.27149C200.855 7.03074 200.049 7.868 199.311 8.75727C198.557 9.66214 197.865 10.6294 197.246 11.6279C196.96 12.0959 196.341 13.2192 196.341 13.2192C196.341 13.2192 96.9151 239.295 93.7325 246.508C92.9056 248.386 92.4844 249.935 92.4792 249.951C92.3439 250.471 92.1359 251.163 92.0371 251.693C91.9383 252.218 91.7927 252.915 91.7095 253.446C91.6315 253.966 91.5483 254.668 91.5015 255.193C91.4547 255.723 91.3975 256.431 91.4027 256.961C91.4131 257.991 91.4651 259.369 91.5431 260.399C91.5899 261.043 91.8759 262.832 92.1515 263.888C92.4063 264.85 92.8224 266.109 93.1552 267.039C93.3372 267.544 93.6596 268.189 93.8781 268.683C94.0133 268.99 94.7985 270.508 95.6254 271.663C95.9634 272.131 96.4106 272.755 96.7955 273.186C97.4247 273.888 98.314 274.778 99.0056 275.417C99.4373 275.818 100.082 276.281 100.566 276.624C100.951 276.899 101.497 277.217 101.897 277.466L109.609 281.918L117.321 286.369L125.034 290.821L132.746 295.272L140.458 299.724L148.17 304.175L155.882 308.627L163.594 313.078L171.307 317.53L179.019 321.982C179.279 322.122 179.622 322.325 179.887 322.455C180.433 322.715 181.161 323.053 181.723 323.266C182.565 323.583 183.735 323.874 184.614 324.077L185.628 324.27C186.398 324.415 187.173 324.504 187.953 324.535C188.145 324.551 188.338 324.566 188.515 324.577C188.957 324.608 189.55 324.566 189.992 324.551C190.553 324.535 191.297 324.431 191.848 324.348C192.29 324.28 192.867 324.145 193.304 324.051C193.32 324.046 194.729 323.734 196.476 322.975C196.976 322.756 197.62 322.434 198.099 322.174C198.51 321.95 199.035 321.617 199.435 321.373C199.446 321.368 200.72 320.572 202.134 319.309C202.987 318.549 203.793 317.712 204.532 316.823C205.286 315.918 205.978 314.951 206.596 313.952C206.882 313.484 207.246 312.85 207.501 312.361C207.756 311.877 208.052 311.212 208.292 310.723L218.895 286.681L229.499 262.64L240.102 238.599L250.706 214.557L261.31 190.516L271.913 166.474L282.517 142.433L293.12 118.392L299.522 103.123L310.126 79.082C310.952 77.2047 311.374 75.655 311.379 75.6394C311.514 75.1194 311.722 74.4277 311.821 73.8973C311.92 73.372 312.065 72.6752 312.149 72.1447C312.227 71.6247 312.31 70.9226 312.357 70.3974C312.403 69.867 312.461 69.1597 312.455 68.6293C312.414 67.5996 312.362 66.2215 312.284 65.197ZM179.008 313.609L101.897 269.088C95.9322 265.651 93.7741 256.748 97.0867 249.249L198.905 17.6031C202.207 10.099 209.748 6.79672 215.707 10.2446L292.819 54.7651C298.784 58.2025 300.937 67.1004 297.624 74.5993L195.806 306.25C192.503 313.755 184.963 317.057 179.008 313.609ZM207.922 310.889C207.876 310.894 207.818 310.894 207.761 310.894C207.818 310.894 207.876 310.894 207.922 310.889C208.068 310.879 208.172 310.842 208.229 310.79C208.172 310.842 208.073 310.879 207.922 310.889ZM309.58 79.2433C309.699 79.2485 309.798 79.2381 309.876 79.2225C309.798 79.2381 309.699 79.2485 309.58 79.2433Z" fill="url(#paint2_linear)"/>
<path d="M184.058 315.231C182.253 315.231 180.48 314.763 178.878 313.832L101.767 269.312C95.6926 265.812 93.4824 256.763 96.8471 249.145C114.518 209.076 131.414 170.567 147.759 133.322C164.098 96.0767 181 57.5679 198.671 17.4989C200.475 13.4062 203.616 10.3692 207.288 9.16791C210.205 8.21624 213.242 8.51786 215.842 10.0208C228.75 17.4729 241.652 24.9199 254.554 32.3616C267.336 39.741 280.124 47.1151 292.917 54.5048C299.017 58.0203 301.238 67.0846 297.868 74.7083C280.207 114.756 263.317 153.25 246.987 190.474C230.637 227.735 213.731 266.264 196.05 306.359C194.245 310.452 191.104 313.489 187.433 314.69C186.309 315.049 185.176 315.231 184.058 315.231ZM210.652 9.1419C209.586 9.1419 208.505 9.31352 207.444 9.66194C203.913 10.8164 200.886 13.7494 199.139 17.7069C181.468 57.7759 164.572 96.2899 148.227 133.53C131.887 170.77 114.986 209.284 97.3151 249.353C94.0545 256.737 96.1658 265.484 102.016 268.859L179.128 313.38C181.593 314.805 184.479 315.091 187.256 314.186C190.787 313.031 193.813 310.098 195.561 306.141C213.242 266.051 230.149 227.522 246.499 190.261C262.833 153.037 279.719 114.548 297.384 74.4951C300.65 67.1054 298.523 58.3375 292.647 54.9521C279.854 47.5675 267.066 40.1882 254.283 32.8088C241.381 25.3671 228.484 17.9201 215.572 10.468C214.053 9.58914 212.368 9.1419 210.652 9.1419Z" fill="#5B5B5B"/>
<path d="M294.401 73.6165C294.225 74.1417 294.027 74.6618 293.803 75.1714L275.269 117.196L248.492 177.926L247.686 179.756L193.535 302.543C190.503 309.423 183.602 312.449 178.131 309.287L136.663 285.345L105.206 267.185C99.7355 264.029 97.7594 255.885 100.796 248.994L103.677 242.457L152.852 130.945L201.06 21.623C201.06 21.623 201.523 20.6506 201.788 20.1877C205.09 14.3477 211.403 11.9555 216.469 14.8781L225.725 20.2241C226.469 20.6558 226.739 21.7583 226.323 22.6943L226.011 23.4016C224.253 27.3903 225.398 32.1018 228.559 33.9272L268.821 57.1729C271.983 58.993 275.976 57.2457 277.729 53.2674L278.046 52.5497C278.457 51.6137 279.388 51.208 280.132 51.6397L289.18 56.8608L289.393 56.9856C294.443 59.9031 296.518 67.1056 294.401 73.6165Z" fill="url(#paint3_linear)"/>
<path opacity="0.55" d="M289.393 56.9794L280.131 51.6334C279.388 51.207 278.457 51.6126 278.041 52.5487L277.729 53.2611C275.971 57.2446 271.982 58.992 268.815 57.1666L228.559 33.9261C225.397 32.1008 224.253 27.384 226.006 23.4006L226.318 22.6881C226.728 21.752 226.463 20.6495 225.72 20.2231L216.463 14.8771C211.398 11.9545 205.09 14.3415 201.782 20.1867C201.522 20.6443 201.278 21.1228 201.059 21.6272L195.074 35.2054L182.53 63.6515C180.159 69.0287 181.704 75.394 185.978 77.859L263.235 122.463C267.515 124.933 272.897 122.572 275.274 117.195L293.808 75.1704C294.032 74.6607 294.229 74.1407 294.406 73.6154C296.523 67.1046 294.448 59.8968 289.393 56.9794Z" fill="#131C20"/>
<path opacity="0.2" d="M293.803 75.1711L275.274 117.195L193.535 302.542C190.503 309.422 183.602 312.449 178.131 309.287L105.206 267.18C99.7355 264.023 97.7594 255.879 100.796 248.994L103.677 242.452C103.677 242.452 294.032 74.6563 293.803 75.1711Z" fill="url(#paint4_linear)"/>
<path opacity="0.38" d="M248.491 177.925C248.564 156.437 244.211 140.352 235.459 129.894C234.336 128.547 233.14 127.294 231.876 126.145C215.339 111.048 191.932 117.6 190.824 117.923C190.731 117.533 190.549 117.169 190.294 116.862C189.28 115.655 187.402 115.77 186.097 117.122C184.797 118.474 184.542 120.58 185.577 121.766C186.362 122.671 188.323 123.097 189.763 121.506C190.486 120.71 190.902 119.712 190.913 118.76C192.228 118.38 215.12 112.083 231.309 126.862C232.552 127.996 233.727 129.223 234.83 130.549C243.697 141.148 247.997 157.633 247.68 179.766L248.491 177.925ZM189.28 120.923C188.323 121.917 186.94 122.005 186.201 121.121C185.457 120.227 185.624 118.692 186.586 117.704C187.538 116.711 188.921 116.628 189.67 117.512C190.408 118.396 190.231 119.925 189.28 120.923Z" fill="#131C20"/>
<path d="M279.465 55.0712L270.203 49.7252C269.459 49.2988 268.528 49.7044 268.112 50.6405L267.8 51.3529C266.043 55.3364 262.054 57.0838 258.892 55.2584L218.636 32.0179C215.474 30.1926 214.33 25.4758 216.082 21.4923L216.394 20.7799C216.805 19.8438 216.54 18.7413 215.796 18.3149L206.54 12.9689C201.475 10.0463 195.166 12.4333 191.859 18.2785C191.599 18.7361 191.355 19.2146 191.136 19.719L185.14 33.292L172.597 61.7381C170.225 67.1153 171.77 73.4806 176.045 75.9456L253.302 120.549C257.581 123.019 262.964 120.658 265.34 115.281L283.875 73.257C284.098 72.7473 284.296 72.2273 284.473 71.702C286.589 65.1912 284.514 57.9886 279.465 55.0712Z" fill="#F4F5F5"/>
<path opacity="0.15" d="M214.429 48.5701C213.571 48.076 213.264 46.8072 213.737 45.7307C214.211 44.6542 215.292 44.181 216.145 44.675L250.192 64.3324C251.05 64.8265 251.357 66.1006 250.884 67.1771C250.411 68.2535 249.334 68.7216 248.476 68.2275L214.429 48.5701ZM193.55 39.875C192.535 39.2874 192.166 37.7793 192.733 36.5L194.772 31.8769C195.333 30.6028 196.618 30.0411 197.632 30.6288L201.308 32.7505C202.323 33.3382 202.692 34.8463 202.13 36.1256L200.092 40.7487C199.525 42.028 198.245 42.5844 197.231 42.002L193.55 39.875ZM266.017 81.7173C264.998 81.1297 264.634 79.6216 265.2 78.3423L267.239 73.7191C267.801 72.445 269.08 71.8834 270.099 72.471L273.776 74.5928C274.79 75.1804 275.154 76.6886 274.592 77.9626L272.554 82.5858C271.987 83.8651 270.713 84.4267 269.699 83.8391L266.017 81.7173ZM179.571 70.4065C178.557 69.8189 178.188 68.3107 178.754 67.0314L180.793 62.4083C181.355 61.1342 182.639 60.5726 183.653 61.1602L187.33 63.282C188.344 63.8696 188.713 65.3777 188.152 66.657L186.113 71.2802C185.546 72.5594 184.267 73.1159 183.253 72.5334L179.571 70.4065ZM252.038 112.244C251.019 111.656 250.655 110.148 251.222 108.869L253.26 104.245C253.822 102.971 255.101 102.41 256.121 102.997L259.797 105.119C260.811 105.707 261.175 107.215 260.614 108.489L258.575 113.112C258.008 114.391 256.734 114.953 255.72 114.365L252.038 112.244ZM279.465 55.0654L270.203 49.7194C269.46 49.2929 268.529 49.6986 268.113 50.6346L267.801 51.3471C266.043 55.3306 262.054 57.0779 258.887 55.2526L218.631 32.0121C215.469 30.1867 214.325 25.47 216.078 21.4865L216.39 20.774C216.8 19.838 216.535 18.7355 215.792 18.3091L206.535 12.9631C201.47 10.0404 195.162 12.4274 191.854 18.2727C191.594 18.7303 191.35 19.2087 191.131 19.7132L185.146 33.2914C182.774 38.6686 184.319 45.0338 188.594 47.4988L265.85 92.1025C270.13 94.5727 275.518 92.2117 277.889 86.8345L283.875 73.2563C284.099 72.7467 284.296 72.2266 284.473 71.7014C286.59 65.1905 284.515 57.9828 279.465 55.0654Z" fill="#131C20"/>
<path opacity="0.3" d="M186.868 107.876L179.437 103.585C177.388 102.4 174.798 103.533 173.659 106.118L169.535 115.468C168.396 118.053 169.135 121.106 171.189 122.291L178.62 126.582C180.669 127.767 183.259 126.634 184.398 124.049L188.522 114.699C189.661 112.114 188.922 109.061 186.868 107.876Z" fill="#F4F5F5"/>
<path d="M216.251 124.839L196.271 113.305C195.585 112.91 194.721 113.289 194.342 114.147C193.962 115.005 194.212 116.025 194.893 116.42L214.873 127.954C215.554 128.35 216.417 127.97 216.797 127.112C217.182 126.254 216.932 125.235 216.251 124.839Z" fill="#006ad3"/>
<path d="M227.427 140.398L193.38 120.741C192.522 120.247 191.445 120.72 190.972 121.791C190.499 122.868 190.806 124.142 191.664 124.636L225.711 144.293C226.569 144.787 227.645 144.314 228.119 143.238C228.592 142.166 228.285 140.892 227.427 140.398Z" fill="white"/>
<path d="M211.706 140.794L190.052 128.292C189.194 127.798 188.117 128.266 187.644 129.343C187.171 130.419 187.478 131.693 188.336 132.188L209.99 144.689C210.843 145.183 211.919 144.71 212.398 143.634C212.866 142.557 212.559 141.288 211.706 140.794Z" fill="white"/>
<path opacity="0.3" d="M173.55 138.085L166.119 133.795C164.07 132.609 161.48 133.743 160.341 136.322L156.218 145.677C155.079 148.257 155.822 151.315 157.871 152.495L165.303 156.785C167.352 157.971 169.941 156.837 171.08 154.258L175.204 144.903C176.343 142.323 175.599 139.271 173.55 138.085Z" fill="#F4F5F5"/>
<path d="M202.927 155.048L182.947 143.514C182.26 143.119 181.397 143.498 181.017 144.356C180.638 145.22 180.887 146.234 181.569 146.629L201.549 158.163C202.23 158.559 203.093 158.184 203.473 157.321C203.858 156.463 203.613 155.444 202.927 155.048Z" fill="#006ad3"/>
<path d="M214.11 170.603L180.064 150.946C179.205 150.452 178.129 150.925 177.656 152.001C177.183 153.073 177.489 154.347 178.347 154.841L212.394 174.498C213.252 174.992 214.329 174.519 214.802 173.448C215.275 172.371 214.963 171.097 214.11 170.603Z" fill="white"/>
<path d="M198.382 171.004L176.728 158.503C175.87 158.008 174.793 158.482 174.32 159.553C173.847 160.63 174.153 161.904 175.011 162.398L196.666 174.899C197.519 175.393 198.595 174.92 199.074 173.844C199.547 172.767 199.235 171.493 198.382 171.004Z" fill="white"/>
<path opacity="0.3" d="M153.55 183.436L146.119 179.146C144.07 177.96 141.48 179.094 140.341 181.674L136.218 191.029C135.079 193.608 135.822 196.666 137.871 197.847L145.303 202.137C147.352 203.323 149.941 202.189 151.08 199.61L155.204 190.254C156.343 187.675 155.605 184.617 153.55 183.436Z" fill="#F4F5F5"/>
<path d="M182.932 200.394L162.952 188.86C162.265 188.464 161.402 188.844 161.022 189.702C160.643 190.565 160.887 191.585 161.574 191.98L181.554 203.514C182.235 203.91 183.098 203.53 183.478 202.667C183.863 201.809 183.613 200.789 182.932 200.394Z" fill="#006ad3"/>
<path d="M194.114 215.949L160.067 196.291C159.209 195.797 158.133 196.271 157.66 197.347C157.186 198.424 157.493 199.693 158.351 200.187L192.398 219.844C193.256 220.338 194.333 219.87 194.806 218.794C195.274 217.717 194.967 216.443 194.114 215.949Z" fill="white"/>
<path d="M178.386 216.35L156.732 203.848C155.873 203.354 154.797 203.827 154.324 204.904C153.851 205.975 154.157 207.249 155.015 207.743L176.67 220.245C177.523 220.739 178.599 220.266 179.072 219.189C179.546 218.113 179.239 216.839 178.386 216.35Z" fill="white"/>
<path opacity="0.3" d="M140.23 213.64L132.799 209.349C130.75 208.164 128.16 209.297 127.021 211.877L122.897 221.232C121.758 223.812 122.502 226.869 124.551 228.05L131.982 232.34C134.031 233.526 136.621 232.392 137.76 229.813L141.884 220.457C143.023 217.878 142.279 214.825 140.23 213.64Z" fill="#F4F5F5"/>
<path d="M169.607 230.603L149.628 219.069C148.941 218.673 148.078 219.053 147.698 219.911C147.319 220.774 147.563 221.794 148.249 222.189L168.229 233.723C168.911 234.119 169.774 233.739 170.153 232.876C170.538 232.012 170.294 230.993 169.607 230.603Z" fill="#006ad3"/>
<path d="M180.786 246.152L146.739 226.495C145.881 226.001 144.805 226.474 144.332 227.55C143.858 228.627 144.165 229.896 145.023 230.39L179.07 250.047C179.928 250.541 181.005 250.073 181.478 248.997C181.951 247.92 181.644 246.646 180.786 246.152Z" fill="white"/>
<path d="M165.062 246.553L143.407 234.051C142.549 233.557 141.473 234.03 141 235.107C140.526 236.178 140.833 237.452 141.691 237.946L163.346 250.448C164.198 250.942 165.275 250.469 165.748 249.392C166.227 248.321 165.915 247.047 165.062 246.553Z" fill="white"/>
<path opacity="0.3" d="M126.914 243.845L119.482 239.554C117.433 238.369 114.844 239.502 113.705 242.082L109.581 251.437C108.442 254.017 109.186 257.074 111.235 258.255L118.666 262.545C120.715 263.731 123.305 262.597 124.444 260.018L128.567 250.662C129.701 248.083 128.963 245.03 126.914 243.845Z" fill="#F4F5F5"/>
<path d="M156.29 260.808L136.31 249.274C135.624 248.878 134.76 249.258 134.381 250.116C134.001 250.974 134.251 251.993 134.932 252.389L154.912 263.923C155.593 264.318 156.456 263.939 156.836 263.081C157.221 262.217 156.971 261.203 156.29 260.808Z" fill="#006ad3"/>
<path d="M167.47 276.363L133.423 256.706C132.565 256.212 131.488 256.685 131.015 257.761C130.542 258.838 130.849 260.112 131.707 260.606L165.754 280.263C166.612 280.757 167.688 280.284 168.161 279.208C168.635 278.131 168.323 276.857 167.47 276.363Z" fill="white"/>
<path d="M151.745 276.758L130.091 264.256C129.233 263.762 128.156 264.236 127.683 265.312C127.21 266.388 127.517 267.657 128.375 268.151L150.029 280.653C150.882 281.147 151.958 280.674 152.432 279.597C152.905 278.526 152.598 277.252 151.745 276.758Z" fill="white"/>
<path d="M184.681 182.406L150.629 162.749C149.776 162.254 148.699 162.728 148.226 163.804C147.753 164.881 148.06 166.155 148.913 166.649L182.965 186.306C183.823 186.8 184.894 186.327 185.373 185.251C185.841 184.174 185.534 182.9 184.681 182.406Z" fill="#D2D5D5"/>
<path d="M218.038 106.767L183.986 87.1099C183.133 86.6158 182.056 87.0891 181.578 88.1655C181.105 89.242 181.411 90.5109 182.264 91.0049L216.316 110.662C217.174 111.156 218.246 110.683 218.719 109.607C219.197 108.53 218.896 107.261 218.038 106.767Z" fill="#D2D5D5"/>
<path opacity="0.93" d="M269.493 68.8627C269.327 69.3879 269.124 69.9079 268.9 70.4176L262.915 84.001C260.543 89.3782 255.15 91.7391 250.876 89.269L212.003 66.8241L173.619 44.6653C169.344 42.1951 167.8 35.8298 170.171 30.4526L176.157 16.8744C176.38 16.3752 176.62 15.8916 176.88 15.4339C180.187 9.59389 186.5 7.20172 191.565 10.1295L200.822 15.4755C201.566 15.902 201.831 17.0044 201.42 17.9405L201.103 18.653C199.345 22.6365 200.489 27.348 203.651 29.1785L234.125 46.7714L243.907 52.4242C247.074 54.2548 251.063 52.5022 252.821 48.5188L253.138 47.8063C253.554 46.865 254.49 46.4594 255.229 46.891L264.49 52.237C269.54 55.1492 271.615 62.3518 269.493 68.8627Z" fill="url(#paint5_linear)"/>
<path opacity="0.3" d="M187.152 33.2817L185.113 37.9048C184.546 39.1841 183.267 39.7405 182.248 39.1581L178.571 37.0311C177.557 36.4487 177.188 34.9354 177.754 33.6561L179.793 29.0329C180.36 27.7537 181.639 27.1972 182.653 27.7849L186.33 29.9066C187.339 30.4995 187.708 32.0076 187.152 33.2817ZM258.797 71.7489L255.121 69.6271C254.101 69.0395 252.827 69.6011 252.26 70.8752L250.222 75.4984C249.655 76.7777 250.019 78.291 251.038 78.8734L254.715 81.0004C255.734 81.5828 257.008 81.0212 257.575 79.7471L259.614 75.1187C260.18 73.8446 259.811 72.3365 258.797 71.7489Z" fill="#F4F5F5"/>
<path opacity="0.73" d="M235.91 64.3391C235.437 65.4208 234.355 65.8836 233.502 65.3948L199.45 45.7374C198.597 45.2433 198.285 43.9744 198.764 42.898C199.237 41.8215 200.313 41.3482 201.171 41.8423L235.224 61.5049C236.076 61.9886 236.383 63.2627 235.91 64.3391Z" fill="#F4F5F5"/>
<g opacity="0.7">
<path opacity="0.7" d="M174.937 315.189C174.807 315.189 174.672 315.158 174.547 315.085L168.577 311.638C168.203 311.424 168.078 310.946 168.291 310.571C168.51 310.197 168.983 310.072 169.357 310.285L175.327 313.733C175.702 313.947 175.827 314.425 175.613 314.799C175.473 315.054 175.208 315.189 174.937 315.189Z" fill="white"/>
<path opacity="0.7" d="M184.51 319.169C182.622 319.169 180.766 318.68 179.076 317.702L177.152 316.595C176.777 316.381 176.652 315.903 176.866 315.529C177.079 315.154 177.557 315.029 177.932 315.243L179.856 316.35C182.68 317.983 186.065 318.025 189.144 316.454C189.528 316.262 189.997 316.413 190.194 316.797C190.392 317.182 190.236 317.65 189.851 317.848C188.119 318.727 186.299 319.169 184.51 319.169Z" fill="white"/>
<path opacity="0.7" d="M300.747 76.4408C300.643 76.4408 300.533 76.42 300.435 76.3732C300.039 76.2015 299.863 75.7387 300.034 75.3435L301.085 72.9565C302.187 70.4603 302.718 67.7041 302.624 64.9843C302.608 64.5527 302.946 64.1939 303.378 64.1783C303.799 64.1627 304.169 64.5007 304.184 64.9323C304.288 67.8861 303.711 70.8815 302.515 73.5909L301.464 75.9779C301.329 76.2639 301.043 76.4408 300.747 76.4408Z" fill="white"/>
<path opacity="0.7" d="M302.649 61.1984C302.316 61.1984 302.004 60.98 301.906 60.6472C300.912 57.4074 298.962 54.8124 296.419 53.3459L293.413 51.6141C293.039 51.4009 292.914 50.9225 293.127 50.5481C293.34 50.1736 293.819 50.0488 294.193 50.262L297.199 51.9938C300.085 53.6579 302.285 56.5649 303.398 60.1896C303.523 60.6004 303.294 61.0372 302.883 61.162C302.8 61.188 302.722 61.1984 302.649 61.1984Z" fill="white"/>
</g>
<path d="M185.02 323.921C184.027 323.921 183.028 323.828 182.035 323.64L182.134 323.131C190.449 324.722 199.16 319.246 203.32 309.807L305.591 78.4683C310.75 66.7726 307.401 52.898 298.123 47.5416L221.012 3.0159C219.821 2.31385 215.718 1.20617 212.437 1.67421L212.364 1.15937C215.526 0.712135 219.821 1.71061 221.277 2.56867L298.389 47.0891C307.89 52.5756 311.332 66.7414 306.069 78.6763L203.799 310.015C200.034 318.549 192.602 323.921 185.02 323.921Z" fill="#B0B3B5"/>
<path d="M296.215 104.861C296.854 103.405 296.464 102.152 295.346 102.069C294.93 102.038 294.472 102.173 294.03 102.433C293.282 102.865 292.569 103.645 292.169 104.565L281.269 129.423C280.629 130.879 281.019 132.132 282.137 132.215C282.553 132.247 283.011 132.111 283.453 131.857C284.202 131.425 284.914 130.64 285.315 129.725L296.215 104.861Z" fill="#131C20"/>
<path d="M282.257 132.47C282.21 132.47 282.164 132.47 282.117 132.465C281.618 132.428 281.207 132.184 280.962 131.773C280.593 131.159 280.619 130.26 281.035 129.308L291.935 104.45C292.346 103.519 293.084 102.677 293.906 102.198C294.411 101.907 294.92 101.772 295.373 101.803C295.872 101.84 296.283 102.089 296.532 102.5C296.902 103.119 296.876 104.013 296.46 104.965L285.559 129.823C285.154 130.759 284.415 131.601 283.589 132.075C283.126 132.335 282.673 132.47 282.257 132.47ZM295.232 102.323C294.905 102.323 294.541 102.438 294.161 102.656C293.428 103.077 292.772 103.831 292.403 104.663L281.503 129.521C281.16 130.301 281.124 131.045 281.399 131.508C281.56 131.773 281.81 131.924 282.148 131.95C282.496 131.976 282.902 131.867 283.313 131.622C284.046 131.201 284.701 130.447 285.071 129.61L295.971 104.752C296.314 103.972 296.35 103.228 296.075 102.765C295.913 102.495 295.664 102.349 295.326 102.323C295.295 102.323 295.263 102.323 295.232 102.323Z" fill="#B0B3B5"/>
<path opacity="0.5" d="M269.49 68.8641C269.324 69.3894 269.121 69.9094 268.897 70.419L262.912 84.0024C260.54 89.3796 255.148 91.7406 250.873 89.2704L212 66.8256L234.133 46.7677L243.915 52.4205C247.082 54.251 251.07 52.4985 252.828 48.515L253.145 47.8026C253.561 46.8613 254.498 46.4557 255.236 46.8873L264.498 52.2333C269.537 55.1507 271.612 62.3532 269.49 68.8641Z" fill="url(#paint6_linear)"/>
<path d="M332.204 178.892C330.945 177.946 329.146 178.486 328.184 180.099C327.227 181.711 327.471 183.791 328.73 184.737C329.245 185.127 329.848 185.263 330.451 185.179C333.707 214.354 318.121 239.253 301.428 244.266C294.6 246.315 287.886 244.999 281.994 240.569C280.096 239.144 278.286 237.396 276.58 235.332C268.192 225.181 262.565 208.264 259.84 185.055C256.039 152.635 246.907 130.835 232.648 120.117C231.249 119.062 229.798 118.115 228.3 117.283C208.762 106.352 187.461 118.053 186.458 118.62C186.276 118.261 186.021 117.949 185.698 117.71C184.44 116.763 182.641 117.304 181.679 118.916C180.722 120.528 180.951 122.634 182.225 123.555C183.197 124.252 185.204 124.226 186.245 122.348C186.77 121.407 186.947 120.346 186.744 119.415C187.935 118.744 208.793 107.402 227.92 118.105C229.392 118.932 230.812 119.857 232.19 120.892C246.283 131.485 255.321 153.114 259.091 185.283C261.837 208.67 267.526 225.732 276.014 236.003C277.75 238.109 279.602 239.893 281.542 241.349C287.595 245.899 294.501 247.251 301.542 245.14C318.599 240.017 334.523 214.655 331.216 184.966C331.814 184.696 332.36 184.207 332.76 183.536C333.701 181.919 333.462 179.839 332.204 178.892ZM185.631 121.891C184.924 123.076 183.598 123.472 182.677 122.78C181.751 122.083 181.569 120.549 182.277 119.369C182.979 118.183 184.305 117.788 185.23 118.479C186.156 119.176 186.333 120.705 185.631 121.891ZM332.141 183.078C331.434 184.264 330.108 184.659 329.187 183.968C328.262 183.271 328.08 181.737 328.787 180.556C329.489 179.371 330.815 178.975 331.741 179.667C332.666 180.359 332.843 181.893 332.141 183.078Z" fill="url(#paint7_linear)"/>
<path opacity="0.5" d="M185.629 121.89C184.922 123.076 183.596 123.471 182.676 122.78C181.75 122.083 181.568 120.549 182.275 119.368C182.977 118.183 184.303 117.787 185.229 118.479C186.155 119.176 186.332 120.705 185.629 121.89Z" fill="white"/>
<path opacity="0.5" d="M332.141 183.078C331.434 184.264 330.108 184.659 329.187 183.967C328.262 183.27 328.08 181.736 328.787 180.556C329.489 179.37 330.815 178.975 331.741 179.667C332.666 180.358 332.843 181.892 332.141 183.078Z" fill="white"/>
<path opacity="0.6" d="M39.0272 223.376C38.2679 222.939 37.9871 221.806 38.4135 220.843C38.8348 219.887 39.7968 219.465 40.5561 219.902L55.0184 228.254C55.7828 228.696 56.0532 229.83 55.632 230.787C55.2108 231.749 54.2487 232.165 53.4895 231.728L39.0272 223.376ZM89.2629 252.379C88.5036 251.942 88.228 250.808 88.6492 249.846C89.0705 248.889 90.0325 248.468 90.7918 248.905L105.249 257.251C106.013 257.693 106.284 258.827 105.863 259.784C105.441 260.746 104.479 261.162 103.72 260.725L89.2629 252.379ZM42.085 216.444C41.3258 216.007 41.0501 214.868 41.4714 213.911C41.8926 212.949 42.8547 212.533 43.6139 212.97L63.183 224.265C63.9474 224.707 64.2178 225.836 63.7966 226.798C63.3754 227.755 62.4133 228.176 61.6541 227.739L42.085 216.444ZM92.3155 245.447C91.5563 245.01 91.2806 243.871 91.7019 242.914C92.1231 241.952 93.0852 241.536 93.8444 241.973L108.301 250.319C109.066 250.761 109.336 251.89 108.915 252.852C108.494 253.809 107.532 254.23 106.773 253.793L92.3155 245.447ZM19.8742 219.559C17.7056 218.306 16.9204 215.076 18.1269 212.346L22.49 202.455C23.6913 199.725 26.4267 198.529 28.6004 199.782L36.4582 204.322C38.6268 205.575 39.412 208.805 38.2055 211.535L33.8424 221.426C32.6411 224.156 29.9057 225.352 27.732 224.099L19.8742 219.559ZM70.1047 248.562C67.9361 247.308 67.1509 244.079 68.3573 241.349L72.7205 231.457C73.9218 228.727 76.6572 227.531 78.8309 228.784L86.6887 233.324C88.8573 234.578 89.6425 237.807 88.436 240.537L84.0729 250.428C82.8716 253.159 80.1362 254.355 77.9625 253.101L70.1047 248.562ZM52.829 192.085C52.0697 191.649 51.7889 190.515 52.2154 189.553C52.6366 188.596 53.5987 188.175 54.3579 188.612L68.815 196.958C69.5794 197.4 69.8499 198.534 69.4286 199.491C69.0074 200.453 68.0453 200.869 67.2861 200.432L52.829 192.085ZM103.06 221.088C102.3 220.651 102.025 219.517 102.446 218.555C102.867 217.598 103.829 217.177 104.588 217.614L119.045 225.961C119.81 226.403 120.08 227.536 119.659 228.493C119.238 229.455 118.276 229.871 117.517 229.435L103.06 221.088ZM55.8868 185.153C55.1276 184.716 54.8468 183.583 55.2732 182.621C55.6944 181.664 56.6565 181.248 57.4157 181.685L76.9848 192.98C77.7492 193.422 78.0197 194.55 77.5984 195.507C77.1772 196.469 76.2151 196.885 75.4559 196.448L55.8868 185.153ZM106.117 214.151C105.358 213.714 105.082 212.58 105.504 211.618C105.925 210.661 106.887 210.245 107.646 210.682L122.103 219.029C122.868 219.471 123.138 220.599 122.717 221.556C122.296 222.518 121.334 222.934 120.574 222.497L106.117 214.151ZM33.6708 188.268C31.5022 187.015 30.717 183.786 31.9235 181.055L36.2866 171.164C37.4931 168.429 40.2233 167.238 42.397 168.491L50.2548 173.031C52.4234 174.284 53.2086 177.509 52.0021 180.244L47.639 190.135C46.4377 192.865 43.7023 194.062 41.5286 192.808L33.6708 188.268ZM83.9065 217.271C81.7379 216.018 80.9527 212.788 82.1592 210.058L86.5223 200.167C87.7288 197.431 90.459 196.24 92.6327 197.494L100.491 202.034C102.659 203.287 103.444 206.511 102.238 209.247L97.8747 219.138C96.6734 221.868 93.938 223.064 91.7643 221.811L83.9065 217.271ZM88.8521 177.186C91.7747 178.871 94.9573 179.953 98.2804 180.358C104.042 181.066 109.981 179.729 115.379 176.5C119.867 173.822 123.819 169.932 126.934 165.179C127.928 163.66 129.607 163.046 130.928 163.811C131.012 163.858 131.09 163.91 131.168 163.967C132.52 164.96 132.868 167.165 131.833 168.793C128.063 174.737 123.201 179.578 117.662 182.891C111.214 186.745 104.12 188.346 97.2351 187.504C93.2672 187.015 89.4605 185.725 85.971 183.713C83.4073 182.231 81.0151 180.364 78.8465 178.128C74.4522 173.598 71.1499 167.753 69.2102 161.112C68.6798 159.287 69.6523 157.248 71.2384 156.614C72.0132 156.302 72.7933 156.39 73.4485 156.77C74.135 157.165 74.6914 157.882 74.9774 158.808C76.6156 164.144 79.3198 168.855 82.882 172.516C84.7022 174.383 86.7043 175.949 88.8521 177.186ZM68.7682 153.166C68.0089 152.724 67.4577 151.855 67.3797 150.722C66.6776 140.742 68.8618 130.461 73.6201 121.646C78.3733 112.832 85.3678 106.087 93.3868 102.504C94.1096 102.181 94.8325 102.244 95.4357 102.592C96.143 102.998 96.6786 103.798 96.8606 104.823C97.1935 106.726 96.1534 108.697 94.5933 109.425C88.0772 112.473 82.3984 118.027 78.5137 125.234C74.6238 132.447 72.7881 140.825 73.2509 148.995C73.3653 150.961 72.2888 152.9 70.6767 153.374C69.9903 153.577 69.3246 153.483 68.7682 153.166ZM134.069 158.324C132.92 157.664 132.457 155.984 132.93 154.435C135.057 147.492 135.546 140.087 134.314 133.092C133.087 126.103 130.19 119.868 126.004 115.099C125.031 113.996 124.912 112.103 125.822 110.757C126.586 109.623 127.834 109.243 128.796 109.795C128.978 109.899 129.15 110.039 129.306 110.211C134.314 115.775 137.772 123.133 139.233 131.402C140.689 139.666 140.065 148.433 137.476 156.619C136.971 158.22 135.463 159.001 134.215 158.397C134.163 158.376 134.116 158.35 134.069 158.324ZM101.369 106.633C100.517 106.144 99.8977 105.197 99.7781 103.975C99.5908 102.03 100.756 100.132 102.394 99.9138C108.364 99.1181 114.298 100.106 119.659 102.784C119.701 102.805 119.742 102.826 119.779 102.852C121.152 103.642 121.557 105.738 120.746 107.465C119.909 109.243 118.094 109.945 116.612 109.243C112.384 107.226 107.75 106.456 103.075 106.986C102.461 107.059 101.874 106.929 101.369 106.633ZM174.913 107.2L86.6679 56.2514C82.1488 53.6408 76.4492 56.1422 73.9426 61.8262L5.31831 217.432C2.10448 224.718 4.18983 233.324 9.97785 236.668L93.6364 284.969C99.4244 288.313 106.721 285.115 109.929 277.834L178.548 122.223C181.065 116.539 179.432 109.805 174.913 107.2Z" fill="url(#paint8_linear)"/>
<path opacity="0.2" d="M137.476 156.619C136.971 158.221 135.463 159.001 134.215 158.398C134.168 158.372 134.116 158.351 134.075 158.32C132.926 157.659 132.463 155.98 132.936 154.43C135.063 147.487 135.552 140.082 134.319 133.088C133.092 126.098 130.195 119.863 126.009 115.094C125.037 113.992 124.917 112.099 125.827 110.752C126.591 109.618 127.84 109.239 128.802 109.79C128.984 109.894 129.155 110.034 129.311 110.206C134.319 115.77 137.778 123.129 139.239 131.397C140.685 139.671 140.066 148.434 137.476 156.619ZM101.37 106.633C101.879 106.924 102.467 107.054 103.075 106.987C107.751 106.451 112.379 107.221 116.612 109.244C118.094 109.946 119.909 109.244 120.746 107.465C121.558 105.744 121.152 103.648 119.779 102.853C119.737 102.832 119.701 102.806 119.659 102.785C114.298 100.102 108.364 99.1187 102.394 99.9143C100.756 100.133 99.5911 102.031 99.7783 103.976C99.8927 105.198 100.517 106.144 101.37 106.633ZM70.6718 153.374C72.2839 152.901 73.3604 150.956 73.246 148.996C72.7831 140.826 74.6189 132.448 78.5088 125.235C82.3934 118.022 88.0775 112.468 94.5883 109.426C96.1485 108.693 97.1885 106.727 96.8557 104.823C96.6789 103.799 96.1381 102.998 95.4308 102.593C94.8276 102.244 94.1047 102.182 93.3819 102.504C85.3681 106.082 78.3683 112.827 73.6152 121.647C68.8568 130.461 66.6727 140.743 67.3747 150.722C67.4527 151.856 68.004 152.724 68.7632 153.166C69.3249 153.483 69.9905 153.577 70.6718 153.374ZM131.168 163.967C131.09 163.91 131.007 163.858 130.929 163.811C129.608 163.052 127.928 163.666 126.935 165.179C123.82 169.932 119.867 173.817 115.379 176.5C109.981 179.73 104.043 181.066 98.2806 180.359C94.9576 179.953 91.7749 178.872 88.8523 177.187C86.7098 175.949 84.7024 174.384 82.8875 172.512C79.3252 168.845 76.621 164.139 74.9829 158.803C74.6969 157.883 74.1404 157.165 73.454 156.765C72.7935 156.385 72.0187 156.297 71.2438 156.609C69.6577 157.243 68.6852 159.282 69.2157 161.107C71.1554 167.748 74.4577 173.599 78.852 178.123C81.0205 180.359 83.4127 182.226 85.9765 183.708C89.466 185.721 93.2674 187.01 97.2405 187.499C104.126 188.342 111.219 186.745 117.668 182.886C123.206 179.579 128.068 174.732 131.839 168.788C132.868 167.166 132.52 164.961 131.168 163.967Z" fill="url(#paint9_linear)"/>
<path opacity="0.4" d="M76.9805 192.98C77.745 193.422 78.0154 194.551 77.5942 195.508C77.173 196.47 76.2109 196.886 75.4516 196.449L55.8826 185.154C55.1233 184.717 54.8425 183.583 55.2689 182.621C55.6902 181.664 56.6522 181.248 57.4115 181.685L76.9805 192.98ZM68.8159 196.964L54.3589 188.617C53.5996 188.18 52.6376 188.602 52.2163 189.558C51.7951 190.52 52.0707 191.649 52.83 192.091L67.287 200.438C68.0515 200.88 69.0084 200.458 69.4296 199.496C69.8508 198.534 69.5804 197.401 68.8159 196.964ZM119.052 225.966L104.595 217.62C103.835 217.183 102.873 217.604 102.452 218.561C102.031 219.523 102.306 220.651 103.066 221.094L117.523 229.44C118.287 229.882 119.244 229.461 119.665 228.499C120.087 227.537 119.811 226.403 119.052 225.966ZM108.308 250.325L93.8506 241.978C93.0913 241.541 92.1293 241.957 91.708 242.92C91.2868 243.876 91.5624 245.01 92.3217 245.452L106.779 253.799C107.543 254.241 108.5 253.814 108.921 252.857C109.343 251.895 109.072 250.767 108.308 250.325ZM50.2506 173.032L42.3928 168.492C40.2242 167.238 37.4888 168.434 36.2823 171.165L31.9192 181.056C30.7179 183.786 31.498 187.015 33.6665 188.269L41.5243 192.809C43.6929 194.062 46.4283 192.861 47.6348 190.136L51.9979 180.245C53.2044 177.509 52.4243 174.285 50.2506 173.032ZM63.1839 224.271L43.6149 212.976C42.8556 212.539 41.8936 212.955 41.4723 213.917C41.0511 214.874 41.3267 216.008 42.086 216.45L61.655 227.745C62.4195 228.187 63.3763 227.76 63.7976 226.804C64.2188 225.841 63.9484 224.713 63.1839 224.271ZM55.0193 228.254L40.5623 219.908C39.803 219.471 38.8409 219.892 38.4197 220.849C37.9985 221.811 38.2741 222.94 39.0333 223.382L53.4904 231.728C54.2549 232.17 55.2117 231.749 55.633 230.787C56.0542 229.83 55.7786 228.691 55.0193 228.254ZM36.454 204.322L28.5962 199.782C26.4276 198.529 23.6922 199.73 22.4857 202.455L18.1226 212.346C16.9213 215.077 17.7014 218.306 19.8699 219.559L27.7277 224.099C29.8963 225.353 32.6317 224.151 33.8382 221.426L38.2013 211.535C39.4078 208.805 38.6225 205.576 36.454 204.322ZM122.104 219.034L107.647 210.688C106.888 210.251 105.926 210.667 105.505 211.624C105.083 212.586 105.359 213.714 106.118 214.156L120.575 222.503C121.34 222.945 122.297 222.524 122.718 221.562C123.144 220.605 122.869 219.476 122.104 219.034ZM100.486 202.034L92.6285 197.494C90.4599 196.241 87.7245 197.437 86.518 200.167L82.1549 210.058C80.9536 212.789 81.7337 216.018 83.9023 217.271L91.76 221.811C93.9286 223.064 96.664 221.863 97.8705 219.138L102.234 209.247C103.44 206.512 102.655 203.287 100.486 202.034ZM105.25 257.257L90.7928 248.91C90.0335 248.474 89.0714 248.895 88.6502 249.852C88.229 250.814 88.5046 251.942 89.2638 252.384L103.721 260.731C104.485 261.173 105.442 260.752 105.863 259.79C106.285 258.833 106.014 257.694 105.25 257.257ZM86.6897 233.325L78.8319 228.785C76.6633 227.532 73.9279 228.733 72.7214 231.458L68.3583 241.349C67.157 244.079 67.9371 247.309 70.1056 248.562L77.9634 253.102C80.132 254.355 82.8674 253.154 84.0739 250.429L88.437 240.538C89.6383 237.808 88.8582 234.578 86.6897 233.325Z" fill="url(#paint10_linear)"/>
<path d="M98.5458 286.816C96.7464 286.816 94.9835 286.348 93.3818 285.423L9.71802 237.121C3.71678 233.658 1.53262 224.734 4.84006 217.225L73.4591 61.6136C74.8632 58.4258 77.3126 56.0596 80.178 55.1236C82.4766 54.3747 84.8688 54.6139 86.9177 55.7944L175.163 106.743C179.901 109.478 181.632 116.514 179.022 122.432L110.413 278.043C108.629 282.084 105.525 285.084 101.9 286.27C100.787 286.634 99.6587 286.816 98.5458 286.816ZM82.8354 55.7372C82.0605 55.7372 81.2805 55.862 80.5056 56.1116C77.9211 56.9593 75.7005 59.1175 74.4108 62.0349L5.79693 217.646C2.69231 224.682 4.68925 233.013 10.2433 236.222L93.907 284.523C96.2368 285.87 98.9618 286.14 101.578 285.282C104.927 284.19 107.802 281.397 109.461 277.627L178.08 122.016C180.483 116.571 178.944 110.128 174.653 107.647L86.4081 56.6993C85.3004 56.0596 84.0783 55.7372 82.8354 55.7372Z" fill="url(#paint11_linear)"/>
<path d="M72.7152 98.4493C72.8972 98.5533 73.0688 98.6938 73.2248 98.8654C78.2328 104.43 81.691 111.788 83.1523 120.057C84.6084 128.32 83.9844 137.088 81.3946 145.274C80.8902 146.875 79.3821 147.655 78.134 147.052C78.0872 147.026 78.0352 147.005 77.9884 146.974C76.8443 146.314 76.3762 144.634 76.8495 143.084C78.9764 136.142 79.4653 128.736 78.2328 121.742C77.0055 114.753 74.1089 108.517 69.9226 103.749C68.9501 102.646 68.8305 100.753 69.7406 99.4062C70.505 98.2777 71.7531 97.8929 72.7152 98.4493Z" fill="url(#paint12_linear)"/>
<path d="M63.6983 91.5068C63.6567 91.486 63.6203 91.46 63.5787 91.4392C58.2171 88.7558 52.2834 87.773 46.3134 88.5686C44.6753 88.787 43.5104 90.6852 43.6976 92.6301C43.8172 93.847 44.4361 94.7935 45.2889 95.2875C45.7986 95.5787 46.3862 95.7088 46.9947 95.6411C51.6698 95.1055 56.2981 95.8752 60.5312 97.8981C62.0134 98.6002 63.8283 97.8981 64.6656 96.1196C65.4768 94.3931 65.0712 92.2973 63.6983 91.5068ZM39.3553 91.2416C40.0625 91.6473 40.5982 92.4481 40.7802 93.4726C41.113 95.3759 40.0729 97.3469 38.5128 98.0749C31.9967 101.122 26.3179 106.676 22.4332 113.884C18.5434 121.097 16.7076 129.475 17.1705 137.645C17.2849 139.61 16.2084 141.55 14.5963 142.023C13.915 142.226 13.2494 142.133 12.6929 141.81C11.9337 141.368 11.3824 140.5 11.3044 139.366C10.6024 129.386 12.7865 119.105 17.5449 110.291C22.298 101.476 29.2925 94.7311 37.3115 91.148C38.0292 90.8308 38.752 90.8932 39.3553 91.2416ZM74.8479 152.461C74.9311 152.507 75.0091 152.559 75.0871 152.617C76.4392 153.61 76.7876 155.815 75.7528 157.442C71.9825 163.387 67.1201 168.228 61.5817 171.541C55.1333 175.394 48.0399 176.996 41.1546 176.153C37.1867 175.665 33.38 174.375 29.8906 172.362C27.3268 170.88 24.9346 169.013 22.7661 166.777C18.3717 162.248 15.0695 156.402 13.1298 149.762C12.5993 147.936 13.5718 145.898 15.1579 145.263C15.9328 144.951 16.7128 145.04 17.3681 145.419C18.0545 145.814 18.611 146.532 18.897 147.458C20.5351 152.793 23.2393 157.505 26.8016 161.166C28.6165 163.038 30.6186 164.603 32.7664 165.841C35.689 167.526 38.8717 168.608 42.1947 169.013C47.9567 169.721 53.8956 168.384 59.2936 165.155C63.7815 162.476 67.7338 158.587 70.8488 153.833C71.8421 152.315 73.527 151.701 74.8479 152.461Z" fill="#131C20"/>
<path d="M10.2498 170.203L9.57896 170.885C0.0154527 156.719 -2.58474 136.796 2.67285 118.548C2.19441 118.122 2.0436 117.3 2.35563 116.598C2.70925 115.802 3.49971 115.459 4.12896 115.818C4.7582 116.182 4.98702 117.118 4.63859 117.914C4.39418 118.465 3.93134 118.803 3.46331 118.829C-1.69027 136.744 0.863115 156.298 10.2498 170.203ZM66.9288 180.589C66.8456 180.495 66.7468 180.412 66.6376 180.349C66.0083 179.985 65.2127 180.334 64.8642 181.13C64.5158 181.92 64.7446 182.861 65.3739 183.225C66.0031 183.589 66.7988 183.241 67.1472 182.445C67.2876 182.128 67.3344 181.79 67.298 181.473C73.9753 176.808 79.7685 170.302 84.1212 162.575L83.4348 162.044C79.1653 169.621 73.4761 176.007 66.9288 180.589ZM89.436 108.215C85.4681 96.7897 78.1928 87.5642 68.9569 82.2286L68.5461 83.1595C86.9607 93.7943 95.9001 118.428 90.5073 143.354C90.0445 143.396 89.5973 143.728 89.358 144.269C89.0096 145.06 89.2384 145.996 89.8677 146.36C90.4969 146.724 91.2926 146.381 91.641 145.585C91.9582 144.872 91.8022 144.035 91.303 143.609C93.8876 131.679 93.2323 119.151 89.436 108.215ZM40.5888 77.6003C39.9596 77.2363 39.1639 77.5795 38.8155 78.3751C38.7583 78.5051 38.7167 78.6352 38.6907 78.7704C29.8657 81.3862 21.7479 86.8986 15.1434 94.7667L15.7154 95.4688C22.1795 87.7618 30.1257 82.3586 38.7635 79.7844C38.8727 80.0809 39.0651 80.3253 39.3251 80.4761C39.9544 80.8401 40.7501 80.4969 41.0985 79.696C41.4469 78.9004 41.2181 77.9643 40.5888 77.6003Z" fill="#006ad3"/>
<defs fill="#000000">
<linearGradient id="paint0_linear" x1="291.849" y1="134.485" x2="431.348" y2="134.485" gradientUnits="userSpaceOnUse" fill="#000000">
<stop stop-color="#FBFBFB" fill="#000000"/>
<stop offset="1" stop-color="#D3E2F5" fill="#000000"/>
</linearGradient>
<linearGradient id="paint1_linear" x1="291.335" y1="119.322" x2="443.006" y2="119.322" gradientUnits="userSpaceOnUse" fill="#000000">
<stop stop-color="#152329" fill="#000000"/>
<stop offset="1" stop-color="#36444A" fill="#000000"/>
</linearGradient>
<linearGradient id="paint2_linear" x1="91.3969" y1="162.799" x2="312.425" y2="162.799" gradientUnits="userSpaceOnUse" fill="#000000">
<stop stop-color="#525251" fill="#000000"/>
<stop offset="1" stop-color="#131C20" fill="#000000"/>
</linearGradient>
<linearGradient id="paint3_linear" x1="99.3713" y1="162.084" x2="295.224" y2="162.084" gradientUnits="userSpaceOnUse" fill="#000000">
<stop stop-color="#152329" fill="#000000"/>
<stop offset="1" stop-color="#36444A" fill="#000000"/>
</linearGradient>
<linearGradient id="paint4_linear" x1="90.2865" y1="325.027" x2="275.124" y2="161.517" gradientUnits="userSpaceOnUse" fill="#000000">
<stop stop-color="white" stop-opacity="0" fill="#000000"/>
<stop offset="1" stop-color="#DCE7F5" fill="#000000"/>
</linearGradient>
<linearGradient id="paint5_linear" x1="169.052" y1="49.5626" x2="270.318" y2="49.5626" gradientUnits="userSpaceOnUse" fill="#000000">
<stop stop-color="#005fbe" fill="#000000"/>
<stop offset="1" stop-color="#006ad3" fill="#000000"/>
</linearGradient>
<linearGradient id="paint6_linear" x1="99.7234" y1="177.279" x2="480.164" y2="-106.382" gradientUnits="userSpaceOnUse" fill="#000000">
<stop offset="0.0963" stop-color="white" stop-opacity="0" fill="#000000"/>
<stop offset="1" stop-color="white" fill="#000000"/>
</linearGradient>
<linearGradient id="paint7_linear" x1="340.315" y1="240.564" x2="182.858" y2="97.6137" gradientUnits="userSpaceOnUse" fill="#000000">
<stop stop-color="#006ad3" fill="#000000"/>
<stop offset="1" stop-color="#005fbe" fill="#000000"/>
</linearGradient>
<linearGradient id="paint8_linear" x1="3.81051" y1="170.755" x2="179.734" y2="170.755" gradientUnits="userSpaceOnUse" fill="#000000">
<stop stop-color="#FBFBFB" fill="#000000"/>
<stop offset="1" stop-color="#D3E2F5" fill="#000000"/>
</linearGradient>
<linearGradient id="paint9_linear" x1="67.2522" y1="143.685" x2="139.999" y2="143.685" gradientUnits="userSpaceOnUse" fill="#000000">
<stop stop-color="#152329" fill="#000000"/>
<stop offset="1" stop-color="#36444A" fill="#000000"/>
</linearGradient>
<linearGradient id="paint10_linear" x1="17.5603" y1="214.449" x2="122.92" y2="214.449" gradientUnits="userSpaceOnUse" fill="#000000">
<stop stop-color="#152329" fill="#000000"/>
<stop offset="1" stop-color="#36444A" fill="#000000"/>
</linearGradient>
<linearGradient id="paint11_linear" x1="3.29898" y1="170.755" x2="180.248" y2="170.755" gradientUnits="userSpaceOnUse" fill="#000000">
<stop stop-color="#152329" fill="#000000"/>
<stop offset="1" stop-color="#36444A" fill="#000000"/>
</linearGradient>
<linearGradient id="paint12_linear" x1="69.1248" y1="122.725" x2="83.9197" y2="122.725" gradientUnits="userSpaceOnUse" fill="#000000">
<stop stop-color="#006ad3" fill="#000000"/>
<stop offset="1" stop-color="#005fbe" fill="#000000"/>
</linearGradient>
</defs>
</svg>