<svg width="173" height="57" viewBox="0 0 173 57" fill="none" xmlns="http://www.w3.org/2000/svg">
    <rect width="173" height="57" rx="10" fill="#152329"/>
    <path fill-rule="evenodd" clip-rule="evenodd" d="M60.8115 31.8465V34.1752H66.3547C66.2677 35.272 65.8155 36.307 65.0715 37.112C63.9501 38.2637 62.3981 38.8839 60.7986 38.8197C57.397 38.8197 54.6395 36.0394 54.6395 32.6098C54.6395 29.1802 57.397 26.3999 60.7986 26.3999C62.3612 26.3742 63.8702 26.9744 64.9945 28.0688L66.6241 26.4258C65.0907 24.8602 62.9937 23.9874 60.8115 24.0065C57.7049 23.8846 54.7812 25.4861 53.1919 28.1801C51.6027 30.8742 51.6027 34.229 53.1919 36.923C54.7812 39.6171 57.7049 41.2186 60.8115 41.0967C63.0336 41.1979 65.1905 40.3252 66.7268 38.7033C68.0711 37.2141 68.7889 35.2565 68.7285 33.2437C68.7326 32.7534 68.6897 32.2638 68.6002 31.7818L60.8115 31.8465ZM75.0416 30.1516C72.0315 30.1588 69.5964 32.6236 69.6011 35.6586C69.6058 38.6936 72.0486 41.1507 75.0587 41.1483C78.0689 41.1459 80.5078 38.685 80.5078 35.65C80.529 34.1808 79.9577 32.7659 78.9248 31.7293C77.8919 30.6928 76.4859 30.1234 75.0288 30.1516H75.0416ZM81.5601 35.6672C81.5507 32.6339 83.9793 30.1659 86.9878 30.1516C88.4448 30.1234 89.8508 30.6928 90.8838 31.7293C91.9167 32.7659 92.488 34.1808 92.4668 35.65C92.4668 38.6833 90.0304 41.1435 87.022 41.1483C84.0135 41.153 81.5695 38.7004 81.5601 35.6672ZM83.7692 37.0968C84.3552 38.3334 85.6314 39.0832 86.9874 38.9876C87.8385 38.9677 88.6455 38.6021 89.2253 37.9736C89.8052 37.3451 90.1087 36.5071 90.0669 35.6498C90.0636 34.2793 89.2297 33.0501 87.9641 32.5501C86.6984 32.0502 85.2583 32.3811 84.3325 33.3845C83.4066 34.388 83.1833 35.8601 83.7692 37.0968ZM71.815 37.1067C72.4051 38.3426 73.685 39.0887 75.0417 38.9877H75.0289C75.88 38.9678 76.687 38.6021 77.2668 37.9736C77.8467 37.3452 78.1502 36.5072 78.1084 35.6499C78.1047 34.2783 77.2692 33.0486 76.0019 32.5497C74.7347 32.0508 73.2938 32.3844 72.3693 33.3906C71.4448 34.3968 71.2249 35.8709 71.815 37.1067ZM114.28 30.1516C116.408 30.2306 118.266 31.6255 118.951 33.6576L119.22 34.2398L111.919 37.2801C112.377 38.3308 113.425 38.9927 114.563 38.949C115.661 38.9518 116.68 38.3719 117.244 37.4224L119.105 38.7161C118.092 40.2446 116.386 41.1582 114.563 41.1483C113.113 41.1698 111.718 40.5961 110.697 39.5591C109.675 38.5221 109.116 37.111 109.148 35.65C109.059 34.2224 109.56 32.8214 110.533 31.7798C111.505 30.7382 112.862 30.1488 114.28 30.1516ZM111.508 35.4946C111.456 34.6863 111.728 33.8906 112.264 33.287C112.8 32.6834 113.554 32.3227 114.357 32.2862C115.203 32.23 116.001 32.6881 116.384 33.4505L111.508 35.4946ZM107.98 40.8249H105.58V24.6533H107.98V40.8249ZM101.654 31.3808H101.564C100.833 30.5562 99.7874 30.0856 98.6902 30.087C95.7777 30.2294 93.4888 32.6518 93.4888 35.5919C93.4888 38.5319 95.7777 40.9543 98.6902 41.0967C99.7909 41.1153 100.843 40.6416 101.564 39.8029H101.641V40.5921C101.641 42.7009 100.525 43.8264 98.7287 43.8264C97.505 43.7976 96.42 43.0257 95.9828 41.8729L93.8912 42.7526C94.6967 44.7279 96.6105 46.0127 98.7287 45.9999C101.539 45.9999 103.861 44.331 103.861 40.2687V30.4752H101.654V31.3808ZM98.9041 38.9874L98.9081 38.9878H98.8952L98.9041 38.9874ZM101.066 37.9499C100.516 38.5782 99.7347 38.9528 98.9041 38.9874C97.1903 38.8331 95.8765 37.3852 95.8765 35.6499C95.8765 33.9134 97.1923 32.4646 98.9081 32.3121C99.7371 32.355 100.514 32.7336 101.062 33.362C101.611 33.9904 101.884 34.8154 101.821 35.6499C101.892 36.4883 101.619 37.3194 101.066 37.9499ZM130.192 24.6534H124.456V40.8251H126.856V34.6928H130.205C132.069 34.8278 133.851 33.9017 134.824 32.2929C135.797 30.6841 135.797 28.6621 134.824 27.0533C133.851 25.4445 132.069 24.5184 130.205 24.6534H130.192ZM126.842 32.4158H130.191L130.243 32.4546C131.763 32.4546 132.995 31.2121 132.995 29.6795C132.995 28.1469 131.763 26.9045 130.243 26.9045H126.842V32.4158ZM144.986 30.0873C143.201 29.9797 141.522 30.9503 140.713 32.5583L142.843 33.4509C143.272 32.6536 144.128 32.1868 145.024 32.2607C145.64 32.1883 146.258 32.3681 146.741 32.7597C147.223 33.1514 147.53 33.7221 147.591 34.3436V34.5118C146.82 34.1004 145.961 33.8871 145.089 33.8908C142.792 33.8908 140.469 35.1845 140.469 37.5262C140.515 38.5349 140.964 39.4821 141.713 40.1522C142.462 40.8223 143.448 41.1584 144.447 41.084C145.678 41.1731 146.859 40.5777 147.527 39.5315H147.604V40.8252H149.913V34.6024C149.913 31.7691 147.783 30.1261 145.05 30.1261L144.986 30.0873ZM142.817 37.578C142.817 38.5483 143.908 38.9494 144.69 38.9494L144.754 38.9882C146.2 38.9527 147.399 37.849 147.565 36.4007C146.899 36.0261 146.145 35.8384 145.383 35.8574C144.177 35.8574 142.817 36.2843 142.817 37.578ZM158.331 30.4751L155.585 37.4871H155.508L152.659 30.4751H150.093L154.366 40.2815L151.928 45.7281H154.43L161 30.4751H158.331ZM139.161 40.8249H136.761V24.6533H139.161V40.8249Z" fill="white"/>
    <path fill-rule="evenodd" clip-rule="evenodd" d="M87.8483 18.8383C89.4139 20.3806 91.9432 20.3806 93.5089 18.8383C95.0331 17.2494 95.0331 14.7561 93.5089 13.1673C92.7601 12.4202 91.7413 12 90.6786 12C89.6158 12 88.597 12.4202 87.8483 13.1673C86.3305 14.7587 86.3305 17.2469 87.8483 18.8383ZM58.8512 18.8634C59.5115 18.1805 59.8602 17.2593 59.816 16.3147C59.8161 16.1224 59.7989 15.9305 59.7646 15.7412H56.0209V16.6588H58.8126C58.7935 17.2367 58.5652 17.7885 58.1693 18.2135C57.2875 19.0578 55.9796 19.2938 54.8539 18.8115C53.7283 18.3293 53.0061 17.2235 53.0233 16.0088C52.9953 15.205 53.2991 14.4245 53.8647 13.8474C54.4303 13.2703 55.2089 12.9464 56.0209 12.9503C56.8286 12.9066 57.6101 13.2417 58.1307 13.8551L58.8126 13.1797C58.4832 12.8045 58.0688 12.5118 57.6033 12.3258C57.1032 12.1139 56.5647 12.0055 56.0209 12.0073C54.9538 11.9837 53.9246 12.3989 53.1777 13.1542C52.0283 14.3003 51.6844 16.0172 52.3051 17.5112C52.9257 19.0052 54.39 19.985 56.0209 19.9976C57.0841 20.0351 58.1133 19.6227 58.8512 18.8634ZM62.2343 13.1291H65.7078V12.186H61.2051V19.8323H65.7078V18.8893H62.2343V16.4679H65.3991V15.5504H62.2343V13.1291ZM69.9273 19.8323H68.9367V13.1291H66.7754V12.186H72.1401V13.1291H69.9273V19.8323ZM75.9224 12.186V19.8323H76.913V12.186H75.9224ZM81.3135 19.8323H80.3229V13.1291H78.1616V12.186H83.462V13.1291H81.3135V19.8323ZM88.5821 18.2009C89.7417 19.3448 91.6166 19.3448 92.7761 18.2009C93.9149 16.9574 93.9149 15.0606 92.7761 13.8171C91.6166 12.6732 89.7417 12.6732 88.5821 13.8171C87.4433 15.0606 87.4433 16.9574 88.5821 18.2009ZM96.0435 12.186V19.8323H97.0469V13.6006L100.971 19.8323H102V12.186H101.009V18.1374L97.2528 12.186H96.0435Z" fill="white"/>
    <path d="M93.5089 18.8383L93.5791 18.9096L93.581 18.9075L93.5089 18.8383ZM87.8483 18.8383L87.7759 18.9073L87.7781 18.9095L87.8483 18.8383ZM93.5089 13.1673L93.581 13.098L93.5795 13.0965L93.5089 13.1673ZM87.8483 13.1673L87.7776 13.0965L87.7759 13.0983L87.8483 13.1673ZM59.816 16.3147L59.7159 16.3146L59.7162 16.3193L59.816 16.3147ZM58.8512 18.8634L58.9229 18.9331L58.9231 18.9329L58.8512 18.8634ZM59.7646 15.7412L59.863 15.7234L59.8481 15.6412H59.7646V15.7412ZM56.0209 15.7412V15.6412H55.9209V15.7412H56.0209ZM56.0209 16.6588H55.9209V16.7588H56.0209V16.6588ZM58.8126 16.6588L58.9125 16.662L58.9159 16.5588H58.8126V16.6588ZM58.1693 18.2135L58.2386 18.2858L58.2425 18.2817L58.1693 18.2135ZM53.0233 16.0088L53.1234 16.0102L53.1233 16.0053L53.0233 16.0088ZM53.8647 13.8474L53.7933 13.7774L53.8647 13.8474ZM56.0209 12.9503L56.0204 13.0505L56.0263 13.0501L56.0209 12.9503ZM58.1307 13.8551L58.0545 13.9198L58.1244 14.0022L58.2011 13.9262L58.1307 13.8551ZM58.8126 13.1797L58.8829 13.2507L58.9498 13.1845L58.8877 13.1137L58.8126 13.1797ZM57.6033 12.3258L57.5642 12.4179L57.5662 12.4187L57.6033 12.3258ZM56.0209 12.0073L56.0187 12.1073L56.0212 12.1073L56.0209 12.0073ZM53.1777 13.1542L53.2483 13.225L53.2488 13.2245L53.1777 13.1542ZM56.0209 19.9976L56.0244 19.8977L56.0216 19.8976L56.0209 19.9976ZM65.7078 13.1291V13.2291H65.8078V13.1291H65.7078ZM62.2343 13.1291V13.0291H62.1343V13.1291H62.2343ZM65.7078 12.186H65.8078V12.086H65.7078V12.186ZM61.2051 12.186V12.086H61.1051V12.186H61.2051ZM61.2051 19.8323H61.1051V19.9323H61.2051V19.8323ZM65.7078 19.8323V19.9323H65.8078V19.8323H65.7078ZM65.7078 18.8893H65.8078V18.7893H65.7078V18.8893ZM62.2343 18.8893H62.1343V18.9893H62.2343V18.8893ZM62.2343 16.4679V16.3679H62.1343V16.4679H62.2343ZM65.3991 16.4679V16.5679H65.4991V16.4679H65.3991ZM65.3991 15.5504H65.4991V15.4504H65.3991V15.5504ZM62.2343 15.5504H62.1343V15.6504H62.2343V15.5504ZM68.9367 19.8323H68.8367V19.9323H68.9367V19.8323ZM69.9273 19.8323V19.9323H70.0273V19.8323H69.9273ZM68.9367 13.1291H69.0367V13.0291H68.9367V13.1291ZM66.7754 13.1291H66.6754V13.2291H66.7754V13.1291ZM66.7754 12.186V12.086H66.6754V12.186H66.7754ZM72.1401 12.186H72.2401V12.086H72.1401V12.186ZM72.1401 13.1291V13.2291H72.2401V13.1291H72.1401ZM69.9273 13.1291V13.0291H69.8273V13.1291H69.9273ZM75.9224 19.8323H75.8224V19.9323H75.9224V19.8323ZM75.9224 12.186V12.086H75.8224V12.186H75.9224ZM76.913 19.8323V19.9323H77.013V19.8323H76.913ZM76.913 12.186H77.013V12.086H76.913V12.186ZM80.3229 19.8323H80.2229V19.9323H80.3229V19.8323ZM81.3135 19.8323V19.9323H81.4135V19.8323H81.3135ZM80.3229 13.1291H80.4229V13.0291H80.3229V13.1291ZM78.1616 13.1291H78.0616V13.2291H78.1616V13.1291ZM78.1616 12.186V12.086H78.0616V12.186H78.1616ZM83.462 12.186H83.562V12.086H83.462V12.186ZM83.462 13.1291V13.2291H83.562V13.1291H83.462ZM81.3135 13.1291V13.0291H81.2135V13.1291H81.3135ZM92.7761 18.2009L92.8464 18.2722L92.8499 18.2685L92.7761 18.2009ZM88.5821 18.2009L88.5083 18.2686L88.5119 18.2721L88.5821 18.2009ZM92.7761 13.8171L92.85 13.7494L92.8463 13.7459L92.7761 13.8171ZM88.5821 13.8171L88.5118 13.7458L88.5084 13.7495L88.5821 13.8171ZM96.0435 19.8323H95.9435V19.9323H96.0435V19.8323ZM96.0435 12.186V12.086H95.9435V12.186H96.0435ZM97.0469 19.8323V19.9323H97.1469V19.8323H97.0469ZM97.0469 13.6006L97.1315 13.5473L96.9469 13.2541V13.6006H97.0469ZM100.971 19.8323L100.886 19.8856L100.916 19.9323H100.971V19.8323ZM102 19.8323V19.9323H102.1V19.8323H102ZM102 12.186H102.1V12.086H102V12.186ZM101.009 12.186V12.086H100.909V12.186H101.009ZM101.009 18.1374L100.925 18.1908L101.109 18.4832V18.1374H101.009ZM97.2528 12.186L97.3373 12.1326L97.3079 12.086H97.2528V12.186ZM93.4387 18.7671C91.9119 20.271 89.4452 20.271 87.9184 18.7671L87.7781 18.9095C89.3827 20.4902 91.9744 20.4902 93.579 18.9095L93.4387 18.7671ZM93.4367 13.2365C94.9238 14.7867 94.9238 17.2189 93.4367 18.7691L93.581 18.9075C95.1423 17.28 95.1423 14.7256 93.581 13.0981L93.4367 13.2365ZM90.6786 12.1C91.715 12.1 92.7083 12.5098 93.4382 13.2381L93.5795 13.0965C92.8119 12.3306 91.7677 11.9 90.6786 11.9V12.1ZM87.9189 13.2381C88.6488 12.5098 89.6421 12.1 90.6786 12.1V11.9C89.5895 11.9 88.5452 12.3306 87.7776 13.0965L87.9189 13.2381ZM87.9206 18.7693C86.4397 17.2165 86.4397 14.7891 87.9206 13.2363L87.7759 13.0983C86.2213 14.7283 86.2213 17.2773 87.7759 18.9073L87.9206 18.7693ZM59.7162 16.3193C59.7591 17.2363 59.4205 18.1307 58.7793 18.7939L58.9231 18.9329C59.6024 18.2303 59.9614 17.2823 59.9159 16.31L59.7162 16.3193ZM59.6662 15.759C59.6994 15.9424 59.7161 16.1283 59.716 16.3146L59.916 16.3147C59.9161 16.1164 59.8984 15.9185 59.863 15.7234L59.6662 15.759ZM56.0209 15.8412H59.7646V15.6412H56.0209V15.8412ZM56.1209 16.6588V15.7412H55.9209V16.6588H56.1209ZM58.8126 16.5588H56.0209V16.7588H58.8126V16.5588ZM58.2425 18.2817C58.6547 17.8391 58.8927 17.2642 58.9125 16.662L58.7126 16.6555C58.6944 17.2091 58.4756 17.738 58.0962 18.1453L58.2425 18.2817ZM54.8145 18.9034C55.9769 19.4014 57.3276 19.1579 58.2385 18.2857L58.1002 18.1413C57.2475 18.9578 55.9822 19.1861 54.8933 18.7196L54.8145 18.9034ZM52.9233 16.0074C52.9055 17.2631 53.6521 18.4054 54.8145 18.9034L54.8933 18.7196C53.8045 18.2531 53.1067 17.184 53.1233 16.0102L52.9233 16.0074ZM53.7933 13.7774C53.2087 14.3739 52.8944 15.1809 52.9234 16.0123L53.1233 16.0053C53.0962 15.229 53.3896 14.475 53.9362 13.9174L53.7933 13.7774ZM56.0214 12.8503C55.1825 12.8462 54.378 13.1809 53.7933 13.7774L53.9362 13.9174C54.4827 13.3597 55.2353 13.0465 56.0204 13.0503L56.0214 12.8503ZM58.207 13.7904C57.666 13.153 56.8542 12.805 56.0155 12.8504L56.0263 13.0501C56.803 13.0081 57.5543 13.3304 58.0545 13.9198L58.207 13.7904ZM58.7422 13.1086L58.0604 13.7841L58.2011 13.9262L58.8829 13.2507L58.7422 13.1086ZM57.5662 12.4187C58.0171 12.5989 58.4185 12.8823 58.7374 13.2457L58.8877 13.1137C58.5479 12.7266 58.1205 12.4248 57.6404 12.233L57.5662 12.4187ZM56.0212 12.1073C56.5516 12.1055 57.0767 12.2112 57.5642 12.4179L57.6423 12.2338C57.1298 12.0165 56.5779 11.9054 56.0205 11.9073L56.0212 12.1073ZM53.2488 13.2245C53.9762 12.4889 54.9789 12.0843 56.0187 12.1072L56.0231 11.9073C54.9287 11.8831 53.8729 12.3089 53.1066 13.0839L53.2488 13.2245ZM52.3974 17.4728C51.7924 16.0165 52.1275 14.3426 53.2483 13.225L53.1071 13.0834C51.9291 14.258 51.5764 16.018 52.2127 17.5496L52.3974 17.4728ZM56.0216 19.8976C54.4305 19.8853 53.0025 18.9294 52.3974 17.4728L52.2127 17.5496C52.849 19.081 54.3496 20.0847 56.0201 20.0976L56.0216 19.8976ZM58.7795 18.7937C58.0614 19.5327 57.0596 19.9342 56.0244 19.8977L56.0173 20.0976C57.1087 20.1361 58.1652 19.7128 58.9229 18.9331L58.7795 18.7937ZM65.7078 13.0291H62.2343V13.2291H65.7078V13.0291ZM65.6078 12.186V13.1291H65.8078V12.186H65.6078ZM61.2051 12.286H65.7078V12.086H61.2051V12.286ZM61.3051 19.8323V12.186H61.1051V19.8323H61.3051ZM65.7078 19.7323H61.2051V19.9323H65.7078V19.7323ZM65.6078 18.8893V19.8323H65.8078V18.8893H65.6078ZM62.2343 18.9893H65.7078V18.7893H62.2343V18.9893ZM62.1343 16.4679V18.8893H62.3343V16.4679H62.1343ZM65.3991 16.3679H62.2343V16.5679H65.3991V16.3679ZM65.2991 15.5504V16.4679H65.4991V15.5504H65.2991ZM62.2343 15.6504H65.3991V15.4504H62.2343V15.6504ZM62.1343 13.1291V15.5504H62.3343V13.1291H62.1343ZM68.9367 19.9323H69.9273V19.7323H68.9367V19.9323ZM68.8367 13.1291V19.8323H69.0367V13.1291H68.8367ZM66.7754 13.2291H68.9367V13.0291H66.7754V13.2291ZM66.6754 12.186V13.1291H66.8754V12.186H66.6754ZM72.1401 12.086H66.7754V12.286H72.1401V12.086ZM72.2401 13.1291V12.186H72.0401V13.1291H72.2401ZM69.9273 13.2291H72.1401V13.0291H69.9273V13.2291ZM70.0273 19.8323V13.1291H69.8273V19.8323H70.0273ZM76.0224 19.8323V12.186H75.8224V19.8323H76.0224ZM76.913 19.7323H75.9224V19.9323H76.913V19.7323ZM76.813 12.186V19.8323H77.013V12.186H76.813ZM75.9224 12.286H76.913V12.086H75.9224V12.286ZM80.3229 19.9323H81.3135V19.7323H80.3229V19.9323ZM80.2229 13.1291V19.8323H80.4229V13.1291H80.2229ZM78.1616 13.2291H80.3229V13.0291H78.1616V13.2291ZM78.0616 12.186V13.1291H78.2616V12.186H78.0616ZM83.462 12.086H78.1616V12.286H83.462V12.086ZM83.562 13.1291V12.186H83.362V13.1291H83.562ZM81.3135 13.2291H83.462V13.0291H81.3135V13.2291ZM81.4135 19.8323V13.1291H81.2135V19.8323H81.4135ZM92.7059 18.1298C91.5853 19.2352 89.773 19.2352 88.6524 18.1298L88.5119 18.2721C89.7104 19.4544 91.6479 19.4544 92.8463 18.2721L92.7059 18.1298ZM92.7024 13.8846C93.8062 15.09 93.8062 16.9281 92.7024 18.1334L92.8499 18.2685C94.0237 16.9867 94.0237 15.0313 92.8499 13.7495L92.7024 13.8846ZM88.6524 13.8883C89.773 12.7828 91.5853 12.7828 92.7059 13.8883L92.8463 13.7459C91.6479 12.5636 89.7104 12.5636 88.5119 13.7459L88.6524 13.8883ZM88.6559 18.1334C87.5521 16.9281 87.5521 15.09 88.6559 13.8846L88.5084 13.7495C87.3346 15.0313 87.3346 16.9867 88.5084 18.2685L88.6559 18.1334ZM96.1435 19.8323V12.186H95.9435V19.8323H96.1435ZM97.0469 19.7323H96.0435V19.9323H97.0469V19.7323ZM96.9469 13.6006V19.8323H97.1469V13.6006H96.9469ZM101.055 19.779L97.1315 13.5473L96.9623 13.6539L100.886 19.8856L101.055 19.779ZM102 19.7323H100.971V19.9323H102V19.7323ZM101.9 12.186V19.8323H102.1V12.186H101.9ZM101.009 12.286H102V12.086H101.009V12.286ZM101.109 18.1374V12.186H100.909V18.1374H101.109ZM97.1682 12.2394L100.925 18.1908L101.094 18.084L97.3373 12.1326L97.1682 12.2394ZM96.0435 12.286H97.2528V12.086H96.0435V12.286Z" fill="white"/>
    <path d="M12.6104 12.5363C12.1867 13.0531 11.9729 13.7147 12.0125 14.3862V43.6141C11.9729 44.2856 12.1867 44.9471 12.6104 45.4639L12.7014 45.5564L28.8061 29.1983V28.8151L12.7014 12.4438L12.6104 12.5363Z" fill="url(#paint0_linear)"/>
    <path d="M34.1364 34.6548L28.8071 29.1977V28.8145L34.1364 23.3442L34.2534 23.4103L40.6355 27.0968C42.4552 28.1407 42.4552 29.8584 40.6355 30.9155L34.2794 34.5888L34.1364 34.6548Z" fill="url(#paint1_linear)"/>
    <path d="M34.2923 34.576L28.8071 29L12.6113 45.4638C13.3766 46.1476 14.5122 46.1809 15.315 45.5431L34.3053 34.576" fill="url(#paint2_linear)"/>
    <path d="M34.2919 23.4239L15.3015 12.4569C14.4988 11.819 13.3631 11.8523 12.5979 12.5362L28.8067 28.9999L34.2919 23.4239Z" fill="url(#paint3_linear)"/>
    <path opacity="0.2" d="M34.1363 34.4575L15.302 45.3585C14.5312 45.9443 13.4731 45.9443 12.7023 45.3585L12.6113 45.451L12.7023 45.5435C13.4716 46.1337 14.5327 46.1337 15.302 45.5435L34.2923 34.5764L34.1363 34.4575Z" fill="black"/>
    <path opacity="0.12" fill-rule="evenodd" clip-rule="evenodd" d="M34.1356 34.4571L40.6347 30.7177C41.3063 30.3807 41.7864 29.7463 41.9345 29C41.8675 29.825 41.3718 30.5507 40.6347 30.9027L34.2526 34.576L34.1356 34.4571ZM12.0101 43.686C12.0316 44.2673 12.2415 44.828 12.6109 45.2786L12.7019 45.3843L12.6109 45.4768C12.1996 44.9752 11.9861 44.3371 12.0101 43.686ZM12.0101 43.686C12.0109 43.6663 12.0118 43.6467 12.013 43.627V43.4288C12.0079 43.5148 12.007 43.6006 12.0101 43.686Z" fill="black"/>
    <path opacity="0.25" d="M15.3015 12.6409L40.635 27.2812C41.3067 27.6182 41.7867 28.2526 41.9349 28.999C41.8679 28.1739 41.3721 27.4482 40.635 27.0962L15.3015 12.4559C13.4818 11.412 12 12.2841 12 14.3983V14.5965C12.039 12.4691 13.4948 11.597 15.3015 12.6409Z" fill="white"/>
    <defs>
        <linearGradient id="paint0_linear" x1="21.7523" y1="-7.4144" x2="-4.09049" y2="-0.653338" gradientUnits="userSpaceOnUse">
            <stop stop-color="#00A0FF"/>
            <stop offset="0.01" stop-color="#00A1FF"/>
            <stop offset="0.26" stop-color="#00BEFF"/>
            <stop offset="0.51" stop-color="#00D2FF"/>
            <stop offset="0.76" stop-color="#00DFFF"/>
            <stop offset="1" stop-color="#00E3FF"/>
        </linearGradient>
        <linearGradient id="paint1_linear" x1="43.0142" y1="15.5215" x2="11.5715" y2="15.5215" gradientUnits="userSpaceOnUse">
            <stop stop-color="#FFE000"/>
            <stop offset="0.41" stop-color="#FFBD00"/>
            <stop offset="0.78" stop-color="#FFA500"/>
            <stop offset="1" stop-color="#FF9C00"/>
        </linearGradient>
        <linearGradient id="paint2_linear" x1="12.1355" y1="20.4477" x2="-9.08542" y2="55.5621" gradientUnits="userSpaceOnUse">
            <stop stop-color="#FF3A44"/>
            <stop offset="1" stop-color="#C31162"/>
        </linearGradient>
        <linearGradient id="paint3_linear" x1="-0.0363266" y1="7.9855" x2="9.43573" y2="23.6659" gradientUnits="userSpaceOnUse">
            <stop stop-color="#32A071"/>
            <stop offset="0.07" stop-color="#2DA771"/>
            <stop offset="0.48" stop-color="#15CF74"/>
            <stop offset="0.8" stop-color="#06E775"/>
            <stop offset="1" stop-color="#00F076"/>
        </linearGradient>
    </defs>
</svg>
