<svg width="100" height="137" viewBox="0 0 100 137" fill="none" xmlns="http://www.w3.org/2000/svg">
    <path opacity="0.3" d="M82.9497 99.1938L88.0578 102.139C92.7748 104.854 92.7748 109.318 88.0578 112.033L48.4352 134.905C44.7306 137.045 38.6791 137.045 34.9976 134.905L29.8894 131.96C28.6469 131.246 28.6469 129.451 29.8894 128.738L81.0859 99.1708C81.6612 98.8716 82.3745 98.8716 82.9497 99.1938Z" fill="black"/>
    <path d="M94.1557 31.2465C88.0582 17.7858 78.187 8.09873 67.1884 3.33573C56.1668 -1.42727 43.9717 -1.2662 33.2722 4.9234C22.5497 11.113 15.3246 22.1806 12.2874 35.043C9.25009 47.9054 10.4236 62.6316 16.5211 76.0693C22.6187 89.5299 32.4898 99.217 43.5115 103.98C54.5331 108.743 66.7052 108.605 77.4277 102.415C88.1502 96.2257 95.3752 85.1581 98.4125 72.2957C101.427 59.4103 100.253 44.7071 94.1557 31.2465ZM94.869 69.1434C92.2689 80.234 86.0333 89.76 76.8064 95.0753C67.5796 100.413 57.0872 100.529 47.6072 96.4328C38.1272 92.3371 29.6136 84.0076 24.3674 72.4107C19.0982 60.8369 18.0858 48.1816 20.7089 37.0909C23.309 26.0002 29.5446 16.4742 38.7715 11.159C47.9984 5.82078 58.4908 5.70573 67.9707 9.80145C77.4507 13.8972 85.9643 22.2267 91.2105 33.8235C96.4567 45.3974 97.4691 58.0527 94.869 69.1434Z" fill="#FF7A00"/>
    <path d="M43.4882 103.98C32.4666 99.2169 22.5954 89.5298 16.4979 76.0692C10.4003 62.6085 9.22681 47.9053 12.2641 35.0429C15.3014 22.1805 22.5494 11.1129 33.2719 4.9233C36.6313 2.99048 40.1058 1.65592 43.6723 0.850586L32.9958 3.22058C29.4293 4.00291 25.9548 5.36048 22.5954 7.29329C11.8729 13.4829 4.64789 24.5505 1.61061 37.4129C-1.42666 50.2753 -0.253171 65.0015 5.84439 78.4392C11.942 91.8998 21.8131 101.587 32.8347 106.35C40.4049 109.617 48.5273 110.584 56.3506 108.835L67.0271 106.465C59.2038 108.214 51.0814 107.247 43.4882 103.98Z" fill="#EE6100"/>
    <path d="M38.6561 10.8827C47.952 5.52144 58.4904 5.38339 68.0395 9.52513C77.5885 13.6669 86.125 22.0424 91.4173 33.6853C96.7095 45.3512 97.7219 58.0755 95.0988 69.2352C92.4757 80.3949 86.2171 89.9669 76.9212 95.3281C67.6253 100.689 57.0868 100.827 47.5378 96.6857C37.9888 92.567 29.4522 84.1685 24.16 72.5256C18.8678 60.8597 17.8554 48.1353 20.4785 36.9757C23.1016 25.816 29.3832 16.267 38.6561 10.8827Z" fill="#FF9100"/>
    <path d="M94.1557 31.2465C88.0582 17.7858 78.187 8.09873 67.1884 3.33573C56.1668 -1.42727 43.9717 -1.2662 33.2722 4.9234C22.5497 11.113 15.3246 22.1806 12.2874 35.043C9.25009 47.9054 10.4236 62.6316 16.5211 76.0693C22.6187 89.5299 32.4898 99.217 43.5115 103.98C54.5331 108.743 66.7052 108.605 77.4277 102.415C88.1502 96.2257 95.3752 85.1581 98.4125 72.2957C101.427 59.4103 100.253 44.7071 94.1557 31.2465ZM94.869 69.1434C92.2689 80.234 86.0333 89.76 76.8064 95.0753C67.5796 100.413 57.0872 100.529 47.6072 96.4328C38.1272 92.3371 29.6136 84.0076 24.3674 72.4107C19.0982 60.8369 18.0858 48.1816 20.7089 37.0909C23.309 26.0002 29.5446 16.4742 38.7715 11.159C47.9984 5.82078 58.4908 5.70573 67.9707 9.80145C77.4507 13.8972 85.9643 22.2267 91.2105 33.8235C96.4567 45.3974 97.4691 58.0527 94.869 69.1434Z" fill="#FF7A00"/>
    <path d="M38.6561 10.8827C47.952 5.52144 58.4904 5.38339 68.0395 9.52513C77.5885 13.6669 86.125 22.0424 91.4173 33.6853C96.7095 45.3512 97.7219 58.0755 95.0988 69.2352C92.4757 80.3949 86.2171 89.9669 76.9212 95.3281C67.6253 100.689 57.0868 100.827 47.5378 96.6857C37.9888 92.567 29.4522 84.1685 24.16 72.5256C18.8678 60.8597 17.8554 48.1353 20.4785 36.9757C23.1016 25.816 29.3832 16.267 38.6561 10.8827Z" fill="#FF9100"/>
    <g opacity="0.35">
        <path opacity="0.35" d="M93.1201 31.7291C88.7022 21.973 82.1905 14.0347 74.3672 8.65042C73.4008 7.98314 72.1583 8.90352 72.4574 10.008C72.4574 10.031 72.4574 10.031 72.4574 10.054C72.5494 10.3761 72.7565 10.6292 73.0326 10.7903C81.2241 15.6223 88.0349 23.4456 92.4528 33.2247C97.676 44.7296 98.9875 57.615 96.2033 69.511C93.3962 81.476 86.7464 91.002 77.4735 96.3402C74.3442 98.158 71.0308 99.4005 67.6023 100.114C67.0731 100.229 66.682 100.643 66.6129 101.195L66.2908 103.749C66.1757 104.624 66.9811 105.337 67.8324 105.107C70.9387 104.302 73.93 103.082 76.8062 101.425C86.9074 95.6039 94.1555 85.1576 97.2388 72.042C100.391 58.8115 98.8955 44.4995 93.1201 31.7291Z" fill="white"/>
    </g>
    <path d="M42.545 13.9663C59.6182 4.11814 81.3163 13.4831 91.0264 34.9281C100.736 56.3731 94.7539 81.7297 77.7038 91.5779C60.6536 101.426 38.9325 92.0381 29.2224 70.6161C19.5123 49.1941 25.4718 23.8144 42.545 13.9663Z" fill="#EBEBE9"/>
    <path d="M62.6093 69.2119L63.0695 70.2473L61.942 70.8916L63.5757 74.4811L62.5403 75.0794L60.9066 71.4899L59.7791 72.1572L59.2959 71.1217L62.6093 69.2119Z" fill="#131C20"/>
    <path d="M58.9974 71.2832L60.1478 73.8373C60.47 74.5275 60.539 75.1488 60.424 75.701C60.2859 76.2533 59.9408 76.6904 59.4115 76.9896C58.8593 77.3117 58.3531 77.3577 57.8699 77.1736C57.3867 76.9666 56.9955 76.5294 56.6964 75.8391L55.5459 73.285L56.5813 72.6868L57.7318 75.2178C58.077 75.9541 58.4681 76.1842 58.9283 75.9311C59.3885 75.655 59.4576 75.1718 59.1124 74.4125L57.9619 71.8815L58.9974 71.2832Z" fill="#131C20"/>
    <path d="M53.7278 74.3438L57.4553 78.0253L56.3739 78.6465L55.6836 77.9102L54.1189 78.8076L54.234 79.866L53.1755 80.4873L52.7153 74.919L53.7278 74.3438ZM53.9809 77.6801L54.9243 77.1279L53.7738 75.9084L53.9809 77.6801Z" fill="#131C20"/>
    <path d="M67.0734 67.9924C67.4185 68.2455 67.6947 68.6136 67.9017 69.0738C68.1088 69.534 68.2009 69.9942 68.2009 70.4544C68.2009 70.9146 68.0858 71.3518 67.8557 71.743C67.6486 72.1341 67.3265 72.4332 66.9353 72.6633C66.5442 72.8934 66.153 72.9855 65.7388 72.9625C65.3247 72.9395 64.9565 72.7784 64.6114 72.5253C64.2662 72.2722 63.9901 71.904 63.783 71.4438C63.5759 70.9836 63.4839 70.5234 63.4839 70.0632C63.5069 69.6031 63.6219 69.1659 63.829 68.7747C64.0361 68.3835 64.3583 68.0844 64.7494 67.8543C65.1406 67.6242 65.5317 67.5322 65.9459 67.5552C66.3601 67.5782 66.7282 67.7163 67.0734 67.9924ZM67.0274 70.4314C67.0274 70.1783 66.9583 69.9252 66.8433 69.6721C66.7282 69.419 66.5672 69.2119 66.4061 69.0508C66.222 68.8898 66.038 68.8207 65.8309 68.7977C65.6238 68.7747 65.4397 68.8207 65.2556 68.9128C65.0716 69.0278 64.9335 69.1659 64.8185 69.373C64.7264 69.58 64.6574 69.7871 64.6804 70.0402C64.6804 70.2933 64.7494 70.5465 64.8645 70.7996C64.9795 71.0527 65.1406 71.2598 65.3016 71.4208C65.4857 71.5819 65.6698 71.6509 65.8769 71.6739C66.084 71.6969 66.2681 71.6509 66.4521 71.5359C66.6362 71.4208 66.7743 71.2828 66.8893 71.0757C66.9814 70.9146 67.0274 70.6845 67.0274 70.4314Z" fill="#131C20"/>
    <path d="M80.1886 53.4736L80.7409 54.6931C80.9249 55.1073 81.3621 55.2914 81.6843 55.1073L82.6507 54.5321L83.2029 55.7516L82.2365 56.3268C81.3621 56.833 80.2577 56.3498 79.7514 55.2454L79.1992 54.0259L80.1886 53.4736Z" fill="#FF7A00"/>
    <path d="M79.3374 56.6716C80.2118 56.1654 81.3163 56.6486 81.8225 57.7531L82.3747 58.9726L81.4083 59.5248L80.8561 58.3053C80.672 57.8911 80.2348 57.707 79.9127 57.8911L78.9463 58.4433L78.394 57.2238L79.3374 56.6716Z" fill="#131C20"/>
    <path d="M77.4046 60.5374C77.7498 60.3533 78.0719 60.2383 78.4171 60.2383C78.7622 60.2383 79.0843 60.3073 79.3835 60.4914L79.0613 61.6189C78.6472 61.3888 78.279 61.3888 77.9569 61.5728C77.7498 61.6879 77.6117 61.849 77.4967 62.0561C77.3816 62.2631 77.3356 62.4702 77.3356 62.7233C77.3356 62.9764 77.4046 63.2295 77.5197 63.4827C77.6347 63.7358 77.7958 63.9429 77.9569 64.1039C78.1409 64.265 78.325 64.334 78.5321 64.357C78.7392 64.38 78.9463 64.334 79.1304 64.219C79.4755 64.0119 79.6826 63.6667 79.7516 63.1835L80.764 63.5517C80.718 63.9429 80.58 64.288 80.3729 64.5871C80.1658 64.8863 79.8897 65.1394 79.5675 65.3464C79.1764 65.5765 78.7852 65.6686 78.394 65.6456C78.0029 65.6226 77.6117 65.4615 77.2896 65.2084C76.9444 64.9553 76.6683 64.5871 76.4612 64.1269C76.2541 63.6667 76.1621 63.2065 76.1621 62.7233C76.1621 62.2401 76.2772 61.826 76.5073 61.4578C76.7143 61.0666 77.0135 60.7675 77.4046 60.5374Z" fill="#FF7A00"/>
    <path d="M75.2648 63.2531C75.6099 63.5062 75.8861 63.8744 76.0932 64.3346C76.3002 64.7948 76.3923 65.2549 76.3923 65.7151C76.3923 66.1753 76.2772 66.6125 76.0471 67.0037C75.84 67.3948 75.5179 67.694 75.1267 67.9241C74.7356 68.1542 74.3444 68.2462 73.9302 68.2232C73.5161 68.2002 73.1479 68.0391 72.8028 67.786C72.4576 67.5329 72.1815 67.1647 71.9744 66.7046C71.7673 66.2444 71.6753 65.7842 71.6753 65.324C71.6983 64.8638 71.8134 64.4266 72.0204 64.0354C72.2275 63.6443 72.5497 63.3451 72.9408 63.1151C73.332 62.885 73.7232 62.7929 74.1373 62.8159C74.5515 62.8389 74.9197 62.977 75.2648 63.2531ZM75.2188 65.7151C75.2188 65.462 75.1498 65.2089 75.0347 64.9558C74.9197 64.7027 74.7586 64.4956 74.5975 64.3346C74.4134 64.1735 74.2294 64.1045 74.0223 64.0815C73.8152 64.0584 73.6311 64.1045 73.447 64.1965C73.263 64.3116 73.1249 64.4496 73.0099 64.6567C72.9178 64.8638 72.8488 65.0709 72.8718 65.324C72.8718 65.5771 72.9408 65.8302 73.0559 66.0833C73.1709 66.3364 73.332 66.5435 73.4931 66.7046C73.6771 66.8656 73.8612 66.9346 74.0683 66.9577C74.2754 66.9807 74.4595 66.9346 74.6435 66.8196C74.8276 66.7046 74.9657 66.5665 75.0807 66.3594C75.1728 66.1753 75.2418 65.9682 75.2188 65.7151Z" fill="#FF7A00"/>
    <path d="M68.546 65.7836C68.9601 65.5535 69.3513 65.4385 69.7425 65.4385C70.1336 65.4385 70.5018 65.5765 70.8239 65.8296C71.1461 66.0828 71.4222 66.4279 71.6293 66.9111C71.8363 67.3943 71.9514 67.8315 71.9284 68.2917C71.9054 68.7289 71.7903 69.143 71.5602 69.5112C71.3301 69.8793 71.008 70.1785 70.6168 70.4086L69.3513 71.1449L68.8681 70.1094L70.0876 69.4192C70.4098 69.2351 70.6168 68.982 70.6859 68.6368C70.7779 68.2917 70.7319 67.9465 70.5478 67.5324C70.3637 67.1412 70.1336 66.8881 69.8345 66.773C69.5354 66.658 69.2363 66.681 68.9141 66.8651L67.6946 67.5554L67.2114 66.5199L68.546 65.7836Z" fill="#FF7A00"/>
    <path d="M88.2418 41.5547L88.0347 40.9564L90.1516 40.082L90.3586 40.6803L88.2418 41.5547Z" fill="#5D5D5D"/>
    <path d="M89.3232 45.2586L89.1621 44.6373L91.371 44.0391L91.5321 44.6603L89.3232 45.2586Z" fill="#5D5D5D"/>
    <path d="M90.1053 49.0557L89.9902 48.4344L92.2682 48.1123L92.3602 48.7336L90.1053 49.0557Z" fill="#5D5D5D"/>
    <path d="M90.5426 52.8978L90.4966 52.2535L92.7975 52.2305L92.8436 52.8748L90.5426 52.8978Z" fill="#5D5D5D"/>
    <path d="M90.4507 60.5138L90.4967 59.8926L92.7977 60.4448L92.7286 61.0661L90.4507 60.5138Z" fill="#5D5D5D"/>
    <path d="M92.2458 55.5898C92.5449 55.6128 92.775 55.935 92.775 56.2801V57.1545C92.775 57.3846 92.6599 57.5687 92.4989 57.6607C92.4298 57.7067 92.3378 57.7297 92.2458 57.7067L89.7377 57.4306C89.4386 57.4076 89.2085 57.0855 89.2085 56.7403V55.8659C89.2085 55.6359 89.3235 55.4518 89.4846 55.3597C89.5536 55.3137 89.6457 55.2907 89.7377 55.3137L92.2458 55.5898Z" fill="#5D5D5D"/>
    <path d="M89.8984 64.2414L90.0135 63.6201L92.2684 64.4485L92.1534 65.0697L89.8984 64.2414Z" fill="#5D5D5D"/>
    <path d="M66.4746 17.8541L66.9808 15.208L67.487 15.3921L66.9808 18.0382L66.4746 17.8541Z" fill="#5D5D5D"/>
    <path d="M89.001 67.8086L89.1851 67.2334L91.371 68.3379L91.2099 68.9131L89.001 67.8086Z" fill="#5D5D5D"/>
    <path d="M63.3223 16.9339L63.5754 14.2188L64.1046 14.3338L63.8515 17.0489L63.3223 16.9339Z" fill="#5D5D5D"/>
    <path d="M87.8047 71.2368L88.0348 70.6846L90.1287 72.0421L89.9216 72.5944L87.8047 71.2368Z" fill="#5D5D5D"/>
    <path d="M60.7451 13.7817C61.0442 13.8047 61.2743 14.1269 61.2743 14.472L61.2513 17.4633C61.2513 17.6934 61.1362 17.8774 60.9752 17.9695C60.9062 18.0155 60.8141 18.0385 60.7221 18.0155L59.9858 17.9235C59.6866 17.9005 59.4565 17.5783 59.4565 17.2332L59.4796 14.2419C59.4796 14.0118 59.5946 13.8277 59.7557 13.7357C59.8247 13.6897 59.9167 13.6667 60.0088 13.6897L60.7451 13.7817Z" fill="#5D5D5D"/>
    <path d="M86.0332 72.8016L88.1961 74.5503C88.4492 74.7574 88.5182 75.1486 88.3802 75.4247L88.012 76.138C87.966 76.23 87.897 76.2991 87.8279 76.3451C87.6669 76.4371 87.4598 76.4141 87.2987 76.276L85.1358 74.5503C84.8827 74.3432 84.8137 73.9521 84.9517 73.6759L85.3199 72.9626C85.3659 72.8706 85.4349 72.8016 85.504 72.7556C85.665 72.6635 85.8721 72.6635 86.0332 72.8016Z" fill="#5D5D5D"/>
    <path d="M56.9253 16.2666L56.7183 13.5054L57.2475 13.4824L57.4546 16.2666H56.9253Z" fill="#5D5D5D"/>
    <path d="M84.5371 77.449L84.8362 76.9658L86.7 78.8066L86.3779 79.2898L84.5371 77.449Z" fill="#5D5D5D"/>
    <path d="M53.7737 16.5431L53.3135 13.7819L53.8427 13.7129L54.3029 16.474L53.7737 16.5431Z" fill="#5D5D5D"/>
    <path d="M82.4663 80.1642L82.8345 79.75L84.5372 81.7748L84.169 82.212L82.4663 80.1642Z" fill="#5D5D5D"/>
    <path d="M50.6903 17.2101L50 14.5179L50.5062 14.3799L51.1965 17.072L50.6903 17.2101Z" fill="#5D5D5D"/>
    <path d="M80.1655 82.6031L80.5797 82.2119L82.0983 84.4438L81.7072 84.812L80.1655 82.6031Z" fill="#5D5D5D"/>
    <path d="M47.6987 18.2921L46.7783 15.646L47.2615 15.4619L48.1819 18.085L47.6987 18.2921Z" fill="#5D5D5D"/>
    <path d="M77.6572 84.6971L78.0944 84.375L79.429 86.745L78.9918 87.0671L77.6572 84.6971Z" fill="#5D5D5D"/>
    <path d="M58.7435 49.8381C60.032 49.1018 61.6427 49.8151 62.379 51.4258C63.0923 53.0365 62.6551 54.9232 61.3896 55.6596C60.1011 56.3959 58.4904 55.6826 57.7541 54.0949C56.9948 52.4612 57.455 50.5744 58.7435 49.8381Z" fill="#5D5D5D"/>
    <path d="M74.6434 84.6514C74.8966 84.5133 75.2187 84.6514 75.3567 84.9505L76.5993 87.6887C76.7373 88.0108 76.6453 88.379 76.4152 88.517L75.7709 88.8852C75.5178 89.0232 75.1957 88.8852 75.0576 88.586L73.8151 85.8479C73.677 85.5258 73.7691 85.1576 74.0222 85.0195L74.6434 84.6514Z" fill="#5D5D5D"/>
    <path d="M40.8418 19.1424L41.256 18.8203L42.6135 21.2133L42.1764 21.5355L40.8418 19.1424Z" fill="#5D5D5D"/>
    <path d="M72.9868 90.4493L72.0664 87.8262L72.5726 87.6191L73.493 90.2422L72.9868 90.4493Z" fill="#5D5D5D"/>
    <path d="M38.1499 21.4664L38.5641 21.0752L40.0827 23.3071L39.6915 23.6753L38.1499 21.4664Z" fill="#5D5D5D"/>
    <path d="M69.765 91.5309L69.0747 88.8158L69.5809 88.6777L70.2712 91.3929L69.765 91.5309Z" fill="#5D5D5D"/>
    <path d="M35.7339 24.113L36.079 23.6758L37.7817 25.7236L37.4366 26.1608L35.7339 24.113Z" fill="#5D5D5D"/>
    <path d="M66.4289 92.1749L65.9688 89.4368L66.498 89.3447L66.9582 92.1059L66.4289 92.1749Z" fill="#5D5D5D"/>
    <path d="M32.7192 29.4972L34.8821 31.2459C35.1352 31.453 35.2043 31.8442 35.0662 32.1203L34.6981 32.8336C34.652 32.9256 34.583 32.9946 34.514 33.0407C34.3529 33.1327 34.1458 33.1097 33.9848 32.9716L31.8219 31.2229C31.5687 31.0158 31.4997 30.6247 31.6378 30.3485L32.0059 29.6352C32.052 29.5432 32.121 29.4742 32.19 29.4282C32.3511 29.3591 32.5582 29.3591 32.7192 29.4972Z" fill="#5D5D5D"/>
    <path d="M33.5708 27.0813L33.8699 26.6211L35.7337 28.4389L35.4116 28.9221L33.5708 27.0813Z" fill="#5D5D5D"/>
    <path d="M63.0231 92.4053L62.793 89.6441L63.3222 89.6211L63.5523 92.4053H63.0231Z" fill="#5D5D5D"/>
    <path d="M60.0322 87.8501C60.3313 87.8731 60.5614 88.1952 60.5614 88.5404L60.5384 91.5317C60.5384 91.7618 60.4233 91.9458 60.2623 92.0379C60.1932 92.0839 60.1012 92.1069 60.0092 92.0839L59.2729 91.9919C58.9737 91.9688 58.7437 91.6467 58.7437 91.3016L58.7667 88.3103C58.7667 88.0802 58.8817 87.8961 59.0428 87.8041C59.1118 87.7581 59.2038 87.735 59.2959 87.758L60.0322 87.8501Z" fill="#5D5D5D"/>
    <path d="M30.1191 33.8462L30.3492 33.2939L32.4431 34.6515L32.236 35.2038L30.1191 33.8462Z" fill="#5D5D5D"/>
    <path d="M56.166 91.554L56.4191 88.8389L56.9484 88.9769L56.6952 91.6921L56.166 91.554Z" fill="#5D5D5D"/>
    <path d="M28.8999 37.5738L29.061 36.9756L31.2469 38.08L31.0858 38.6783L28.8999 37.5738Z" fill="#5D5D5D"/>
    <path d="M52.7837 90.4957L53.2669 87.8496L53.7961 88.0567L53.2899 90.7028L52.7837 90.4957Z" fill="#5D5D5D"/>
    <path d="M28.0024 41.4391L28.1175 40.8408L30.3724 41.6692L30.2574 42.2674L28.0024 41.4391Z" fill="#5D5D5D"/>
    <path d="M49.4702 89.0233L50.2065 86.4922L50.7127 86.7453L49.9764 89.2764L49.4702 89.0233Z" fill="#5D5D5D"/>
    <path d="M47.2384 84.7432L47.7216 85.0653L46.7552 87.4813L46.272 87.1592L47.2384 84.7432Z" fill="#5D5D5D"/>
    <path d="M45.4439 81.6822C45.697 81.8893 45.7661 82.2805 45.628 82.5566L44.3625 84.9956C44.3165 85.0877 44.2474 85.1567 44.1784 85.2027C44.0173 85.2948 43.8102 85.2718 43.6492 85.1337L43.0279 84.6275C42.7748 84.4204 42.7058 84.0292 42.8438 83.7531L44.1094 81.3141C44.1554 81.222 44.2244 81.153 44.2934 81.107C44.4545 81.0149 44.6616 81.038 44.8227 81.176L45.4439 81.6822Z" fill="#5D5D5D"/>
    <path d="M41.7624 80.2559L42.1996 80.67L40.819 82.7409L40.3818 82.3267L41.7624 80.2559Z" fill="#5D5D5D"/>
    <path d="M39.2999 77.541L39.7141 78.0012L38.1495 79.888L37.7583 79.4048L39.2999 77.541Z" fill="#5D5D5D"/>
    <path d="M37.0914 74.5498L37.4366 75.079L35.7109 76.7127L35.3657 76.2065L37.0914 74.5498Z" fill="#5D5D5D"/>
    <path d="M35.1123 71.3516L35.4345 71.8808L33.5477 73.3074L33.2485 72.7552L35.1123 71.3516Z" fill="#5D5D5D"/>
    <path d="M32.3512 69.8794C32.098 70.0175 31.7759 69.8794 31.6379 69.5803L31.2697 68.775C31.1316 68.4528 31.2237 68.0847 31.4768 67.9466L33.6627 66.7041C33.9158 66.5661 34.2379 66.7041 34.376 67.0032L34.7442 67.8086C34.8822 68.1307 34.7902 68.4989 34.5371 68.6369L32.3512 69.8794Z" fill="#5D5D5D"/>
    <path d="M32.029 64.334L32.2361 64.9552L30.1192 65.8296L29.9121 65.2314L32.029 64.334Z" fill="#5D5D5D"/>
    <path d="M30.9247 60.6289L31.0858 61.2502L28.8998 61.8714L28.7388 61.2272L30.9247 60.6289Z" fill="#5D5D5D"/>
    <path d="M30.1657 56.832L30.2577 57.4763L28.0027 57.7984L27.8877 57.1542L30.1657 56.832Z" fill="#5D5D5D"/>
    <path d="M29.7053 53.0127L29.7513 53.6339L27.4733 53.68L27.4043 53.0357L29.7053 53.0127Z" fill="#5D5D5D"/>
    <path d="M27.7724 50.206C27.4733 50.183 27.2432 49.8609 27.2432 49.5157V48.6413C27.2432 48.4112 27.3582 48.2272 27.5193 48.1351C27.5883 48.0891 27.6803 48.0661 27.7724 48.0891L30.2805 48.3652C30.5796 48.3882 30.8097 48.7104 30.8097 49.0555V49.9299C30.8097 50.16 30.6946 50.3441 30.5336 50.4361C30.4645 50.4821 30.3725 50.5051 30.2805 50.4821L27.7724 50.206Z" fill="#5D5D5D"/>
    <path d="M29.8201 45.3735L29.7511 45.9948L27.4731 45.4656L27.5192 44.8213L29.8201 45.3735Z" fill="#5D5D5D"/>
    <path d="M45.3744 21.1215C45.1213 21.2596 44.7992 21.1215 44.6611 20.8224L43.4186 18.0842C43.2806 17.7621 43.3726 17.3939 43.6257 17.2559L44.27 16.8877C44.5231 16.7497 44.8452 16.8877 44.9833 17.1868L46.2258 19.925C46.3639 20.2471 46.2718 20.6153 46.0187 20.7533L45.3744 21.1215Z" fill="#5D5D5D"/>
    <path d="M70.8006 16.8654L70.0643 19.4195L69.5581 19.1664L70.2944 16.6123L70.8006 16.8654Z" fill="#5D5D5D"/>
    <path d="M73.0325 21.1448L72.5493 20.8457L73.4927 18.4297L73.9759 18.7288L73.0325 21.1448Z" fill="#5D5D5D"/>
    <path d="M78.509 25.6545L78.0718 25.2174L79.4524 23.1465L79.8665 23.5837L78.509 25.6545Z" fill="#5D5D5D"/>
    <path d="M74.5968 24.1128C74.3437 23.9057 74.2746 23.5146 74.4127 23.2384L75.6782 20.7994C75.7242 20.7074 75.7933 20.6384 75.8623 20.5923C76.0234 20.5003 76.2304 20.5233 76.3915 20.6614L77.0128 21.1676C77.2659 21.3747 77.3579 21.7658 77.1969 22.0419L75.9313 24.481C75.8853 24.573 75.8163 24.642 75.7472 24.688C75.5862 24.7801 75.3791 24.7571 75.218 24.619L74.5968 24.1128Z" fill="#5D5D5D"/>
    <path d="M80.9478 28.3694L80.5566 27.8862L82.1213 26.0225L82.5125 26.4827L80.9478 28.3694Z" fill="#5D5D5D"/>
    <path d="M83.1797 31.3377L82.8115 30.8315L84.5373 29.1748L84.9054 29.681L83.1797 31.3377Z" fill="#5D5D5D"/>
    <path d="M85.4807 37.1595L87.6666 35.917C87.9197 35.779 88.2418 35.917 88.3799 36.2161L88.7481 37.0215C88.8861 37.3436 88.7941 37.7118 88.541 37.8498L86.355 39.0923C86.1019 39.2304 85.7798 39.0923 85.6418 38.7932L85.2736 37.9879C85.1355 37.6888 85.2276 37.3206 85.4807 37.1595Z" fill="#5D5D5D"/>
    <path d="M85.1355 34.5593L84.8364 34.0071L86.7002 32.6035L87.0223 33.1557L85.1355 34.5593Z" fill="#5D5D5D"/>
    <path d="M32.0066 10.6761C31.8685 10.6761 31.7305 10.6071 31.6384 10.515C31.4773 10.308 31.5004 10.0318 31.7074 9.87077C33.2491 8.60524 34.9058 7.47777 36.6085 6.48835C38.5643 5.36088 40.6352 4.41748 42.7291 3.68117C42.9592 3.58913 43.2353 3.72719 43.3043 3.95729C43.3963 4.18739 43.2583 4.4635 43.0282 4.53253C40.9803 5.24583 38.9785 6.16622 37.0687 7.27068C35.412 8.23709 33.8013 9.34155 32.2827 10.5611C32.2137 10.6301 32.0986 10.6761 32.0066 10.6761Z" fill="#EBEBE9"/>
    <path d="M23.401 20.3867C23.3089 20.3867 23.2399 20.3637 23.1479 20.3177C22.9408 20.1797 22.8718 19.9035 23.0098 19.6734C24.5285 17.2804 26.2772 15.0945 28.164 13.1157C28.3481 12.9316 28.6242 12.9316 28.8083 13.0927C28.9923 13.2768 28.9923 13.5529 28.8313 13.7369C26.9905 15.6698 25.2878 17.8097 23.7921 20.1566C23.7001 20.3177 23.539 20.3867 23.401 20.3867Z" fill="#EBEBE9"/>
    <path d="M73.309 102.369C73.1249 102.369 72.9408 102.254 72.8718 102.07C72.7798 101.84 72.8948 101.564 73.1479 101.472C74.9887 100.805 76.7835 99.9534 78.5092 98.9409C79.4296 98.4117 80.3499 97.8135 81.2473 97.1922C81.4544 97.0541 81.7535 97.1002 81.8916 97.3072C82.0296 97.5143 81.9836 97.8135 81.7765 97.9515C80.8792 98.5958 79.9358 99.194 78.9694 99.7463C77.1976 100.759 75.3569 101.633 73.4701 102.323C73.401 102.369 73.355 102.369 73.309 102.369Z" fill="#EBEBE9"/>
    <path d="M62.8849 19.5117L58.283 49.5163C58.283 49.5163 57.8688 54.1413 58.0989 54.5784L59.0193 59.7786C59.1113 60.1698 59.4795 60.3539 59.7326 60.2158C59.8016 60.1698 59.8706 60.1008 59.9167 60.0087L61.2282 56.8104L62.4937 51.7713L63.8053 19.7418L62.8849 19.5117Z" fill="#5A5A5A"/>
    <path d="M55.5219 48.55C55.6139 48.504 55.7289 48.481 55.844 48.527L58.283 49.4934L60.0778 50.2067C60.63 50.1607 61.2052 50.3678 61.7115 50.805C61.9646 51.0351 62.1947 51.3112 62.3557 51.5873L62.4938 51.7254L75.7473 66.1755L75.5863 66.4516L61.2052 56.7645L59.9167 55.8901C59.6406 55.7981 59.3415 55.637 59.0883 55.4069C58.5821 54.9697 58.237 54.3485 58.0759 53.7042L57.6618 53.0599L55.3378 49.3554C55.1767 49.0563 55.2918 48.6881 55.5219 48.55Z" fill="#424242"/>
    <path d="M59.5027 51.2649C60.216 50.8507 61.1364 51.2418 61.5506 52.1392C61.9647 53.0366 61.7116 54.1181 60.9983 54.5322C60.285 54.9464 59.3646 54.5552 58.9505 53.6579C58.5363 52.7375 58.7894 51.679 59.5027 51.2649Z" fill="#E75E00"/>
    <g opacity="0.28">
        <g opacity="0.28">
            <path opacity="0.28" d="M92.614 38.8397L50.7594 92.8664C43.7185 89.8291 37.2758 84.3068 32.4897 76.7136L78.0489 17.8779C83.2951 22.0657 87.805 27.8411 91.0263 34.9281C91.6246 36.2166 92.1538 37.5282 92.614 38.8397Z" fill="#D6D9E3"/>
            <path opacity="0.28" d="M95.6744 55.6597L64.8644 95.4434C61.482 95.6505 58.0766 95.2363 54.7632 94.2929L94.0637 43.5566C95.0991 47.5833 95.6283 51.656 95.6744 55.6597Z" fill="#D6D9E3"/>
        </g>
    </g>
    <path d="M42.7519 13.4368C60.0092 3.47359 82.0524 12.9996 91.8546 34.6747C101.68 56.3498 95.6051 82.0976 78.3479 92.0608C61.0906 102.024 39.0474 92.498 29.2452 70.8229C19.4431 49.1478 25.4947 23.4 42.7519 13.4368ZM77.9107 91.0484C94.7308 81.3383 100.644 56.2578 91.0722 35.1349C81.5002 14.012 60.0322 4.73912 43.2121 14.4492C26.392 24.1593 20.4786 49.2398 30.0506 70.3627C39.6226 91.4855 61.0906 100.758 77.9107 91.0484Z" fill="#AEAEAE"/>
</svg>
