<svg xmlns="http://www.w3.org/2000/svg" viewBox="0 0 24 24" id="tata">
  <path fill="#3F78BA" fill-rule="evenodd" d="M8.133 19.571C3.411 18.495 0 15.505 0 12c0-.438.054-.868.156-1.287 2.301-.625 8.34-1.554 9.444-.822.725.427-.687 6.174-1.467 9.68zm15.71-8.86c.103.42.157.851.157 1.289 0 3.512-3.425 6.507-8.162 7.579-.78-3.508-2.191-9.261-1.467-9.688 1.104-.731 7.167.195 9.472.82z" clip-rule="evenodd"></path>
  <path fill="#3F78BA" fill-rule="evenodd" d="M12 4c5.177 0 9.605 2.205 11.283 5.278-1.93-.3-10.867-2.446-10.767-.675v11.389a17.594 17.594 0 0 1-1.061-.002V8.602c.099-1.769-8.795.369-10.737.674C2.395 6.204 6.824 4 12 4z" clip-rule="evenodd"></path>
  <path fill="#3768A2" d="M7.886 9.622c-2.283 0-6.028.628-7.729 1.091A5.38 5.38 0 0 0 0 12c0 3.505 3.411 6.495 8.133 7.571.78-3.506 2.192-9.253 1.467-9.68-.288-.191-.91-.269-1.714-.269z"></path>
  <path fill="#3768A2" d="M12 4C6.824 4 2.395 6.204.718 9.276c1.385-.217 6.306-1.367 8.979-1.367 1.075 0 1.786.186 1.758.694V19.99c.181.007.362.01.545.01V4z"></path>
</svg>
